<?xml version="1.0" encoding="UTF-8"?><svg id="b" xmlns="http://www.w3.org/2000/svg" xmlns:xlink="http://www.w3.org/1999/xlink" viewBox="0 0 127.89 128.74"><defs><style>.ad{fill:url(#aa);}.ae{fill:url(#ab);}.af{fill:url(#u);}.ag{fill:url(#t);}.ah{fill:url(#y);}.ai{fill:url(#w);}.aj{fill:url(#x);}.ak{fill:url(#z);}.al{fill:url(#j);}.am{fill:url(#g);}.an{fill:url(#m);}.ao{fill:url(#h);}.ap{fill:url(#i);}.aq{fill:url(#q);}.ar{fill:url(#r);}.as{fill:url(#o);}.at{fill:url(#p);}.au{fill:url(#k);}.av{fill:url(#n);}.aw{fill:url(#l);}.ax{fill:url(#f);}.ay{fill:url(#d);}.az{fill:url(#s);}.ba{fill:url(#e);}.bb{fill:url(#v);}.bc{stroke-width:2px;}.bc,.bd{fill:none;stroke:#231f20;stroke-miterlimit:10;}</style><linearGradient id="d" x1="75.83" y1="7.32" x2="24.47" y2="11.95" gradientUnits="userSpaceOnUse"><stop offset="0" stop-color="#fff"/><stop offset="1" stop-color="#afbdc9"/></linearGradient><linearGradient id="e" x1="22.18" y1="19.38" x2="8.28" y2="37.07" gradientUnits="userSpaceOnUse"><stop offset="0" stop-color="#fff"/><stop offset="1" stop-color="#87c8ff"/></linearGradient><linearGradient id="f" x1="6.92" y1="68.86" x2="12.81" y2="35.17" gradientUnits="userSpaceOnUse"><stop offset=".28" stop-color="#fff"/><stop offset="1" stop-color="#afbdc9"/></linearGradient><linearGradient id="g" x1="10.64" y1="97.04" x2="35.06" y2="121.46" gradientUnits="userSpaceOnUse"><stop offset=".19" stop-color="#fff"/><stop offset="1" stop-color="#fff1cc"/></linearGradient><linearGradient id="h" x1="57.2" y1="122.28" x2="98.98" y2="113.79" xlink:href="#e"/><linearGradient id="i" x1="116.57" y1="98.51" x2="90.89" y2="122.51" xlink:href="#d"/><linearGradient id="j" x1="121.1" y1="67.19" x2="112.25" y2="33.92" xlink:href="#d"/><linearGradient id="k" x1="99.55" y1="12.27" x2="115.97" y2="32.9" xlink:href="#d"/><linearGradient id="l" x1="104.17" y1="91.19" x2="87.33" y2="105.51" xlink:href="#d"/><linearGradient id="m" x1="87.71" y1="19.7" x2="36.34" y2="24.34" xlink:href="#d"/><linearGradient id="n" x1="33.25" y1="28.09" x2="19.36" y2="45.77" xlink:href="#d"/><linearGradient id="o" x1="19.74" y1="71.1" x2="25.63" y2="37.42" xlink:href="#d"/><linearGradient id="p" x1="20.76" y1="86.92" x2="45.18" y2="111.34" xlink:href="#d"/><linearGradient id="q" x1="54.56" y1="109.26" x2="81.5" y2="103.79" xlink:href="#d"/><linearGradient id="r" x1="108.42" y1="70.56" x2="99.58" y2="37.29" xlink:href="#e"/><linearGradient id="s" x1="88.49" y1="22.05" x2="107.86" y2="45.63" xlink:href="#e"/><linearGradient id="t" x1="74.12" y1="20.15" x2="51.8" y2="39.94" xlink:href="#g"/><linearGradient id="u" x1="40.93" y1="34.12" x2="27.03" y2="51.8" xlink:href="#d"/><linearGradient id="v" x1="28.62" y1="72.65" x2="34.51" y2="38.97" xlink:href="#d"/><linearGradient id="w" x1="33.13" y1="84.27" x2="42.81" y2="96.9" xlink:href="#d"/><linearGradient id="x" x1="43.77" y1="97.82" x2="84.03" y2="97.82" xlink:href="#d"/><linearGradient id="y" x1="94.66" y1="85.37" x2="83.71" y2="96.74" xlink:href="#d"/><linearGradient id="z" x1="99.76" y1="72.86" x2="90.92" y2="39.59" xlink:href="#d"/><linearGradient id="aa" x1="81.86" y1="30.31" x2="98.7" y2="48.83" xlink:href="#d"/><linearGradient id="ab" x1="74.34" y1="76.42" x2="32.23" y2="29.26" xlink:href="#d"/></defs><g id="c"><polygon class="ay" points="98.26 1 89.77 16.56 89.74 16.53 37.63 16.41 29.63 1 98.26 1"/><polygon class="ba" points="37.63 16.41 36.9 16.41 15.78 37.53 15.78 37.74 1 29.63 29.63 1 37.63 16.41"/><polygon class="ax" points="15.84 90.88 1 99.11 1 29.63 15.78 37.74 15.78 90.82 15.84 90.88"/><polygon class="am" points="37.74 112.44 29.63 127.74 1 99.11 15.84 90.88 37.4 112.44 37.74 112.44"/><polygon class="ao" points="98.26 127.74 29.63 127.74 37.74 112.44 90.1 112.44 98.26 127.74"/><polygon class="ap" points="126.89 99.11 98.26 127.74 90.1 112.44 90.53 112.44 111.73 91.24 111.73 90.91 126.89 99.11"/><polygon class="al" points="126.89 30.06 126.89 99.11 111.73 90.91 111.73 38.53 111.63 38.43 126.89 30.06"/><polygon class="au" points="126.89 30.06 111.63 38.43 89.77 16.56 98.26 1 126.89 30.06"/><polygon class="aw" points="111.73 90.91 111.73 91.24 90.53 112.44 90.1 112.44 84.03 101.06 84.19 101.06 100.36 84.88 100.36 84.77 111.73 90.91"/><polygon class="an" points="89.77 16.56 83.59 27.89 83.58 27.88 43.53 27.79 37.63 16.41 89.74 16.53 89.77 16.56"/><polygon class="av" points="43.53 27.79 43.27 27.79 27.15 43.9 27.15 43.98 15.78 37.74 15.78 37.53 36.9 16.41 37.63 16.41 43.53 27.79"/><polygon class="as" points="27.17 84.58 15.84 90.88 15.78 90.82 15.78 37.74 27.15 43.98 27.15 84.56 27.17 84.58"/><polygon class="at" points="43.77 101.06 37.74 112.44 37.4 112.44 15.84 90.88 27.17 84.58 43.65 101.06 43.77 101.06"/><polygon class="aq" points="90.1 112.44 37.74 112.44 43.77 101.06 84.03 101.06 90.1 112.44"/><polygon class="ar" points="111.73 38.53 111.73 90.91 100.36 84.77 100.36 44.67 100.32 44.63 111.63 38.43 111.73 38.53"/><polygon class="az" points="111.63 38.43 100.32 44.63 83.59 27.89 89.77 16.56 111.63 38.43"/><polygon class="ag" points="83.59 27.89 80.07 34.35 46.89 34.27 43.53 27.79 83.58 27.88 83.59 27.89"/><polygon class="af" points="46.89 34.27 33.63 47.53 27.15 43.98 27.15 43.9 43.27 27.79 43.53 27.79 46.89 34.27"/><polygon class="bb" points="33.63 47.53 33.63 81 27.17 84.58 27.15 84.56 27.15 43.98 33.63 47.53"/><polygon class="ai" points="47.21 94.58 43.77 101.06 43.65 101.06 27.17 84.58 33.63 81 47.21 94.58"/><polygon class="aj" points="84.03 101.06 43.77 101.06 47.21 94.58 80.57 94.58 84.03 101.06"/><polygon class="ah" points="100.36 84.77 100.36 84.88 84.19 101.06 84.03 101.06 80.57 94.58 93.89 81.27 100.36 84.77"/><polygon class="ak" points="100.36 44.67 100.36 84.77 93.89 81.27 93.89 48.16 100.32 44.63 100.36 44.67"/><polygon class="ad" points="100.32 44.63 93.89 48.16 80.07 34.35 83.59 27.89 100.32 44.63"/><polygon class="ae" points="93.89 48.16 93.89 81.27 80.57 94.58 47.21 94.58 33.63 81 33.63 47.53 46.89 34.27 80.07 34.35 93.89 48.16"/></g><g id="ac"><polygon class="bc" points="98.26 1 29.63 1 1 29.63 1 99.11 29.63 127.74 98.26 127.74 126.89 99.11 126.89 30.05 98.26 1"/><polygon class="bd" points="46.89 34.26 33.63 47.53 33.63 81 47.21 94.58 80.58 94.58 93.89 81.26 93.89 48.16 80.08 34.34 46.89 34.26"/><polygon class="bd" points="43.27 27.78 27.16 43.9 27.16 84.56 43.65 101.06 84.19 101.06 100.37 84.88 100.37 44.66 83.58 27.88 43.27 27.78"/><polygon class="bd" points="36.91 16.41 15.79 37.52 15.79 90.82 37.41 112.44 90.54 112.44 111.74 91.24 111.74 38.53 89.74 16.53 36.91 16.41"/><line class="bd" x1="46.89" y1="34.26" x2="29.63" y2="1"/><line class="bd" x1="33.63" y1="47.53" x2="1" y2="29.63"/><line class="bd" x1="33.63" y1="81" x2="1" y2="99.11"/><line class="bd" x1="47.21" y1="94.58" x2="29.63" y2="127.74"/><line class="bd" x1="80.58" y1="94.58" x2="98.26" y2="127.74"/><line class="bd" x1="93.89" y1="81.26" x2="126.89" y2="99.11"/><line class="bd" x1="126.89" y1="30.05" x2="93.89" y2="48.16"/><line class="bd" x1="98.26" y1="1" x2="80.08" y2="34.34"/></g></svg>