<?xml version="1.0" encoding="UTF-8"?><svg id="b" xmlns="http://www.w3.org/2000/svg" xmlns:xlink="http://www.w3.org/1999/xlink" viewBox="0 0 113.37 132.38"><defs><style>.ae{fill:url(#ac);}.af{fill:url(#aa);}.ag{fill:url(#ab);}.ah{fill:url(#u);}.ai{fill:url(#t);}.aj{fill:url(#y);}.ak{fill:url(#w);}.al{fill:url(#x);}.am{fill:url(#z);}.an{fill:url(#j);}.ao{fill:url(#g);}.ap{fill:url(#m);}.aq{fill:url(#h);}.ar{fill:url(#i);}.as{fill:url(#q);}.at{fill:url(#r);}.au{fill:url(#o);}.av{fill:url(#p);}.aw{fill:url(#k);}.ax{fill:url(#n);}.ay{fill:url(#l);}.az{fill:url(#f);}.ba{fill:url(#d);}.bb{fill:url(#s);}.bc{fill:url(#e);}.bd{fill:url(#v);}.be{stroke-width:2px;}.be,.bf{fill:none;stroke:#231f20;stroke-miterlimit:10;}</style><linearGradient id="d" x1="57.31" y1="103.28" x2="81.18" y2="103.28" gradientUnits="userSpaceOnUse"><stop offset=".24" stop-color="#fff"/><stop offset=".66" stop-color="#87c8ff"/></linearGradient><linearGradient id="e" x1="9.87" y1="32.85" x2="3.76" y2="60.14" gradientUnits="userSpaceOnUse"><stop offset="0" stop-color="#fff"/><stop offset="1" stop-color="#afbdc9"/></linearGradient><linearGradient id="f" x1="22.98" y1="27.84" x2="-18.7" y2="31.63" gradientUnits="userSpaceOnUse"><stop offset="0" stop-color="#fff"/><stop offset=".05" stop-color="#eaedf0"/><stop offset=".13" stop-color="#d4dbe2"/><stop offset=".22" stop-color="#c3cdd6"/><stop offset=".33" stop-color="#b7c4ce"/><stop offset=".49" stop-color="#b0beca"/><stop offset=".92" stop-color="#afbdc9"/></linearGradient><linearGradient id="g" x1="48.75" y1="3.69" x2="9.73" y2="19.63" gradientUnits="userSpaceOnUse"><stop offset=".32" stop-color="#fff"/><stop offset="1" stop-color="#afbdc9"/></linearGradient><linearGradient id="h" x1="72.57" y1="9.05" x2="38.47" y2="19.58" xlink:href="#g"/><linearGradient id="i" x1="87.22" y1="3.17" x2="66.51" y2="14.72" xlink:href="#e"/><linearGradient id="j" x1="105.34" y1="26.28" x2="66.16" y2="27.9" xlink:href="#g"/><linearGradient id="k" x1="77.17" y1="35.62" x2="55.27" y2="9.51" gradientUnits="userSpaceOnUse"><stop offset=".19" stop-color="#fff"/><stop offset="1" stop-color="#fff1cc"/></linearGradient><linearGradient id="l" x1="31.18" y1="26.28" x2="63.52" y2="26.28" gradientUnits="userSpaceOnUse"><stop offset=".24" stop-color="#fff"/><stop offset="1" stop-color="#87c8ff"/></linearGradient><linearGradient id="m" x1="42.86" y1="49.89" x2="1.18" y2="53.68" xlink:href="#g"/><linearGradient id="n" x1="15.8" y1="67.03" x2="1.48" y2="67.03" xlink:href="#e"/><linearGradient id="o" x1="13.27" y1="73.95" x2="38.53" y2="106.79" xlink:href="#d"/><linearGradient id="p" x1="9.75" y1="99.5" x2="4.77" y2="78.31" xlink:href="#e"/><linearGradient id="q" x1="28.15" y1="113.25" x2="11.3" y2="85.04" xlink:href="#k"/><linearGradient id="r" x1="51.26" y1="116.69" x2="12.54" y2="137.27" xlink:href="#k"/><linearGradient id="s" x1="33.18" y1="104.78" x2="57.31" y2="104.78" xlink:href="#l"/><linearGradient id="t" x1="80.67" y1="121.95" x2="124.68" y2="121.95" gradientUnits="userSpaceOnUse"><stop offset="0" stop-color="#fff"/><stop offset="1" stop-color="#87c8ff"/></linearGradient><linearGradient id="u" x1="84.57" y1="111.98" x2="113.2" y2="79.14" xlink:href="#t"/><linearGradient id="v" x1="98.54" y1="93.37" x2="118.63" y2="83.97" xlink:href="#k"/><linearGradient id="w" x1="99.38" y1="71.29" x2="69.48" y2="107.92" xlink:href="#d"/><linearGradient id="x" x1="91.1" y1="66" x2="129" y2="58.42" xlink:href="#t"/><linearGradient id="y" x1="99.17" y1="37.97" x2="77.27" y2="53.97" gradientUnits="userSpaceOnUse"><stop offset=".42" stop-color="#fff"/><stop offset="1" stop-color="#afbdc9"/></linearGradient><linearGradient id="z" x1="70.63" y1="117.91" x2="13.78" y2="117.07" xlink:href="#d"/><linearGradient id="aa" x1="86.73" y1="97.34" x2="48.84" y2="119.24" xlink:href="#d"/><linearGradient id="ab" x1="116.94" y1="42.51" x2="87.21" y2="35.62" gradientUnits="userSpaceOnUse"><stop offset="0" stop-color="#fff"/><stop offset="1" stop-color="#afbdc9"/></linearGradient><linearGradient id="ac" x1="62.03" y1="71.88" x2="25.09" y2="25.46" xlink:href="#e"/></defs><g id="c"><polygon class="ba" points="81.18 93.53 75.68 113.03 57.31 105.03 81.18 93.53"/><path class="bc" d="m12.68,41.53L1,66.19l-.37-6.88c2.12-15,3.41-30.56,12.05-43.28h0s0,25.5,0,25.5Z"/><polygon class="az" points="34.68 16.03 31.18 36.53 12.68 41.53 12.68 16.03 34.68 16.03"/><path class="ao" d="m56.68,2l-22,14.03H12.68h0C23.19,5.53,37.83.25,52.62,1.62l4.06.38Z"/><polygon class="aq" points="75.18 15.53 54.68 26.53 34.68 16.03 56.68 2 75.18 15.53"/><path class="ar" d="m97.68,15.53h-22.5L56.68,2l2.56-.25c14.97-1.47,27.9,3.14,39.44,12.78l-1,1Z"/><polygon class="an" points="99.68 15.53 99.18 38.53 79.18 34.03 75.18 15.53 99.68 15.53"/><polygon class="aw" points="79.18 34.03 54.68 26.53 75.18 15.53 79.18 34.03"/><polygon class="ay" points="54.68 26.53 31.18 36.53 34.68 16.03 54.68 26.53"/><polygon class="ap" points="31.18 36.53 22.18 66.19 12.68 41.53 31.18 36.53"/><polygon class="ax" points="22.18 66.19 12.68 92.53 1 66.19 12.68 41.53 22.18 66.19"/><polygon class="au" points="33.18 95.03 12.68 92.53 22.18 66.19 33.18 95.03"/><path class="av" d="m15.68,119.03l-1-1c-7.64-9.93-12.36-25.86-13-38.37l-.68-13.47,11.68,26.34,3,26.5Z"/><polygon class="as" points="36.68 114.53 15.68 119.03 12.68 92.53 33.18 95.03 36.68 114.53"/><path class="at" d="m56.68,130.38l-4.45.51c-13.47,1.56-26-3.36-36.55-11.86l21-4.5,20,15.85Z"/><polygon class="bb" points="57.31 105.03 36.68 114.53 33.18 95.03 57.31 105.03"/><path class="ai" d="m100.69,115.82h0c-11.67,10.39-26.17,16.39-41.71,14.8l-2.3-.24,19-17.35,25.01,2.79Z"/><polygon class="ah" points="100.69 115.82 75.68 113.03 81.18 93.53 100.18 90.03 100.69 115.82"/><path class="bd" d="m112.37,63.44l-.91,18.33c-.47,9.48-4.53,26.9-10.77,34.05h0s-.51-25.79-.51-25.79l12.19-26.59Z"/><polygon class="ak" points="100.18 90.03 81.18 93.53 89.68 63.44 100.18 90.03"/><polygon class="al" points="112.37 63.44 100.18 90.03 89.68 63.44 99.18 38.53 112.37 63.44"/><polygon class="aj" points="99.18 38.53 89.68 63.44 79.18 34.03 99.18 38.53"/><polygon class="am" points="75.68 113.03 56.68 130.38 36.68 114.53 57.31 105.03 75.68 113.03"/><polygon class="af" points="81.18 93.53 75.68 113.03 57.31 105.03 81.18 93.53"/><polygon class="ag" points="110.37 43.38 112.37 63.44 99.18 38.53 99.68 16.53 106.28 28.35 110.37 43.38"/><polygon class="ae" points="89.68 63.44 81.18 93.53 57.31 105.03 33.18 95.03 22.18 66.19 31.18 36.53 54.68 26.53 79.18 34.03 89.68 63.44"/></g><g id="ad"><polyline class="bf" points="15.68 119.03 36.68 114.53 56.68 130.38 75.68 113.03 100.7 115.82 100.18 90.03 112.37 63.44 99.18 38.53 99.68 16.53 98.68 15.53 75.18 15.53 56.68 2 34.68 16.03 12.68 16.03 12.68 41.53 1 66.19 12.68 92.53 15.68 119.03"/><polygon class="bf" points="12.68 92.53 33.18 95.03 36.68 114.53 57.31 105.03 75.68 113.03 81.18 93.53 100.18 90.03 89.68 63.44 99.18 38.53 79.18 34.03 75.18 15.53 54.68 26.53 34.68 16.03 31.18 36.53 12.68 41.53 22.18 66.19 12.68 92.53"/><path class="be" d="m24.01,125.49h0c-6.08-3.56-10.98-8.84-14.07-15.17,0,0-8.94-18.32-8.94-46.04,0-20.9,6.25-38.08,6.25-38.08,2.86-7.86,8.39-14.47,15.62-18.68l1.17-.68C29.5,3.67,42.93.96,56.68,1s27.36,2.94,33.09,6.59l1.26.8c6.28,3.99,11.15,9.85,13.94,16.74,0,0,7.4,16.4,7.39,38.31,0,25.86-6.42,43.5-6.42,43.5-2.77,6.45-7.38,11.94-13.25,15.79l-2.78,1.82c-5.82,3.81-22.97,6.84-33.23,6.84-11.44,0-27.2-2.69-32.67-5.89Z"/><polygon class="bf" points="31.18 36.53 22.18 66.19 33.18 95.03 57.31 105.03 81.18 93.53 89.68 63.44 79.18 34.03 54.68 26.53 31.18 36.53"/></g></svg>