<?xml version="1.0" encoding="UTF-8"?><svg id="b" xmlns="http://www.w3.org/2000/svg" xmlns:xlink="http://www.w3.org/1999/xlink" viewBox="0 0 82.74 130.37"><defs><style>.ag{fill:url(#ad);}.ah{fill:url(#ac);}.ai{fill:url(#aa);}.aj{fill:url(#ab);}.ak{fill:url(#ae);}.al{fill:url(#u);}.am{fill:url(#t);}.an{fill:url(#y);}.ao{fill:url(#w);}.ap{fill:url(#x);}.aq{fill:url(#z);}.ar{fill:url(#j);}.as{fill:url(#g);}.at{fill:url(#m);}.au{fill:url(#h);}.av{fill:url(#i);}.aw{fill:url(#q);}.ax{fill:url(#r);}.ay{fill:url(#o);}.az{fill:url(#p);}.ba{fill:url(#k);}.bb{fill:url(#n);}.bc{fill:url(#l);}.bd{fill:url(#f);}.be{fill:url(#d);}.bf{fill:url(#s);}.bg{fill:url(#e);}.bh{fill:url(#v);}.bi{stroke-width:2px;}.bi,.bj{fill:none;stroke:#231f20;stroke-miterlimit:10;}</style><linearGradient id="d" x1="3.29" y1="17.15" x2="13.4" y2="4.09" gradientUnits="userSpaceOnUse"><stop offset="0" stop-color="#fff"/><stop offset="1" stop-color="#afbdc9"/></linearGradient><linearGradient id="e" x1="4.4" y1="28.95" x2="4.4" y2="100.63" gradientUnits="userSpaceOnUse"><stop offset=".19" stop-color="#fff"/><stop offset="1" stop-color="#fff1cc"/></linearGradient><linearGradient id="f" x1="17.37" y1="130.96" x2="2.21" y2="111.59" xlink:href="#e"/><linearGradient id="g" x1="26.84" y1="130.27" x2="64.32" y2="121.85" xlink:href="#d"/><linearGradient id="h" x1="69.75" y1="128.09" x2="79.44" y2="110.4" xlink:href="#d"/><linearGradient id="i" x1="78.11" y1="27.63" x2="78.95" y2="103" gradientUnits="userSpaceOnUse"><stop offset=".66" stop-color="#fff"/><stop offset="1" stop-color="#87c8ff"/></linearGradient><linearGradient id="j" x1="83.09" y1="19.9" x2="69.2" y2="5.17" xlink:href="#i"/><linearGradient id="k" x1="13.96" y1="1.48" x2="65.75" y2="6.11" xlink:href="#d"/><linearGradient id="l" x1="21.52" y1="115.7" x2="61.7" y2="115.7" xlink:href="#d"/><linearGradient id="m" x1="21.52" y1="115.7" x2="61.7" y2="115.7" xlink:href="#d"/><linearGradient id="n" x1="13.48" y1="6.82" x2="65.27" y2="11.45" xlink:href="#d"/><linearGradient id="o" x1="9.16" y1="21.69" x2="19.27" y2="8.63" xlink:href="#d"/><linearGradient id="p" x1="10.61" y1="28.95" x2="10.61" y2="100.63" xlink:href="#d"/><linearGradient id="q" x1="23.15" y1="126.44" x2="7.99" y2="107.07" xlink:href="#e"/><linearGradient id="r" x1="25.68" y1="125.1" x2="63.15" y2="116.68" xlink:href="#d"/><linearGradient id="s" x1="63.58" y1="124.7" x2="73.26" y2="107.02" xlink:href="#d"/><linearGradient id="t" x1="72.05" y1="27.7" x2="72.89" y2="103.07" xlink:href="#d"/><linearGradient id="u" x1="77.83" y1="24.87" x2="63.93" y2="10.13" xlink:href="#i"/><linearGradient id="v" x1="15.95" y1="28.95" x2="15.95" y2="100.63" xlink:href="#d"/><linearGradient id="w" x1="21.52" y1="115.7" x2="61.7" y2="115.7" xlink:href="#d"/><linearGradient id="x" x1="13" y1="12.16" x2="64.79" y2="16.79" xlink:href="#d"/><linearGradient id="y" x1="14.44" y1="25.78" x2="24.55" y2="12.72" xlink:href="#d"/><linearGradient id="z" x1="28.48" y1="122.27" x2="13.32" y2="102.9" xlink:href="#e"/><linearGradient id="aa" x1="57.89" y1="121.59" x2="67.58" y2="103.91" xlink:href="#d"/><linearGradient id="ab" x1="66.71" y1="27.76" x2="67.55" y2="103.13" xlink:href="#d"/><linearGradient id="ac" x1="72.97" y1="29.44" x2="59.08" y2="14.71" gradientUnits="userSpaceOnUse"><stop offset=".53" stop-color="#fff"/><stop offset="1" stop-color="#87c8ff"/></linearGradient><linearGradient id="ad" x1="24.52" y1="119.94" x2="62" y2="111.52" xlink:href="#d"/><linearGradient id="ae" x1="53.15" y1="87.79" x2="13.99" y2="10.74" xlink:href="#d"/></defs><g id="c"><polygon class="be" points="16.83 7.24 7.79 16.8 7.79 17.68 1 12.53 12.37 1.58 16.83 7.24"/><polygon class="bg" points="7.79 17.68 7.79 112.2 1 117.37 1 12.53 7.79 17.68"/><polygon class="bd" points="17.35 123.6 13 129.37 1 117.37 7.79 112.2 7.79 113.09 17.35 123.6"/><polygon class="as" points="70.05 129.37 13 129.37 17.35 123.6 17.82 124.11 65.5 124.11 65.85 123.72 70.05 129.37"/><polygon class="au" points="81.74 117.69 70.05 129.37 65.85 123.72 75.26 113.38 75.26 112.63 81.74 117.69"/><polygon class="av" points="81.74 12.53 81.74 117.69 75.26 112.63 75.26 17.53 81.74 12.53"/><polygon class="ar" points="75.26 17.53 75.26 16.8 65.98 6.6 70.21 1 81.74 12.53 75.26 17.53"/><polygon class="ba" points="70.21 1 65.98 6.6 65.63 6.21 17.29 6.75 16.83 7.24 12.37 1.58 70.21 1"/><polygon class="bc" points="61.7 118.13 61.5 118.37 21.78 118.37 21.52 118.07 25.33 113.02 57.91 113.02 61.7 118.13"/><polygon class="at" points="61.7 118.13 61.5 118.37 21.78 118.37 21.52 118.07 25.33 113.02 57.91 113.02 61.7 118.13"/><polygon class="bb" points="65.98 6.6 61.7 12.26 61.61 12.15 21.34 12.63 21.2 12.79 16.83 7.24 17.29 6.75 65.63 6.21 65.98 6.6"/><polygon class="ay" points="21.2 12.79 13.42 21.69 13.42 21.94 7.79 17.68 7.79 16.8 16.83 7.24 21.2 12.79"/><polygon class="az" points="13.42 21.94 13.42 107.91 7.79 112.2 7.79 17.68 13.42 21.94"/><polygon class="aw" points="21.52 118.07 17.35 123.6 7.79 113.09 7.79 112.2 13.42 107.91 13.42 108.44 21.52 118.07"/><polygon class="ax" points="65.85 123.72 65.5 124.11 17.82 124.11 17.35 123.6 21.52 118.07 21.78 118.37 61.5 118.37 61.7 118.13 65.85 123.72"/><polygon class="bf" points="75.26 112.63 75.26 113.38 65.85 123.72 61.7 118.13 69.63 108.7 69.63 108.23 75.26 112.63"/><polygon class="am" points="75.26 17.53 75.26 112.63 69.63 108.23 69.63 21.87 75.26 17.53"/><polygon class="al" points="75.26 16.8 75.26 17.53 69.63 21.87 69.63 21.69 61.7 12.26 65.98 6.6 75.26 16.8"/><polygon class="bh" points="18.47 25.77 18.47 104.06 13.42 107.91 13.42 21.94 18.47 25.77"/><polygon class="ao" points="61.7 118.13 61.5 118.37 21.78 118.37 21.52 118.07 25.33 113.02 57.91 113.02 61.7 118.13"/><polygon class="ap" points="61.7 12.26 58 17.16 24.97 17.59 21.2 12.79 21.34 12.63 61.61 12.15 61.7 12.26"/><polygon class="an" points="24.97 17.59 18.47 25.77 13.42 21.94 13.42 21.69 21.2 12.79 24.97 17.59"/><polygon class="aq" points="25.33 113.02 21.52 118.07 13.42 108.44 13.42 107.91 18.47 104.06 25.33 113.02"/><polygon class="ai" points="69.63 108.23 69.63 108.7 61.7 118.13 57.91 113.02 64.58 104.29 69.63 108.23"/><polygon class="aj" points="69.63 21.87 69.63 108.23 64.58 104.29 64.58 25.77 69.63 21.87"/><polygon class="ah" points="69.63 21.69 69.63 21.87 64.58 25.77 58 17.16 61.7 12.26 69.63 21.69"/><polygon class="ag" points="61.7 118.13 61.5 118.37 21.78 118.37 21.52 118.07 25.33 113.02 57.91 113.02 61.7 118.13"/><polygon class="ak" points="64.58 25.77 64.58 104.29 57.91 113.02 25.33 113.02 18.47 104.06 18.47 25.77 24.97 17.59 58 17.16 64.58 25.77"/></g><g id="af"><polygon class="bi" points="12.37 1.58 1 12.53 1 117.37 13 129.37 70.05 129.37 81.74 117.69 81.74 12.53 70.21 1 12.37 1.58"/><polygon class="bj" points="17.29 6.75 7.79 16.8 7.79 113.09 17.82 124.11 65.5 124.11 75.26 113.38 75.26 16.8 65.63 6.21 17.29 6.75"/><polygon class="bj" points="17.29 6.75 7.79 16.8 7.79 113.09 17.82 124.11 65.5 124.11 75.26 113.38 75.26 16.8 65.63 6.21 17.29 6.75"/><polygon class="bj" points="21.34 12.63 13.42 21.69 13.42 108.44 21.78 118.37 61.5 118.37 69.63 108.7 69.63 21.69 61.61 12.15 21.34 12.63"/><polygon class="bj" points="24.97 17.59 18.47 25.77 18.47 104.06 25.33 113.02 57.91 113.02 64.58 104.29 64.58 25.77 58 17.16 24.97 17.59"/><line class="bj" x1="70.05" y1="129.37" x2="57.91" y2="113.02"/><line class="bj" x1="81.74" y1="117.69" x2="64.58" y2="104.29"/><line class="bj" x1="81.74" y1="12.53" x2="64.58" y2="25.77"/><line class="bj" x1="70.21" y1="1" x2="58" y2="17.16"/><line class="bj" x1="12.37" y1="1.58" x2="24.97" y2="17.59"/><line class="bj" x1="18.47" y1="25.77" x2="1" y2="12.53"/><line class="bj" x1="18.47" y1="104.06" x2="1" y2="117.37"/><line class="bj" x1="25.33" y1="113.02" x2="13" y2="129.37"/></g></svg>