<?xml version="1.0" encoding="UTF-8"?><svg id="b" xmlns="http://www.w3.org/2000/svg" xmlns:xlink="http://www.w3.org/1999/xlink" viewBox="0 0 130.04 127.95"><defs><style>.aq{fill:url(#an);}.ar{fill:url(#ad);}.as{fill:url(#am);}.at{fill:url(#ac);}.au{fill:url(#ah);}.av{fill:url(#aa);}.aw{fill:url(#ag);}.ax{fill:url(#ab);}.ay{fill:url(#aj);}.az{fill:url(#ai);}.ba{fill:url(#ao);}.bb{fill:url(#af);}.bc{fill:url(#ae);}.bd{fill:url(#al);}.be{fill:url(#ak);}.bf{fill:url(#u);}.bg{fill:url(#t);}.bh{fill:url(#y);}.bi{fill:url(#w);}.bj{fill:url(#x);}.bk{fill:url(#z);}.bl{fill:url(#j);}.bm{fill:url(#g);}.bn{fill:url(#m);}.bo{fill:url(#h);}.bp{fill:url(#i);}.bq{fill:url(#q);}.br{fill:url(#r);}.bs{fill:url(#o);}.bt{fill:url(#p);}.bu{fill:url(#k);}.bv{fill:url(#n);}.bw{fill:url(#l);}.bx{fill:url(#f);}.by{fill:url(#d);}.bz{fill:url(#s);}.ca{fill:url(#e);}.cb{fill:url(#v);}.cc{stroke-width:2px;}.cc,.cd{fill:none;stroke:#231f20;stroke-miterlimit:10;}</style><linearGradient id="d" x1="25.92" y1="16.33" x2="8.15" y2="23.7" gradientUnits="userSpaceOnUse"><stop offset=".52" stop-color="#fff"/><stop offset="1" stop-color="#afbdc9"/></linearGradient><linearGradient id="e" x1="42.21" y1="11.79" x2="25.53" y2="3.65" gradientUnits="userSpaceOnUse"><stop offset=".24" stop-color="#fff"/><stop offset="1" stop-color="#afbdc9"/></linearGradient><linearGradient id="f" x1="51.47" y1="3.07" x2="37.57" y2="10.22" gradientUnits="userSpaceOnUse"><stop offset=".54" stop-color="#fff"/><stop offset="1" stop-color="#afbdc9"/></linearGradient><linearGradient id="g" x1="11.81" y1="27.89" x2="-.4" y2="56.1" gradientUnits="userSpaceOnUse"><stop offset="0" stop-color="#fff"/><stop offset="1" stop-color="#87c8ff"/></linearGradient><linearGradient id="h" x1="20.72" y1="69.34" x2="10.93" y2="60.81" xlink:href="#e"/><linearGradient id="i" x1="35.18" y1="83.28" x2="13.71" y2="73.18" gradientUnits="userSpaceOnUse"><stop offset=".45" stop-color="#fff"/><stop offset="1" stop-color="#afbdc9"/></linearGradient><linearGradient id="j" x1="55.58" y1="111.26" x2="35.37" y2="96.1" gradientUnits="userSpaceOnUse"><stop offset=".19" stop-color="#fff"/><stop offset="1" stop-color="#fff1cc"/></linearGradient><linearGradient id="k" x1="65.59" y1="118.6" x2="61.06" y2="118.07" xlink:href="#e"/><linearGradient id="l" x1="64.91" y1="118.53" x2="76.19" y2="118.53" gradientUnits="userSpaceOnUse"><stop offset=".24" stop-color="#fff"/><stop offset=".7" stop-color="#afbdc9"/></linearGradient><linearGradient id="m" x1="65.07" y1="107.14" x2="99.22" y2="107.14" xlink:href="#e"/><linearGradient id="n" x1="108.9" y1="69.84" x2="124.48" y2="59.74" xlink:href="#j"/><linearGradient id="o" x1="105.24" y1="80.35" x2="113.66" y2="79.51" xlink:href="#e"/><linearGradient id="p" x1="115.31" y1="6.03" x2="90.05" y2="9.64" gradientUnits="userSpaceOnUse"><stop offset=".41" stop-color="#fff"/><stop offset="1" stop-color="#afbdc9"/></linearGradient><linearGradient id="q" x1="92.7" y1="1.05" x2="80.97" y2="15.04" gradientUnits="userSpaceOnUse"><stop offset=".44" stop-color="#fff"/><stop offset="1" stop-color="#afbdc9"/></linearGradient><linearGradient id="r" x1="35.96" y1="54.93" x2="94.07" y2="54.93" xlink:href="#e"/><linearGradient id="s" x1="122.17" y1="9.07" x2="112.96" y2="26.4" gradientUnits="userSpaceOnUse"><stop offset=".63" stop-color="#fff"/><stop offset="1" stop-color="#afbdc9"/></linearGradient><linearGradient id="t" x1="119.21" y1="29.49" x2="121.73" y2="45.92" xlink:href="#e"/><linearGradient id="u" x1="35.7" y1="30.19" x2="22.55" y2="16.65" xlink:href="#e"/><linearGradient id="v" x1="75.41" y1="15.46" x2="45.51" y2="14.2" xlink:href="#e"/><linearGradient id="w" x1="53.86" y1="8.74" x2="63.74" y2="8.74" xlink:href="#e"/><linearGradient id="x" x1="65.02" y1="9.26" x2="76.27" y2="9.26" xlink:href="#e"/><linearGradient id="y" x1="35.81" y1="44.46" x2="11.5" y2="55.2" gradientUnits="userSpaceOnUse"><stop offset=".44" stop-color="#fff"/><stop offset="1" stop-color="#afbdc9"/></linearGradient><linearGradient id="z" x1="47.5" y1="97.17" x2="28.13" y2="68.11" xlink:href="#j"/><linearGradient id="aa" x1="79.02" y1="95.05" x2="108.91" y2="72.32" xlink:href="#g"/><linearGradient id="ab" x1="99.22" y1="95.96" x2="101.23" y2="95.96" xlink:href="#e"/><linearGradient id="ac" x1="98.14" y1="50.8" x2="120.46" y2="41.96" xlink:href="#g"/><linearGradient id="ad" x1="108.56" y1="17.3" x2="93.91" y2="29.24" xlink:href="#e"/><linearGradient id="ae" x1="35.96" y1="54.93" x2="94.07" y2="54.93" xlink:href="#e"/><linearGradient id="af" x1="37.65" y1="26.51" x2="65.02" y2="26.51" gradientUnits="userSpaceOnUse"><stop offset=".32" stop-color="#fff"/><stop offset="1" stop-color="#87c8ff"/></linearGradient><linearGradient id="ag" x1="20.81" y1="39.14" x2="37.65" y2="39.14" xlink:href="#e"/><linearGradient id="ah" x1="33.43" y1="56.8" x2="44.8" y2="72.27" xlink:href="#e"/><linearGradient id="ai" x1="75.8" y1="87.27" x2="66.95" y2="98.64" xlink:href="#e"/><linearGradient id="aj" x1="97.37" y1="56.56" x2="86.01" y2="71.72" xlink:href="#e"/><linearGradient id="ak" x1="105.69" y1="33.11" x2="93.48" y2="41.11" xlink:href="#e"/><linearGradient id="al" x1="89.32" y1="27.3" x2="77.11" y2="21.41" xlink:href="#j"/><linearGradient id="am" x1="84.5" y1="67.67" x2="37.76" y2="25.15" xlink:href="#e"/><linearGradient id="an" x1="52.75" y1="117.8" x2="53.86" y2="117.8" xlink:href="#e"/><linearGradient id="ao" x1="55.15" y1="86.34" x2="64.42" y2="99.81" xlink:href="#e"/></defs><g id="c"><polygon class="by" points="20.81 30.61 3.54 23.45 17.59 7.61 20.81 30.61"/><polygon class="ca" points="39.75 18.61 16.59 8.61 25.81 3.11 38.07 .45 39.75 18.61"/><path class="bx" d="m53.86,5.11l-14.11,13.5L38.07.45l15.16,4.31c.14.05.35.17.63.35Z"/><polygon class="bm" points="20.81 30.61 4.38 56.71 .17 38.18 3.54 23.45 20.81 30.61"/><polygon class="bo" points="31.54 66.82 12.81 74.4 4.38 56.71 31.54 66.82"/><polygon class="bp" points="31.54 66.82 28.81 95.03 12.81 74.4 31.54 66.82"/><polygon class="bl" points="65.07 110.39 55.86 119.45 28.81 95.03 65.07 110.39"/><path class="bu" d="m65.07,110.39l-.16,16.27s-7.84-6.42-9.16-7.51l9.32-8.76Z"/><path class="bw" d="m76.19,117.44l-1.91,1.71c-1.38,1.14-9.37,7.51-9.37,7.51l.16-16.27,11.12,7.05Z"/><polygon class="bn" points="99.22 96.83 76.19 117.44 65.07 110.39 99.22 96.83"/><polygon class="bv" points="125.65 56.71 117.59 73.64 99.33 66.61 125.65 56.71"/><polygon class="bs" points="117.59 73.64 117.23 74.4 101.23 95.03 101.17 95.08 99.33 66.61 117.59 73.64"/><polygon class="bt" points="112.44 7.61 91.12 18.4 91.96 .45 101.34 2.73 112.44 7.61"/><polygon class="bq" points="91.96 1.45 91.12 18.4 76.27 5.17 76.81 4.76 91.96 1.45"/><polygon class="br" points="94.07 48.29 79.75 77.34 65.28 91.45 51.96 77.97 35.96 47.66 37.65 34.4 65.02 25.34 91.12 18.4 92.81 33.97 94.07 48.29"/><polygon class="bz" points="125.49 23.45 109.86 29.34 111.44 8.61 118.83 12.9 125.49 23.45"/><polygon class="bg" points="129.86 38.18 125.65 56.71 109.86 29.34 126.49 23.45 129.86 38.18"/><polygon class="bf" points="39.75 18.61 37.65 34.4 20.81 30.61 18.59 8.61 39.75 18.61"/><path class="cb" d="m91.12,18.4l-26.1,6.94-25.27-6.73,14.11-13.5c2.03,1.28,7.4,5.59,9.88,7.6l.45.37.2.16.18.15.45.37,11.25-8.59,14.85,13.23Z"/><path class="bi" d="m63.74,12.71c-2.48-2.01-7.85-6.32-9.88-7.6l.37-.35,9.51,7.95Z"/><polygon class="bj" points="76.27 5.17 65.02 13.76 75.81 4.76 76.27 5.17"/><polygon class="bh" points="35.96 47.66 31.54 66.82 4.38 56.71 20.81 30.61 35.96 47.66"/><polygon class="bk" points="65.07 110.39 28.81 95.03 31.54 66.82 51.96 77.97 65.07 110.39"/><polygon class="av" points="101.17 95.08 99.22 96.83 65.07 110.39 79.75 77.34 99.33 66.61 101.17 95.08"/><polygon class="ax" points="101.17 95.08 101.23 96.03 99.22 96.83 101.17 95.08"/><polygon class="at" points="125.65 56.71 99.33 66.61 94.07 48.29 109.86 29.34 125.65 56.71"/><polygon class="ar" points="111.44 8.61 109.86 29.34 92.81 33.97 91.12 18.4 111.44 8.61"/><polygon class="bc" points="94.07 48.29 79.75 77.34 65.28 91.45 51.96 77.97 35.96 47.66 37.65 34.4 65.02 25.34 91.12 18.4 92.81 33.97 94.07 48.29"/><polygon class="bb" points="65.02 25.34 37.65 34.4 39.75 18.61 65.02 25.34"/><polygon class="aw" points="37.65 34.4 35.96 47.66 20.81 30.61 37.65 34.4"/><polygon class="au" points="51.96 77.97 31.54 66.82 35.96 47.66 51.96 77.97"/><polygon class="az" points="79.75 77.34 65.07 110.39 65.28 91.45 79.75 77.34"/><polygon class="ay" points="99.33 66.61 79.75 77.34 94.07 48.29 99.33 66.61"/><polygon class="be" points="109.86 29.34 94.07 48.29 92.81 33.97 109.86 29.34"/><polygon class="bd" points="92.81 33.97 65.02 25.34 91.12 18.4 92.81 33.97"/><polygon class="as" points="94.07 48.29 79.75 77.34 65.28 91.45 51.96 77.97 35.96 47.66 37.65 34.4 65.02 25.34 92.81 33.97 94.07 48.29"/><line class="aq" x1="53.86" y1="117.45" x2="52.75" y2="118.15"/><polygon class="ba" points="65.28 91.45 65.07 110.39 51.96 77.97 65.28 91.45"/></g><g id="ap"><path class="cc" d="m53.23,4.76C43.02-.55,34.42.67,27.68,2.92h0c-7.22,2.41-13.57,6.91-18.23,12.92l-1.12,1.44c-3.15,4.07-5.38,8.77-6.52,13.78h0c-1.07,4.69-1.07,9.56,0,14.25l1.29,5.66c.87,3.82,2.15,7.53,3.84,11.06h0c3.91,8.22,8.7,16,14.28,23.19l.05.06c5.03,6.48,10.64,12.5,16.75,17.97l17.76,15.89c1.32,1.09,9.16,7.52,9.16,7.52,0,0,7.99-6.38,9.37-7.52l18.09-16.19c5.89-5.28,11.3-11.07,16.14-17.32h0c5.79-7.47,10.76-15.54,14.83-24.08h0c1.53-3.22,2.71-6.6,3.5-10.08l1.4-6.17c1.07-4.69,1.06-9.56,0-14.25h0c-1.15-5.01-3.37-9.72-6.52-13.78l-1.12-1.44c-4.66-6.02-11.01-10.52-18.23-12.92h0c-6.74-2.25-14.03-2.19-20.74.16h0c-3.19,1.12-6.18,2.73-8.87,4.78l-7.73,5.91s-8.5-7.3-11.79-9.01Z"/><polygon class="cd" points="53.23 5.76 39.76 18.61 18.6 8.61 20.81 30.61 5.39 56.71 31.55 66.82 29.81 94.03 65.07 110.4 100.23 95.03 99.34 66.61 124.65 56.71 109.86 29.35 111.44 8.61 91.12 18.4 76.81 5.76 65.02 13.77 53.23 5.76"/><polygon class="cd" points="39.76 18.61 37.65 34.4 20.81 30.61 35.97 47.66 31.55 66.82 51.97 77.98 65.07 110.4 79.76 77.35 99.34 66.61 94.07 48.29 109.86 29.35 92.81 33.98 91.12 18.4 65.02 25.35 39.76 18.61"/><polygon class="cd" points="37.65 34.4 35.97 47.66 51.97 77.98 65.28 91.45 79.76 77.35 94.07 48.29 92.81 33.98 65.02 25.35 37.65 34.4"/><polyline class="cd" points="55.76 119.15 65.07 110.4 64.91 126.67"/><line class="cd" x1="117.84" y1="73.12" x2="99.34" y2="66.61"/><line class="cd" x1="126.49" y1="23.45" x2="109.86" y2="29.35"/><line class="cd" x1="91.97" y1="1.45" x2="91.12" y2="18.4"/><line class="cd" x1="38.07" y1="1.45" x2="39.76" y2="18.61"/><line class="cd" x1="3.55" y1="23.45" x2="20.81" y2="30.61"/><line class="cd" x1="12.81" y1="74.4" x2="31.55" y2="66.82"/><polyline class="cd" points="65.28 91.45 65.07 110.4 76.2 117.44"/></g></svg>