<?xml version="1.0" encoding="UTF-8"?><svg id="b" xmlns="http://www.w3.org/2000/svg" xmlns:xlink="http://www.w3.org/1999/xlink" viewBox="0 0 76.03 162.03"><defs><style>.ap{fill:url(#an);}.aq{fill:url(#ad);}.ar{fill:url(#am);}.as{fill:url(#ac);}.at{fill:url(#ah);}.au{fill:url(#aa);}.av{fill:url(#ag);}.aw{fill:url(#ab);}.ax{fill:url(#aj);}.ay{fill:url(#ai);}.az{fill:url(#af);}.ba{fill:url(#ae);}.bb{fill:url(#al);}.bc{fill:url(#ak);}.bd{fill:url(#u);}.be{fill:url(#t);}.bf{fill:url(#y);}.bg{fill:url(#w);}.bh{fill:url(#x);}.bi{fill:url(#z);}.bj{fill:url(#j);}.bk{fill:url(#g);}.bl{fill:url(#m);}.bm{fill:url(#h);}.bn{fill:url(#i);}.bo{fill:url(#q);}.bp{fill:url(#r);}.bq{fill:url(#o);}.br{fill:url(#p);}.bs{fill:url(#k);}.bt{fill:url(#n);}.bu{fill:url(#l);}.bv{fill:url(#f);}.bw{fill:url(#d);}.bx{fill:url(#s);}.by{fill:url(#e);}.bz{fill:url(#v);}.ca{stroke-width:2px;}.ca,.cb{fill:none;stroke:#231f20;stroke-miterlimit:10;}</style><linearGradient id="d" x1="23.51" y1="22.82" x2="13.58" y2="36.33" gradientUnits="userSpaceOnUse"><stop offset=".41" stop-color="#fff"/><stop offset="1" stop-color="#afbdc9"/></linearGradient><linearGradient id="e" x1="35.8" y1="6.28" x2="23.59" y2="22.7" xlink:href="#d"/><linearGradient id="f" x1="50.85" y1="21.03" x2="42.01" y2="9.67" xlink:href="#d"/><linearGradient id="g" x1="70" y1="33.79" x2="52.08" y2="24.83" gradientUnits="userSpaceOnUse"><stop offset=".5" stop-color="#fff"/><stop offset="1" stop-color="#afbdc9"/></linearGradient><linearGradient id="h" x1="14.09" y1="42" x2="7.15" y2="61.61" xlink:href="#d"/><linearGradient id="i" x1="9.54" y1="56.78" x2="1.47" y2="70.92" xlink:href="#d"/><linearGradient id="j" x1="9.01" y1="105.92" x2="2.88" y2="92.04" xlink:href="#d"/><linearGradient id="k" x1="18.07" y1="112.31" x2="11.89" y2="117.19" xlink:href="#d"/><linearGradient id="l" x1="29.12" y1="139.42" x2="15.01" y2="139.78" gradientUnits="userSpaceOnUse"><stop offset="0" stop-color="#fff"/><stop offset=".82" stop-color="#fff1cc"/></linearGradient><linearGradient id="m" x1="38.4" y1="148.15" x2="29.14" y2="153.2" xlink:href="#d"/><linearGradient id="n" x1="38.02" y1="150.69" x2="51.64" y2="150.69" xlink:href="#d"/><linearGradient id="o" x1="44.95" y1="140.82" x2="60.29" y2="140.82" xlink:href="#d"/><linearGradient id="p" x1="60.39" y1="116.77" x2="70.69" y2="116.77" xlink:href="#d"/><linearGradient id="q" x1="61.46" y1="103.13" x2="70.92" y2="95.44" gradientUnits="userSpaceOnUse"><stop offset=".19" stop-color="#fff"/><stop offset="1" stop-color="#fff1cc"/></linearGradient><linearGradient id="r" x1="12.11" y1="63.65" x2="26.95" y2="63.65" xlink:href="#d"/><linearGradient id="s" x1="67.96" y1="60.49" x2="70.02" y2="69.58" xlink:href="#d"/><linearGradient id="t" x1="72" y1="39.27" x2="65.83" y2="62.75" gradientUnits="userSpaceOnUse"><stop offset="0" stop-color="#fff"/><stop offset="1" stop-color="#87c8ff"/></linearGradient><linearGradient id="u" x1="46.11" y1="8.27" x2="33.9" y2="29.75" xlink:href="#d"/><linearGradient id="v" x1="65.46" y1="42.19" x2="52.64" y2="42.94" xlink:href="#d"/><linearGradient id="w" x1="27.63" y1="30.91" x2="13.31" y2="48.59" xlink:href="#d"/><linearGradient id="x" x1="7.7" y1="38.52" x2="7.71" y2="38.52" xlink:href="#d"/><linearGradient id="y" x1="19.28" y1="80.67" x2="3.1" y2="84.05" xlink:href="#d"/><linearGradient id="z" x1="27.38" y1="115.6" x2="15.87" y2="127.78" xlink:href="#d"/><linearGradient id="aa" x1="43.1" y1="152.62" x2="34.26" y2="142.09" xlink:href="#d"/><linearGradient id="ab" x1="68.6" y1="120.45" x2="48.48" y2="121.68" gradientUnits="userSpaceOnUse"><stop offset=".59" stop-color="#fff"/><stop offset="1" stop-color="#afbdc9"/></linearGradient><linearGradient id="ac" x1="76.02" y1="79.59" x2="62.09" y2="81.47" xlink:href="#d"/><linearGradient id="ad" x1="12.11" y1="63.65" x2="26.95" y2="63.65" xlink:href="#d"/><linearGradient id="ae" x1="26.95" y1="35.86" x2="38.2" y2="35.86" gradientUnits="userSpaceOnUse"><stop offset=".11" stop-color="#fff"/><stop offset=".8" stop-color="#afbdc9"/></linearGradient><linearGradient id="af" x1="37.21" y1="35.54" x2="49.69" y2="35.54" xlink:href="#q"/><linearGradient id="ag" x1="13.06" y1="100.12" x2="26.95" y2="100.12" xlink:href="#d"/><linearGradient id="ah" x1="24.3" y1="125.68" x2="33.14" y2="135.36" xlink:href="#d"/><linearGradient id="ai" x1="38.02" y1="129.49" x2="48.74" y2="129.49" xlink:href="#d"/><linearGradient id="aj" x1="60.77" y1="91.74" x2="52.77" y2="107.32" xlink:href="#d"/><linearGradient id="ak" x1="61.07" y1="71.68" x2="55.6" y2="58.21" xlink:href="#d"/><linearGradient id="al" x1="27.13" y1="63.81" x2="14.07" y2="63.39" xlink:href="#d"/><linearGradient id="am" x1="50.03" y1="102.85" x2="19.31" y2="50.14" xlink:href="#d"/><linearGradient id="an" x1="72.66" y1="58.86" x2="73.21" y2="58.86" xlink:href="#d"/></defs><g id="c"><polygon class="bw" points="26.95 25.44 9.7 38.52 21.35 18.48 26.95 25.44"/><polygon class="by" points="38.02 1.36 26.95 25.44 21.35 18.48 38.02 1.36"/><polygon class="bv" points="54.69 19.48 48.74 24.81 38.02 1.36 54.69 19.48"/><polygon class="bk" points="66.35 38.63 48.74 24.81 54.69 19.48 66.35 38.63"/><polygon class="bm" points="12.92 60.7 4.21 58.81 9.51 39.54 12.92 60.7"/><polygon class="bn" points="12.11 60.7 .68 81.01 3.4 58.81 12.11 60.7"/><polygon class="bj" points="13.06 103.44 4.08 106.42 .68 81.01 13.06 103.44"/><polygon class="bs" points="13.06 103.44 14.2 132.29 4.08 106.42 13.06 103.44"/><polygon class="bu" points="29.48 140.7 23.54 146.46 15.27 132.88 29.48 140.7"/><polygon class="bl" points="38.02 160.68 23.54 147.46 29.48 140.7 38.02 160.68"/><polygon class="bt" points="51.64 148.25 38.02 160.68 44.95 140.7 51.64 148.25"/><polygon class="bq" points="60.29 134.39 50.64 147.25 44.95 140.7 60.29 134.39"/><polygon class="br" points="72.21 105.22 68.24 117.94 61.91 131.58 63.27 101.97 72.21 105.22"/><polygon class="bo" points="75.35 81.02 72.21 105.22 63.27 101.97 75.35 81.02"/><polygon class="bp" points="26.95 46.28 17.48 81.02 12.11 60.7 26.95 46.28"/><polygon class="bx" points="75.35 81.02 62.95 60.7 72.66 58.91 75.35 81.02"/><polygon class="be" points="72.66 58.91 62.95 60.7 66.35 38.63 72.66 58.91"/><polygon class="bd" points="48.74 24.81 38.21 29.62 37.69 29.86 37.2 29.66 26.95 25.44 38.02 1.36 48.74 24.81"/><polygon class="bz" points="62.95 60.7 49.69 46.28 48.74 24.81 66.35 38.63 62.95 60.7"/><polygon class="bg" points="26.95 25.44 26.95 46.28 12.11 60.7 9.71 38.51 26.95 25.44"/><polygon class="bh" points="7.71 38.51 7.7 38.54 7.7 38.52 7.71 38.51"/><polygon class="bf" points="17.48 81.02 13.06 103.44 .68 81.01 12.11 60.7 17.48 81.02"/><polygon class="bi" points="29.48 140.7 14.2 132.29 13.06 103.44 26.95 119.23 29.48 140.7"/><polygon class="au" points="44.95 140.7 38.02 160.68 29.48 140.7 38.02 134.39 44.95 140.7"/><polygon class="aw" points="61.83 133.29 44.95 140.7 48.74 118.28 63.27 101.97 61.83 133.29"/><polygon class="as" points="75.35 81.02 63.27 101.97 58.53 81.02 62.95 60.7 75.35 81.02"/><polygon class="aq" points="26.95 46.28 17.48 81.02 12.11 60.7 26.95 46.28"/><polygon class="ba" points="38.2 29.66 26.95 46.28 26.95 25.44 38.2 29.66"/><polygon class="az" points="49.69 46.28 37.21 29.62 48.74 24.81 49.69 46.28"/><polygon class="av" points="26.95 119.23 13.06 103.44 17.48 81.02 26.95 119.23"/><polygon class="at" points="38.02 134.39 29.48 140.7 26.95 119.23 38.02 134.39"/><polygon class="ay" points="48.74 118.28 44.95 140.7 38.02 134.39 48.74 118.28"/><polygon class="ax" points="63.27 101.97 48.74 118.28 58.53 81.02 63.27 101.97"/><polygon class="bc" points="62.95 60.7 58.53 81.02 49.69 46.28 62.95 60.7"/><polygon class="bb" points="26.95 46.28 17.48 81.02 12.11 60.7 26.95 46.28"/><polygon class="ar" points="58.53 81.02 48.74 118.28 38.02 134.39 26.95 119.23 17.48 81.02 26.95 46.28 37.2 31.66 37.69 30.86 49.69 46.28 58.53 81.02"/><line class="ap" x1="73.21" y1="58.81" x2="72.66" y2="58.91"/></g><g id="ao"><path class="ca" d="m38.02,160.68l-3.13-2.86c-16.05-14.65-27.11-33.96-31.62-55.21h0c-3.02-14.23-3.02-28.94,0-43.18h0C7.78,38.17,18.84,18.86,34.89,4.21l3.13-2.86,3.13,2.86c16.05,14.65,27.11,33.96,31.62,55.21h0c3.02,14.23,3.02,28.94,0,43.18h0c-4.51,21.26-15.57,40.57-31.62,55.21l-3.13,2.86Z"/><polygon class="cb" points="38.02 1.35 26.95 25.44 9.7 38.52 12.11 60.7 .68 81.01 13.05 103.44 14.2 132.29 29.47 140.7 37.02 159.68 44.95 140.7 61.83 133.29 63.26 101.96 75.35 81.01 62.95 60.7 66.35 38.63 48.74 24.81 38.02 1.35"/><polygon class="cb" points="26.95 25.44 26.95 46.28 12.11 60.7 17.47 81.01 13.05 103.44 26.95 119.23 29.47 140.7 38.02 134.38 44.95 140.7 48.74 118.28 63.26 101.96 58.53 81.01 62.95 60.7 49.68 46.28 48.74 24.81 37.68 29.86 26.95 25.44"/><polygon class="cb" points="26.95 46.28 17.47 81.01 26.95 119.23 38.02 134.38 48.74 118.28 58.53 81.01 49.68 46.28 37.68 30.86 26.95 46.28"/><line class="cb" x1="44.95" y1="140.7" x2="51.63" y2="148.25"/><line class="cb" x1="29.47" y1="140.7" x2="23.84" y2="146.25"/><line class="cb" x1="63.26" y1="101.96" x2="72.21" y2="105.22"/><line class="cb" x1="13.05" y1="103.44" x2="4.08" y2="106.42"/><line class="cb" x1="62.95" y1="60.7" x2="72.21" y2="58.81"/><line class="cb" x1="12.11" y1="60.7" x2="3.4" y2="58.81"/><line class="cb" x1="48.74" y1="24.81" x2="54.69" y2="19.48"/><line class="cb" x1="26.95" y1="25.44" x2="21.35" y2="18.48"/></g></svg>