<?xml version="1.0" encoding="UTF-8"?><svg id="b" xmlns="http://www.w3.org/2000/svg" xmlns:xlink="http://www.w3.org/1999/xlink" viewBox="0 0 93.66 136.47"><defs><style>.al{fill:url(#ad);}.am{fill:url(#ac);}.an{fill:url(#ah);}.ao{fill:url(#aa);}.ap{fill:url(#ag);}.aq{fill:url(#ab);}.ar{fill:url(#aj);}.as{fill:url(#ai);}.at{fill:url(#af);}.au{fill:url(#ae);}.av{fill:url(#u);}.aw{fill:url(#t);}.ax{fill:url(#y);}.ay{fill:url(#w);}.az{fill:url(#x);}.ba{fill:url(#z);}.bb{fill:url(#j);}.bc{fill:url(#g);}.bd{fill:url(#m);}.be{fill:url(#h);}.bf{fill:url(#i);}.bg{fill:url(#q);}.bh{fill:url(#r);}.bi{fill:url(#o);}.bj{fill:url(#p);}.bk{fill:url(#k);}.bl{fill:url(#n);}.bm{fill:url(#l);}.bn{fill:url(#f);}.bo{fill:url(#d);}.bp{fill:url(#s);}.bq{fill:url(#e);}.br{fill:url(#v);}.bs{stroke-width:.75px;}.bs,.bt,.bu{fill:none;stroke:#231f20;stroke-miterlimit:10;}.bt{stroke-width:2px;}</style><linearGradient id="d" x1="27.93" y1="15.68" x2="8.98" y2="30.41" gradientUnits="userSpaceOnUse"><stop offset="0" stop-color="#fff"/><stop offset="1" stop-color="#afbdc9"/></linearGradient><linearGradient id="e" x1="15.66" y1="36.11" x2="4.71" y2="53.37" gradientUnits="userSpaceOnUse"><stop offset=".32" stop-color="#fff"/><stop offset="1" stop-color="#afbdc9"/></linearGradient><linearGradient id="f" x1="9.51" y1="49.37" x2="-1.02" y2="68.74" gradientUnits="userSpaceOnUse"><stop offset=".28" stop-color="#fff"/><stop offset="1" stop-color="#afbdc9"/></linearGradient><linearGradient id="g" x1="10.12" y1="91.23" x2="4.65" y2="77.34" xlink:href="#d"/><linearGradient id="h" x1="16.81" y1="97.04" x2="7.54" y2="102.1" xlink:href="#d"/><linearGradient id="i" x1="36.48" y1="126.49" x2="10.38" y2="113.02" gradientUnits="userSpaceOnUse"><stop offset=".19" stop-color="#fff"/><stop offset="1" stop-color="#fff1cc"/></linearGradient><linearGradient id="j" x1="45.63" y1="132.09" x2="22.89" y2="121.56" xlink:href="#d"/><linearGradient id="k" x1="50.15" y1="125.39" x2="68.61" y2="132.55" gradientUnits="userSpaceOnUse"><stop offset=".38" stop-color="#fff"/><stop offset="1" stop-color="#afbdc9"/></linearGradient><linearGradient id="l" x1="66.75" y1="121.55" x2="76.23" y2="113.34" xlink:href="#d"/><linearGradient id="m" x1="77.09" y1="100.61" x2="89.22" y2="100.61" xlink:href="#d"/><linearGradient id="n" x1="83.11" y1="81.25" x2="91.6" y2="81.01" xlink:href="#i"/><linearGradient id="o" x1="76.25" y1="59.78" x2="92.46" y2="59.78" xlink:href="#d"/><linearGradient id="p" x1="89.68" y1="33.12" x2="82.84" y2="48.6" gradientUnits="userSpaceOnUse"><stop offset=".52" stop-color="#fff"/><stop offset="1" stop-color="#afbdc9"/></linearGradient><linearGradient id="q" x1="75.48" y1="20.31" x2="51.74" y2="21.92" gradientUnits="userSpaceOnUse"><stop offset="0" stop-color="#fff"/><stop offset=".57" stop-color="#afbdc9"/></linearGradient><linearGradient id="r" x1="59.24" y1="9.04" x2="52.42" y2="1.5" xlink:href="#d"/><linearGradient id="s" x1="35.64" y1="5.85" x2="30" y2="15.38" xlink:href="#d"/><linearGradient id="t" x1="23.33" y1="34.93" x2="15.12" y2="32.4" xlink:href="#d"/><linearGradient id="u" x1="21.09" y1="70.16" x2="3.4" y2="70.16" gradientUnits="userSpaceOnUse"><stop offset=".3" stop-color="#fff"/><stop offset=".74" stop-color="#c4ced7"/><stop offset="1" stop-color="#afbdc9"/></linearGradient><linearGradient id="v" x1="26.37" y1="115.23" x2="12.05" y2="91.23" xlink:href="#i"/><linearGradient id="w" x1="54.79" y1="123.52" x2="35.21" y2="123.73" gradientUnits="userSpaceOnUse"><stop offset=".23" stop-color="#fff"/><stop offset=".82" stop-color="#afbdc9"/></linearGradient><linearGradient id="x" x1="64.52" y1="109.63" x2="78.2" y2="100.37" gradientUnits="userSpaceOnUse"><stop offset="0" stop-color="#fff"/><stop offset="1" stop-color="#87c8ff"/></linearGradient><linearGradient id="y" x1="75.48" y1="69.04" x2="96.64" y2="66.39" xlink:href="#x"/><linearGradient id="z" x1="76.62" y1="37.57" x2="62.73" y2="22.41" gradientUnits="userSpaceOnUse"><stop offset=".24" stop-color="#fff"/><stop offset="1" stop-color="#afbdc9"/></linearGradient><linearGradient id="aa" x1="51.68" y1="14.17" x2="34.63" y2="15.12" xlink:href="#d"/><linearGradient id="ab" x1="16.04" y1="54.09" x2="29.51" y2="54.09" xlink:href="#d"/><linearGradient id="ac" x1="32.42" y1="110.3" x2="45.26" y2="109.25" gradientUnits="userSpaceOnUse"><stop offset=".25" stop-color="#fff"/><stop offset="1" stop-color="#afbdc9"/></linearGradient><linearGradient id="ad" x1="63.19" y1="85.13" x2="77.09" y2="85.13" xlink:href="#d"/><linearGradient id="ae" x1="71.76" y1="55.21" x2="62.6" y2="51.42" xlink:href="#d"/><linearGradient id="af" x1="30.8" y1="29.09" x2="51.96" y2="30.35" gradientUnits="userSpaceOnUse"><stop offset=".14" stop-color="#fff"/><stop offset="1" stop-color="#87c8ff"/></linearGradient><linearGradient id="ag" x1="58.12" y1="33.54" x2="52.43" y2="22.17" xlink:href="#i"/><linearGradient id="ah" x1="61.31" y1="109.9" x2="49.52" y2="109.27" gradientUnits="userSpaceOnUse"><stop offset=".34" stop-color="#fff"/><stop offset="1" stop-color="#afbdc9"/></linearGradient><linearGradient id="ai" x1="53.06" y1="82.17" x2="24.01" y2="27.23" xlink:href="#d"/><linearGradient id="aj" x1="30.11" y1="81.53" x2="16.85" y2="101.53" xlink:href="#u"/></defs><g id="c"><polygon class="bo" points="32.46 20.89 9.61 31.62 13.92 20.65 23.14 10.67 32.46 20.89"/><polygon class="bq" points="16.04 49.53 2 51 9.61 31.62 16.04 49.53"/><polygon class="bn" points="16.04 49.53 2 70.87 2 51 16.04 49.53"/><polygon class="bc" points="16.04 90.79 4.88 93.39 2 86.05 2 70.87 16.04 90.79"/><polygon class="be" points="16.04 90.79 11.45 110.12 4.88 93.39 16.04 90.79"/><polygon class="bf" points="33.3 119.42 25.56 126.28 13.92 116.41 11.45 110.12 33.3 119.42"/><polygon class="bb" points="44.67 133.93 34.58 133.93 25.56 126.28 33.3 119.42 44.67 133.93"/><polygon class="bk" points="68.5 127.5 58.42 133.93 48.75 135.47 61.09 119 68.5 127.5"/><polygon class="bm" points="81.55 110.12 79.08 116.41 68.5 127.5 61.09 119 81.55 110.12"/><polygon class="bd" points="89.22 93.82 82.55 112.12 77.09 89.1 89.22 93.82"/><polygon class="bl" points="92.66 68.7 91 86.05 88.12 93.39 77.09 89.1 92.66 68.7"/><polygon class="bi" points="91 51 92.46 65.21 91 70.87 76.25 48.68 91 51"/><polygon class="bj" points="91 51 76.25 48.68 83.25 26.79 91 51"/><polygon class="bg" points="83.62 29.98 59.83 20.47 70.26 10.44 79.08 20.65 83.62 29.98"/><polygon class="bh" points="70.26 10.44 59.83 20.47 44.67 .74 58.42 3.12 70.26 10.44"/><polygon class="bp" points="48.15 1.03 32.46 20.89 23.14 10.67 34.58 3.12 48.15 1.03"/><polygon class="aw" points="32.46 20.89 29.51 37.31 16.04 49.53 9.61 31.62 32.46 20.89"/><polygon class="av" points="24.25 70.87 16.04 90.79 2 70.87 16.04 49.53 24.25 70.87"/><polygon class="br" points="33.3 119.42 11.45 110.12 16.04 90.79 29.93 101.31 33.3 119.42"/><polygon class="ay" points="61.09 119 48.75 134.93 44.67 134.93 33.3 119.42 46.5 112.26 61.09 119"/><polygon class="az" points="81.55 110.12 61.09 119 63.19 100.89 77.09 89.1 81.55 110.12"/><polygon class="ax" points="92 70.87 77.09 89.1 69.51 69.36 76.25 48.68 92 70.87"/><polygon class="ba" points="82.58 29.56 76.25 48.68 61.93 36.05 59.83 20.47 82.58 29.56"/><polygon class="ao" points="59.83 20.47 46.5 26.79 32.46 20.89 46.5 2.12 59.83 20.47"/><polygon class="aq" points="29.51 37.31 24.25 70.87 16.04 49.53 29.51 37.31"/><polygon class="am" points="46.5 112.26 33.3 119.42 29.93 101.31 46.5 112.26"/><polygon class="al" points="77.09 89.1 63.19 100.89 69.51 69.36 77.09 89.1"/><polygon class="au" points="76.25 48.68 69.51 69.36 61.93 36.05 76.25 48.68"/><polygon class="at" points="46.5 26.79 29.51 37.31 32.46 20.89 46.5 26.79"/><polygon class="ap" points="61.93 36.05 46.5 26.79 59.83 20.47 61.93 36.05"/><polygon class="an" points="63.19 100.89 61.09 119 46.5 112.26 63.19 100.89"/><polygon class="as" points="69.51 69.36 63.19 100.89 46.5 112.26 29.93 101.31 24.25 70.87 29.51 37.31 46.5 26.79 61.93 36.05 69.51 69.36"/><polygon class="ar" points="24.25 70.87 29.93 101.31 16.04 90.79 24.25 70.87"/></g><g id="ak"><polygon class="bu" points="46.5 2.12 32.46 20.89 9.61 31.62 16.04 49.53 2 70.87 16.04 90.79 11.45 110.12 33.3 119.42 44.67 134.93 48.75 134.93 61.09 119 81.55 110.12 77.09 89.11 92 70.87 76.25 48.68 83.58 29.56 59.83 20.47 46.5 2.12"/><polygon class="bs" points="32.46 20.89 29.51 37.31 16.04 49.52 24.25 70.87 16.04 90.79 29.93 101.31 33.3 119.42 46.5 112.26 61.09 119 63.19 100.89 77.09 89.1 69.51 69.36 76.25 48.68 61.93 36.05 59.82 20.47 46.5 26.79 32.46 20.89"/><polygon class="bu" points="46.5 26.79 29.51 37.32 24.25 70.87 29.93 101.32 46.5 112.26 63.19 100.89 69.51 69.36 61.93 36.05 46.5 26.79"/><line class="bu" x1="16.04" y1="90.79" x2="4.88" y2="93.4"/><line class="bu" x1="16.04" y1="49.53" x2="2" y2="51"/><line class="bu" x1="32.46" y1="20.89" x2="23.25" y2="10.89"/><line class="bu" x1="59.83" y1="20.47" x2="69.75" y2="10.89"/><line class="bu" x1="76.25" y1="48.68" x2="91" y2="51"/><line class="bu" x1="77.09" y1="89.11" x2="88.12" y2="93.4"/><line class="bu" x1="61.09" y1="119" x2="68.44" y2="127.28"/><line class="bu" x1="33.3" y1="119.42" x2="24.56" y2="127.28"/><ellipse class="bt" cx="46.83" cy="68.24" rx="45.83" ry="67.24"/></g></svg>