<?xml version="1.0" encoding="UTF-8"?><svg id="b" xmlns="http://www.w3.org/2000/svg" xmlns:xlink="http://www.w3.org/1999/xlink" viewBox="0 0 90.39 135.59"><defs><style>.ap{fill:url(#an);}.aq{fill:url(#ad);}.ar{fill:url(#am);}.as{fill:url(#ac);}.at{fill:url(#ah);}.au{fill:url(#aa);}.av{fill:url(#ag);}.aw{fill:url(#ab);}.ax{fill:url(#aj);}.ay{fill:url(#ai);}.az{fill:url(#af);}.ba{fill:url(#ae);}.bb{fill:url(#al);}.bc{fill:url(#ak);}.bd{fill:url(#u);}.be{fill:url(#t);}.bf{fill:url(#y);}.bg{fill:url(#w);}.bh{fill:url(#x);}.bi{fill:url(#z);}.bj{fill:url(#j);}.bk{fill:url(#g);}.bl{fill:url(#m);}.bm{fill:url(#h);}.bn{fill:url(#i);}.bo{fill:url(#q);}.bp{fill:url(#r);}.bq{fill:url(#o);}.br{fill:url(#p);}.bs{fill:url(#k);}.bt{fill:url(#n);}.bu{fill:url(#l);}.bv{fill:url(#f);}.bw{fill:url(#d);}.bx{fill:url(#s);}.by{fill:url(#e);}.bz{fill:url(#v);}.ca{stroke-width:2px;}.ca,.cb{fill:none;stroke:#231f20;stroke-miterlimit:10;}</style><linearGradient id="d" x1="28.05" y1="9.34" x2="11.81" y2="17.08" gradientUnits="userSpaceOnUse"><stop offset=".41" stop-color="#fff"/><stop offset="1" stop-color="#afbdc9"/></linearGradient><linearGradient id="e" x1="78.34" y1="7.27" x2="67.82" y2="15.69" xlink:href="#d"/><linearGradient id="f" x1="82.94" y1="15" x2="83.78" y2="33.1" gradientUnits="userSpaceOnUse"><stop offset="0" stop-color="#fff"/><stop offset="1" stop-color="#87c8ff"/></linearGradient><linearGradient id="g" x1="83.82" y1="30.57" x2="85.07" y2="41.43" xlink:href="#d"/><linearGradient id="h" x1="77.66" y1="64.37" x2="87.35" y2="59.93" gradientUnits="userSpaceOnUse"><stop offset=".19" stop-color="#fff"/><stop offset="1" stop-color="#fff1cc"/></linearGradient><linearGradient id="i" x1="75.09" y1="77.46" x2="82.11" y2="80.14" xlink:href="#d"/><linearGradient id="j" x1="52.4" y1="117.97" x2="67.59" y2="103.56" xlink:href="#d"/><linearGradient id="k" x1="47.93" y1="116.89" x2="48.78" y2="128.68" xlink:href="#d"/><linearGradient id="l" x1="42.91" y1="117.68" x2="42.49" y2="131.16" xlink:href="#d"/><linearGradient id="m" x1="39.81" y1="118.94" x2="21.53" y2="102.99" xlink:href="#h"/><linearGradient id="n" x1="44.88" y1="115.48" x2="45.71" y2="115.48" xlink:href="#d"/><linearGradient id="o" x1="15.91" y1="86.23" x2="8.12" y2="71.12" xlink:href="#d"/><linearGradient id="p" x1="6.98" y1="30.85" x2="-1.58" y2="45.53" xlink:href="#d"/><linearGradient id="q" x1="10.81" y1="20.35" x2="4.5" y2="34.67" xlink:href="#d"/><linearGradient id="r" x1="10.42" y1="64.55" x2="2.72" y2="59.68" xlink:href="#d"/><linearGradient id="s" x1="65.38" y1="40.32" x2="79.89" y2="40.32" xlink:href="#d"/><linearGradient id="t" x1="27.26" y1="22.36" x2="5.37" y2="26.15" gradientUnits="userSpaceOnUse"><stop offset=".36" stop-color="#fff"/><stop offset="1" stop-color="#87c8ff"/></linearGradient><linearGradient id="u" x1="37.03" y1=".67" x2="23.56" y2="11.62" xlink:href="#d"/><linearGradient id="v" x1="69.91" y1="10.96" x2="47.55" y2="7.3" xlink:href="#d"/><linearGradient id="w" x1="81.2" y1="26.13" x2="65.2" y2="20.23" xlink:href="#d"/><linearGradient id="x" x1="70.63" y1="50.85" x2="89.93" y2="50.85" xlink:href="#f"/><linearGradient id="y" x1="56.25" y1="100.14" x2="81.09" y2="75.3" xlink:href="#f"/><linearGradient id="z" x1="30.63" y1="102.01" x2="10.84" y2="72.95" xlink:href="#h"/><linearGradient id="aa" x1="44.88" y1="115.48" x2="45.71" y2="115.48" xlink:href="#d"/><linearGradient id="ab" x1="16.61" y1="51.58" x2="3.08" y2="51.58" xlink:href="#d"/><linearGradient id="ac" x1="65.38" y1="40.32" x2="79.89" y2="40.32" xlink:href="#d"/><linearGradient id="ad" x1="58.9" y1="10.75" x2="31.53" y2="13.69" xlink:href="#d"/><linearGradient id="ae" x1="43.47" y1="22.95" x2="65.38" y2="22.95" xlink:href="#h"/><linearGradient id="af" x1="60.33" y1="67.9" x2="76.54" y2="67.9" xlink:href="#d"/><linearGradient id="ag" x1="32.92" y1="96.81" x2="41.76" y2="104.39" xlink:href="#d"/><linearGradient id="ah" x1="45" y1="115.48" x2="45.57" y2="115.48" xlink:href="#d"/><linearGradient id="ai" x1="16.16" y1="61.48" x2="21.64" y2="79.16" xlink:href="#d"/><linearGradient id="aj" x1="9.17" y1="41.37" x2="23.06" y2="41.37" xlink:href="#d"/><linearGradient id="ak" x1="78.78" y1="38.53" x2="68.67" y2="40.21" xlink:href="#d"/><linearGradient id="al" x1="23.06" y1="23.37" x2="43.47" y2="23.37" gradientUnits="userSpaceOnUse"><stop offset=".43" stop-color="#fff"/><stop offset="1" stop-color="#87c8ff"/></linearGradient><linearGradient id="am" x1="52.89" y1="66.62" x2="27.21" y2="24.52" xlink:href="#d"/><linearGradient id="an" x1="59.36" y1="93.57" x2="49.68" y2="103.25" xlink:href="#d"/></defs><g id="c"><polygon class="bw" points="25.8 16.43 8.31 17.04 22.18 6.13 25.8 16.43"/><polygon class="by" points="80.31 16.41 61.8 16.22 66.39 6.13 80.31 16.41"/><polygon class="bv" points="87.61 31.75 79.89 33.06 80.31 16.41 84.2 21.69 87.61 31.75"/><polygon class="bk" points="89.93 47.05 79.89 33.06 87.61 31.75 89.93 47.05"/><polygon class="bm" points="89.93 47.05 85.57 72.46 76.54 68.64 89.93 47.05"/><polygon class="bn" points="85.57 72.46 79.2 88.42 76.54 68.64 85.57 72.46"/><polygon class="bj" points="78.62 89.42 52.44 126.16 46.14 115.68 70.63 94.63 78.62 89.42"/><polygon class="bs" points="52.01 126.16 45.73 134 45.29 116.01 45.71 115.68 45.72 115.68 52.01 126.16"/><polygon class="bu" points="45.73 134 39.31 126.16 44.88 115.71 45.29 116.01 45.73 134"/><polygon class="bl" points="44.88 115.71 39.31 126.16 23.38 106.8 12.37 89.42 44.88 115.71"/><polygon class="bt" points="45.29 116.01 44.88 115.71 45 115.48 45.29 114.96 45.57 115.43 45.71 115.68 45.29 116.01"/><polygon class="bq" points="12.72 69.06 11.37 88.42 5 72.46 12.72 69.06"/><polygon class="br" points="9.17 34.11 .64 47.05 2.38 31.75 9.17 34.11"/><polygon class="bo" points="9.17 34.11 2.38 31.75 5.37 22.69 8.31 17.04 9.17 34.11"/><polygon class="bp" points="12.72 69.06 5 72.46 .64 47.05 12.72 69.06"/><polygon class="bx" points="79.89 33.06 70.63 50.96 65.38 29.69 79.89 33.06"/><polygon class="be" points="25.8 16.43 23.06 30.32 9.17 34.11 8.31 17.04 25.8 16.43"/><polygon class="bd" points="43.95 .13 25.8 16.43 22.18 6.13 43.95 .13"/><polygon class="bz" points="66.39 6.13 61.8 16.22 43.95 .13 66.39 6.13"/><polygon class="bg" points="80.31 16.41 79.89 33.06 65.38 29.69 61.8 16.22 80.31 16.41"/><polygon class="bh" points="89.93 47.05 76.54 68.64 70.63 50.96 79.89 33.06 89.93 47.05"/><polygon class="bf" points="79.2 88.42 45.72 115.68 45.71 115.68 45.57 115.43 60.33 84.85 76.54 68.64 79.2 88.42"/><polygon class="bi" points="45 115.48 44.88 115.71 11.37 88.42 12.72 69.06 29.38 85.48 45 115.48"/><polygon class="au" points="45.57 115.43 45.71 115.68 45.29 116.01 44.88 115.71 45 115.48 45.29 114.96 45.57 115.43"/><polygon class="aw" points="18 52.43 12.72 69.06 .64 47.05 9.17 34.11 18 52.43"/><polygon class="as" points="79.89 33.06 70.63 50.96 65.38 29.69 79.89 33.06"/><polygon class="aq" points="61.8 16.22 43.47 24.64 25.8 16.43 43.95 .13 61.8 16.22"/><polygon class="ba" points="65.38 29.69 43.47 24.64 61.8 16.22 65.38 29.69"/><polygon class="az" points="76.54 68.64 60.33 84.85 70.63 50.96 76.54 68.64"/><polygon class="av" points="45.29 99.59 45.29 114.96 45 115.48 29.38 85.48 45.29 99.59"/><polygon class="at" points="45.29 114.96 45.57 115.43 45.29 116.01 45 115.48 45.29 114.96"/><polygon class="ay" points="29.38 85.48 12.72 69.06 18 52.43 29.38 85.48"/><polygon class="ax" points="23.06 30.32 18 52.43 9.17 34.11 23.06 30.32"/><polygon class="bc" points="79.89 33.06 70.63 50.96 65.38 29.69 79.89 33.06"/><polygon class="bb" points="43.47 24.64 23.06 30.32 25.8 16.43 43.47 24.64"/><polygon class="ar" points="70.63 50.96 60.33 84.85 45.29 99.59 29.38 85.48 18 52.43 23.06 30.32 43.47 24.64 65.38 29.69 70.63 50.96"/><polygon class="ap" points="60.33 84.85 45.57 115.43 45.29 114.96 45.29 99.59 60.33 84.85"/></g><g id="ao"><path class="ca" d="m2.56,60.86h0c-1.92-9.12-2.07-18.53-.43-27.71h0c1.45-8.09,5.49-15.48,11.52-21.06h0c4.93-4.56,10.98-7.72,17.54-9.16l4.78-1.05c5.26-1.16,10.71-1.17,15.98-.05l5.87,1.25c6.28,1.34,12.11,4.26,16.95,8.48l1.03.9c6.11,5.34,10.34,12.5,12.06,20.43h0c2.02,9.33,2.05,18.97.08,28.31h0c-3.77,17.89-11.68,34.64-23.1,48.91l-19.1,23.87-19.52-23.81c-11.73-14.31-19.85-31.23-23.66-49.33Z"/><polygon class="cb" points="22.17 6.13 25.79 16.43 9.3 17.04 9.16 34.11 .65 47.05 12.72 69.06 12.36 88.42 45.29 116 78.21 88.42 76.53 68.64 88.92 47.05 79.9 33.06 79.31 16.41 61.79 16.21 66.39 6.13 55.42 2.46 43.95 1.13 31.94 2.88 22.17 6.13"/><polygon class="cb" points="43.95 1.13 25.79 16.43 23.06 30.32 9.16 34.11 18 52.43 12.72 69.06 29.37 85.48 45.29 116 60.32 84.85 76.53 68.64 70.64 50.95 79.9 33.06 65.37 29.69 61.79 16.21 43.95 1.13"/><polyline class="cb" points="61.79 16.21 43.48 24.64 25.79 16.43"/><polygon class="cb" points="45.29 99.58 29.37 85.48 18 52.43 23.06 30.32 43.48 24.64 65.37 29.69 70.64 50.95 60.32 84.85 45.29 99.58"/><line class="cb" x1="45.29" y1="116" x2="45.29" y2="99.58"/><line class="cb" x1="12.72" y1="69.06" x2="5" y2="72.46"/><line class="cb" x1="76.53" y1="68.64" x2="85.57" y2="72.46"/><polyline class="cb" points="39.31 126.15 45.29 114.95 52.01 126.15"/><line class="cb" x1="45.74" y1="134" x2="45.29" y2="116"/><line class="cb" x1="9.16" y1="34.11" x2="2.38" y2="31.75"/><line class="cb" x1="79.9" y1="33.06" x2="87.61" y2="31.75"/></g></svg>