<?xml version="1.0" encoding="UTF-8"?><svg id="b" xmlns="http://www.w3.org/2000/svg" xmlns:xlink="http://www.w3.org/1999/xlink" viewBox="0 0 126 126"><defs><style>.y{fill:url(#t);}.y,.z,.aa,.ab,.ac,.ad,.ae,.af,.ag,.ah,.ai,.aj,.ak,.al,.am,.an,.ao,.ap,.aq,.ar,.as{stroke:#000;}.y,.z,.aa,.ab,.ac,.ad,.ae,.af,.ag,.ah,.ai,.aj,.ak,.al,.am,.an,.ao,.ap,.aq,.ar,.as,.at{stroke-linejoin:bevel;}.z{fill:url(#u);}.aa{fill:url(#q);}.ab{fill:url(#i);}.ac{fill:url(#p);}.ad{fill:url(#r);}.ae{fill:url(#o);}.af{fill:url(#h);}.ag{fill:url(#g);}.ah{fill:url(#m);}.ai{fill:url(#j);}.aj{fill:url(#k);}.ak{fill:url(#n);}.al{fill:url(#l);}.am{fill:url(#f);}.an{fill:url(#d);}.ao{fill:url(#w);}.ap{fill:url(#x);}.aq{fill:url(#v);}.ar{fill:url(#e);}.as{fill:url(#s);}.at{fill:none;stroke:#231f20;stroke-width:2px;}</style><linearGradient id="d" x1="1" y1="14.44" x2="29.04" y2="14.44" gradientUnits="userSpaceOnUse"><stop offset=".24" stop-color="#fff"/><stop offset="1" stop-color="#87c8ff"/></linearGradient><linearGradient id="e" x1="63" y1="20.95" x2="98.65" y2="20.95" gradientUnits="userSpaceOnUse"><stop offset="0" stop-color="#fff"/><stop offset=".21" stop-color="#fafbfb"/><stop offset=".44" stop-color="#ecf0f2"/><stop offset=".69" stop-color="#d6dde3"/><stop offset=".94" stop-color="#b7c3ce"/><stop offset="1" stop-color="#afbdc9"/></linearGradient><linearGradient id="f" x1="1" y1="111.61" x2="29.04" y2="111.61" gradientUnits="userSpaceOnUse"><stop offset="0" stop-color="#fff1cc"/><stop offset=".81" stop-color="#fff"/></linearGradient><linearGradient id="g" x1="27.35" y1="105.1" x2="63" y2="105.1" gradientUnits="userSpaceOnUse"><stop offset="0" stop-color="#fff"/><stop offset="1" stop-color="#afbdc9"/></linearGradient><linearGradient id="h" x1="96.96" y1="111.61" x2="125" y2="111.61" xlink:href="#e"/><linearGradient id="i" x1="63" y1="105.1" x2="98.65" y2="105.1" gradientUnits="userSpaceOnUse"><stop offset="0" stop-color="#afbdc9"/><stop offset=".06" stop-color="#b7c3ce"/><stop offset=".31" stop-color="#d6dde3"/><stop offset=".56" stop-color="#ecf0f2"/><stop offset=".79" stop-color="#fafbfb"/><stop offset="1" stop-color="#fff"/></linearGradient><linearGradient id="j" x1="1" y1="63.03" x2="15.02" y2="63.03" xlink:href="#i"/><linearGradient id="k" x1="96.96" y1="80.59" x2="110.98" y2="80.59" xlink:href="#i"/><linearGradient id="l" x1="104.42" y1="63.03" x2="110.98" y2="63.03" xlink:href="#e"/><linearGradient id="m" x1="15.02" y1="46.48" x2="29.04" y2="46.48" xlink:href="#i"/><linearGradient id="n" x1="39.66" y1="-2.93" x2="86.34" y2="30.98" xlink:href="#i"/><linearGradient id="o" x1="1" y1="118.54" x2="125" y2="118.54" xlink:href="#i"/><linearGradient id="p" x1="33.24" y1="98.78" x2="92.76" y2="125.28" xlink:href="#e"/><linearGradient id="q" x1="21.59" y1="44.59" x2="104.41" y2="81.46" gradientUnits="userSpaceOnUse"><stop offset="0" stop-color="#afbdc9"/><stop offset=".57" stop-color="#dee4e9"/><stop offset="1" stop-color="#fff"/></linearGradient><linearGradient id="r" x1="15.02" y1="80.59" x2="29.04" y2="80.59" xlink:href="#i"/><linearGradient id="s" x1="27.35" y1="20.95" x2="63" y2="20.95" xlink:href="#e"/><linearGradient id="t" x1="110.98" y1="63.03" x2="125" y2="63.03" xlink:href="#e"/><linearGradient id="u" x1="95.06" y1="22.34" x2="128.39" y2="10.86" gradientUnits="userSpaceOnUse"><stop offset=".19" stop-color="#fff"/><stop offset="1" stop-color="#fff1cc"/></linearGradient><linearGradient id="v" x1="15.02" y1="63.03" x2="21.58" y2="63.03" xlink:href="#e"/><linearGradient id="w" x1="99.6" y1="46.61" x2="113.34" y2="44.67" xlink:href="#g"/><linearGradient id="x" x1="1" y1="7.51" x2="125" y2="7.51" xlink:href="#i"/></defs><g id="c"><rect class="at" x="1" y="1" width="124" height="124"/><polygon class="an" points="1 1 27.35 14.02 29.04 27.88 15.02 27.88 1 1"/><polygon class="ar" points="63 23.49 96.96 27.88 98.65 14.02 63 23.49"/><polygon class="am" points="1 125.05 27.35 112.03 29.04 98.17 15.02 98.17 1 125.05"/><polygon class="ag" points="63 102.57 29.04 98.17 27.35 112.03 63 102.57"/><polygon class="af" points="125 125.05 98.65 112.03 96.96 98.17 110.98 98.17 125 125.05"/><polygon class="ab" points="63 102.57 96.96 98.17 98.65 112.03 63 102.57"/><polygon class="ai" points="15.02 27.88 15.02 98.17 1 125.05 1 1 15.02 27.88"/><polygon class="aj" points="110.98 98.17 104.42 63 96.96 98.17 110.98 98.17"/><polygon class="al" points="110.98 98.17 104.42 63 110.98 27.88 110.98 98.17"/><polygon class="ah" points="15.02 27.88 22.03 65.09 29.04 27.88 15.02 27.88"/><polygon class="ak" points="27.35 14.02 98.65 14.02 63 23.49 27.35 14.02"/><polygon class="ae" points="1 125.05 27.35 112.03 98.65 112.03 125 125.05 1 125.05"/><polygon class="ac" points="63 102.57 98.65 112.03 27.35 112.03 63 102.57"/><polygon class="aa" points="29.04 27.88 22.03 65.09 29.04 98.17 63 102.57 96.96 98.17 103.97 65.09 96.96 27.88 63 23.49 29.04 27.88"/><polygon class="ad" points="15.02 98.17 21.58 63 29.04 98.17 15.02 98.17"/><polygon class="as" points="63 23.49 29.04 27.88 27.35 14.02 63 23.49"/><polygon class="y" points="110.98 27.88 110.98 98.17 125 125.05 125 1 110.98 27.88"/><polygon class="z" points="125 1 98.65 14.02 96.96 27.88 110.98 27.88 125 1"/><polygon class="aq" points="15.02 98.17 21.58 63 15.02 27.88 15.02 98.17"/><polygon class="ao" points="110.98 27.88 103.97 65.09 96.96 27.88 110.98 27.88"/><polygon class="ap" points="125 1 98.65 14.02 27.35 14.02 1 1 125 1"/></g></svg>