<?xml version="1.0" encoding="UTF-8"?><svg id="b" xmlns="http://www.w3.org/2000/svg" xmlns:xlink="http://www.w3.org/1999/xlink" viewBox="0 0 97.16 128.74"><defs><style>.ad{fill:url(#aa);}.ae{fill:url(#ab);}.af{fill:url(#u);}.ag{fill:url(#t);}.ah{fill:url(#y);}.ai{fill:url(#w);}.aj{fill:url(#x);}.ak{fill:url(#z);}.al{fill:url(#j);}.am{fill:url(#g);}.an{fill:url(#m);}.ao{fill:url(#h);}.ap{fill:url(#i);}.aq{fill:url(#q);}.ar{fill:url(#r);}.as{fill:url(#o);}.at{fill:url(#p);}.au{fill:url(#k);}.av{fill:url(#n);}.aw{fill:url(#l);}.ax{fill:url(#f);}.ay{fill:url(#d);}.az{fill:url(#s);}.ba{fill:url(#e);}.bb{fill:url(#v);}.bc{stroke-width:2px;}.bc,.bd{fill:none;stroke:#231f20;stroke-miterlimit:10;}</style><linearGradient id="d" x1="74.52" y1="6.67" x2="8.83" y2="5.41" gradientUnits="userSpaceOnUse"><stop offset="0" stop-color="#fff"/><stop offset="1" stop-color="#afbdc9"/></linearGradient><linearGradient id="e" x1="18.79" y1="2.9" x2="6.58" y2="21.42" gradientUnits="userSpaceOnUse"><stop offset=".33" stop-color="#fff"/><stop offset="1" stop-color="#87c8ff"/></linearGradient><linearGradient id="f" x1="7.32" y1="76.64" x2="6.05" y2="20.64" xlink:href="#d"/><linearGradient id="g" x1="6.25" y1="107.87" x2="20.57" y2="122.61" gradientUnits="userSpaceOnUse"><stop offset=".19" stop-color="#fff"/><stop offset="1" stop-color="#fff1cc"/></linearGradient><linearGradient id="h" x1="14.89" y1="122.26" x2="81.42" y2="122.26" gradientUnits="userSpaceOnUse"><stop offset=".39" stop-color="#fff"/><stop offset="1" stop-color="#afbdc9"/></linearGradient><linearGradient id="i" x1="86.54" y1="111.9" x2="79.81" y2="121.17" xlink:href="#d"/><linearGradient id="j" x1="89.9" y1="92.78" x2="90.32" y2="18.68" xlink:href="#d"/><linearGradient id="k" x1="78.89" y1="5.69" x2="89" y2="15.37" gradientUnits="userSpaceOnUse"><stop offset=".39" stop-color="#fff"/><stop offset="1" stop-color="#afbdc9"/></linearGradient><linearGradient id="l" x1="22.71" y1="9.69" x2="19.34" y2="23.16" gradientUnits="userSpaceOnUse"><stop offset=".66" stop-color="#fff"/><stop offset="1" stop-color="#afbdc9"/></linearGradient><linearGradient id="m" x1="13.21" y1="63.22" x2="22.63" y2="63.22" gradientUnits="userSpaceOnUse"><stop offset=".19" stop-color="#fff"/><stop offset=".72" stop-color="#fff1cc"/></linearGradient><linearGradient id="n" x1="22.99" y1="116.25" x2="19.62" y2="101.93" gradientUnits="userSpaceOnUse"><stop offset=".41" stop-color="#fff"/><stop offset="1" stop-color="#afbdc9"/></linearGradient><linearGradient id="o" x1="48.26" y1="117.21" x2="48.26" y2="106.26" xlink:href="#d"/><linearGradient id="p" x1="72.3" y1="118.64" x2="76.93" y2="103.49" gradientUnits="userSpaceOnUse"><stop offset=".49" stop-color="#fff"/><stop offset="1" stop-color="#87c8ff"/></linearGradient><linearGradient id="q" x1="82.92" y1="62.24" x2="74.5" y2="61.4" xlink:href="#d"/><linearGradient id="r" x1="72.46" y1="10.48" x2="77.52" y2="23.11" gradientUnits="userSpaceOnUse"><stop offset=".66" stop-color="#fff"/><stop offset="1" stop-color="#87c8ff"/></linearGradient><linearGradient id="s" x1="69.96" y1="18.15" x2="52.28" y2="19.83" gradientUnits="userSpaceOnUse"><stop offset="0" stop-color="#fff"/><stop offset=".63" stop-color="#c9d2da"/><stop offset="1" stop-color="#afbdc9"/></linearGradient><linearGradient id="t" x1="52.17" y1="70.48" x2="26.9" y2="18.27" xlink:href="#d"/><linearGradient id="u" x1="28.25" y1="23.34" x2="34.57" y2="17.87" xlink:href="#d"/><linearGradient id="v" x1="20.26" y1="36.75" x2="23.63" y2="28.32" xlink:href="#d"/><linearGradient id="w" x1="73.86" y1="105.9" x2="56.18" y2="111.8" xlink:href="#d"/><linearGradient id="x" x1="79.04" y1="71.92" x2="77.36" y2="100.13" gradientUnits="userSpaceOnUse"><stop offset=".49" stop-color="#fff"/><stop offset="1" stop-color="#afbdc9"/></linearGradient><linearGradient id="y" x1="48.89" y1="9.84" x2="48.89" y2="21.21" xlink:href="#d"/><linearGradient id="z" x1="21.09" y1="111.08" x2="41.3" y2="100.97" xlink:href="#d"/><linearGradient id="aa" x1="18.47" y1="75.28" x2="19.73" y2="100.97" gradientUnits="userSpaceOnUse"><stop offset=".5" stop-color="#fff"/><stop offset="1" stop-color="#afbdc9"/></linearGradient><linearGradient id="ab" x1="75.12" y1="57.03" x2="77.23" y2="22.92" gradientUnits="userSpaceOnUse"><stop offset=".53" stop-color="#fff"/><stop offset="1" stop-color="#87c8ff"/></linearGradient></defs><g id="c"><polygon class="ay" points="83.1 1 74.24 11.53 23.53 11.53 14.89 1 83.1 1"/><polygon class="ba" points="23.53 11.53 13.21 22.37 1 14.06 14.89 1 23.53 11.53"/><polygon class="ax" points="13.21 22.37 13.21 104.08 1 112.44 1 14.06 13.21 22.37"/><polygon class="am" points="23.53 116.79 14.89 127.74 1 112.44 13.21 104.08 23.53 116.79"/><polygon class="ao" points="81.42 127.74 14.89 127.74 23.53 116.79 72.99 116.79 81.42 127.74"/><polygon class="ap" points="96.15 112.44 81.42 127.74 72.99 116.79 83.94 104.08 96.15 112.44"/><polygon class="al" points="96.15 11.95 96.15 112.44 83.94 104.08 83.94 20.62 96.15 11.95"/><polygon class="au" points="96.15 11.95 83.94 20.62 74.24 11.53 83.1 1 96.15 11.95"/><polygon class="aw" points="25.42 24.16 13.21 22.37 23.53 11.53 25.42 24.16"/><polygon class="an" points="22.63 62.79 13.21 104.08 13.21 22.37 22.63 62.79"/><polygon class="av" points="26.42 101.48 23.53 116.79 13.21 104.08 26.42 101.48"/><polygon class="as" points="72.99 116.79 23.53 116.79 47.31 104.16 72.99 116.79"/><polygon class="at" points="83.94 104.08 72.99 116.79 70.47 101.06 83.94 104.08"/><polygon class="aq" points="83.94 20.62 83.94 104.08 74.24 63.25 83.94 20.62"/><polygon class="ar" points="83.94 20.62 70.56 24.29 70.47 23.32 74.24 11.53 83.94 20.62"/><polygon class="az" points="70.47 23.32 70.56 24.29 70.56 24.3 70.47 24.32 48.57 21.63 74.24 11.53 70.47 23.32"/><polygon class="ag" points="74.24 63.25 70.47 101.06 47.31 104.16 26.42 101.48 22.63 62.79 25.42 24.16 48.57 21.63 70.47 24.32 70.56 24.3 74.24 63.25"/><polygon class="af" points="48.57 21.63 25.42 24.16 23.53 11.53 48.57 21.63"/><polygon class="bb" points="25.42 24.16 22.63 62.79 13.21 22.37 25.42 24.16"/><polygon class="ai" points="72.99 116.79 47.31 104.16 70.47 101.06 72.99 116.79"/><polygon class="aj" points="83.94 104.08 70.47 101.06 74.24 63.25 83.94 104.08"/><polygon class="ah" points="74.24 11.53 48.57 21.63 23.53 11.53 74.24 11.53"/><polygon class="ak" points="47.31 104.16 23.53 116.79 26.42 101.48 47.31 104.16"/><polygon class="ad" points="26.42 101.48 13.21 104.08 22.63 62.79 26.42 101.48"/><polygon class="ae" points="83.94 20.62 74.24 63.25 70.56 24.3 70.56 24.29 83.94 20.62"/></g><g id="ac"><polygon class="bc" points="14.89 1 1 14.05 1 112.44 14.89 127.74 81.42 127.74 96.16 112.44 96.16 11.95 83.11 1 14.89 1"/><polygon class="bd" points="23.54 11.53 13.21 22.37 13.21 104.08 23.54 116.79 72.99 116.79 83.95 104.08 83.95 20.62 74.24 11.53 23.54 11.53"/><polyline class="bd" points="14.89 1 23.54 11.53 25.42 24.16 22.63 62.79"/><polyline class="bd" points="1 14.05 13.21 22.37 22.63 62.79 13.21 104.08 1 112.44"/><polyline class="bd" points="83.11 1 74.24 11.53 70.47 23.32 74.24 63.24 70.47 101.06 72.99 116.79 81.42 127.74"/><polyline class="bd" points="96.16 11.95 83.95 20.62 74.24 63.24 83.95 104.08 96.16 112.44"/><polyline class="bd" points="14.89 127.74 23.54 116.79 26.42 101.47 22.63 62.79"/><polyline class="bd" points="23.54 11.53 48.58 21.63 74.24 11.53"/><polyline class="bd" points="23.54 116.79 47.31 104.16 72.99 116.79"/><polyline class="bd" points="83.95 104.08 70.47 101.06 47.31 104.16 26.42 101.47 13.21 104.08"/><polyline class="bd" points="13.21 22.37 25.42 24.16 48.58 21.63 70.47 24.32 83.95 20.62"/></g></svg>