<?xml version="1.0" encoding="UTF-8"?><svg id="b" xmlns="http://www.w3.org/2000/svg" xmlns:xlink="http://www.w3.org/1999/xlink" viewBox="0 0 136.2 136.2"><defs><style>.at{fill:url(#an);}.au{fill:url(#ad);}.av{fill:url(#am);}.aw{fill:url(#ac);}.ax{fill:url(#ah);}.ay{fill:url(#aa);}.az{fill:url(#ag);}.ba{fill:url(#ab);}.bb{fill:url(#aj);}.bc{fill:url(#ai);}.bd{fill:url(#ap);}.be{fill:url(#ao);}.bf{fill:url(#af);}.bg{fill:url(#ae);}.bh{fill:url(#ar);}.bi{fill:url(#aq);}.bj{fill:url(#al);}.bk{fill:url(#ak);}.bl{fill:url(#u);}.bm{fill:url(#t);}.bn{fill:url(#y);}.bo{fill:url(#w);}.bp{fill:url(#x);}.bq{fill:url(#z);}.br{fill:url(#j);}.bs{fill:url(#g);}.bt{fill:url(#m);}.bu{fill:url(#h);}.bv{fill:url(#i);}.bw{fill:url(#q);}.bx{fill:url(#r);}.by{fill:url(#o);}.bz{fill:url(#p);}.ca{fill:url(#k);}.cb{fill:url(#n);}.cc{fill:url(#l);}.cd{fill:url(#f);}.ce{fill:url(#d);}.cf{fill:url(#s);}.cg{fill:url(#e);}.ch{fill:url(#v);}.ci{stroke-width:2px;}.ci,.cj{fill:none;stroke:#231f20;stroke-miterlimit:10;}</style><linearGradient id="d" x1="23.48" y1="71.45" x2="34.53" y2="98.92" gradientUnits="userSpaceOnUse"><stop offset="0" stop-color="#fff"/><stop offset="1" stop-color="#afbdc9"/></linearGradient><linearGradient id="e" x1="24.96" y1="37.67" x2="11.85" y2="31.46" xlink:href="#d"/><linearGradient id="f" x1="14.07" y1="60.94" x2="2.07" y2="55.26" xlink:href="#d"/><linearGradient id="g" x1="19.66" y1="68.13" x2="-1.18" y2="68.76" gradientUnits="userSpaceOnUse"><stop offset=".22" stop-color="#fff"/><stop offset="1" stop-color="#87c8ff"/></linearGradient><linearGradient id="h" x1="20.04" y1="39.46" x2="41.2" y2="13.25" gradientUnits="userSpaceOnUse"><stop offset="0" stop-color="#fff"/><stop offset="1" stop-color="#87c8ff"/></linearGradient><linearGradient id="i" x1="61.69" y1=".2" x2="43.38" y2="16.94" xlink:href="#d"/><linearGradient id="j" x1="20.34" y1="12.97" x2="50.62" y2="12.97" xlink:href="#d"/><linearGradient id="k" x1="83.18" y1="17.14" x2="60.12" y2="11.77" xlink:href="#d"/><linearGradient id="l" x1="121.94" y1="11.99" x2="83.1" y2="16.42" xlink:href="#d"/><linearGradient id="m" x1="100.37" y1="17.78" x2="63.19" y2="1.75" xlink:href="#d"/><linearGradient id="n" x1="95.73" y1="18.49" x2="123.84" y2="40.59" xlink:href="#h"/><linearGradient id="o" x1="131.33" y1="58.64" x2="121.22" y2="42.2" xlink:href="#d"/><linearGradient id="p" x1="116.89" y1="30.65" x2="122.58" y2="44.55" xlink:href="#d"/><linearGradient id="q" x1="118.79" y1="108.06" x2="125.1" y2="82.37" xlink:href="#d"/><linearGradient id="r" x1="115.86" y1="74.36" x2="135.05" y2="74.36" gradientUnits="userSpaceOnUse"><stop offset=".19" stop-color="#fff"/><stop offset="1" stop-color="#fff1cc"/></linearGradient><linearGradient id="s" x1="100.43" y1="115.67" x2="117.8" y2="88.2" xlink:href="#h"/><linearGradient id="t" x1="89.98" y1="106.95" x2="106.47" y2="86.93" xlink:href="#d"/><linearGradient id="u" x1="112.75" y1="72.27" x2="103.32" y2="93.05" xlink:href="#d"/><linearGradient id="v" x1="71.71" y1="133.44" x2="93.98" y2="120.45" xlink:href="#d"/><linearGradient id="w" x1="105.39" y1="112.2" x2="88.76" y2="124.2" xlink:href="#d"/><linearGradient id="x" x1="74.9" y1="111.3" x2="53.01" y2="110.25" xlink:href="#d"/><linearGradient id="y" x1="92.08" y1="101.62" x2="73.55" y2="112.77" xlink:href="#d"/><linearGradient id="z" x1="75.61" y1="124.13" x2="58.55" y2="114.45" xlink:href="#d"/><linearGradient id="aa" x1="42.11" y1="105.51" x2="66.4" y2="105.51" xlink:href="#d"/><linearGradient id="ab" x1="63.97" y1="131.4" x2="39.15" y2="118.77" xlink:href="#d"/><linearGradient id="ac" x1="48.09" y1="123.78" x2="30.4" y2="117.15" xlink:href="#r"/><linearGradient id="ad" x1="35.03" y1="105.58" x2="32.5" y2="91.68" gradientUnits="userSpaceOnUse"><stop offset="0" stop-color="#fff"/><stop offset=".76" stop-color="#afbdc9"/></linearGradient><linearGradient id="ae" x1="35.75" y1="116.29" x2="16.8" y2="95.76" xlink:href="#d"/><linearGradient id="af" x1="11.51" y1="85.11" x2="6.58" y2="59.47" xlink:href="#g"/><linearGradient id="ag" x1="20.05" y1="94.56" x2="7.63" y2="103.61" xlink:href="#d"/><linearGradient id="ah" x1="19.3" y1="58.77" x2="24.35" y2="73.93" xlink:href="#d"/><linearGradient id="ai" x1="28.23" y1="57.62" x2="33.29" y2="40.14" xlink:href="#d"/><linearGradient id="aj" x1="43.27" y1="27.89" x2="31.69" y2="44.74" xlink:href="#d"/><linearGradient id="ak" x1="49.29" y1="32.14" x2="70.91" y2="15.62" gradientUnits="userSpaceOnUse"><stop offset=".24" stop-color="#fff"/><stop offset=".66" stop-color="#87c8ff"/></linearGradient><linearGradient id="al" x1="50.62" y1="24.21" x2="86.47" y2="24.21" xlink:href="#d"/><linearGradient id="am" x1="73.67" y1="75.54" x2="45.81" y2="30.78" xlink:href="#d"/><linearGradient id="an" x1="71.1" y1="23.05" x2="96.36" y2="31.82" xlink:href="#r"/><linearGradient id="ao" x1="103.7" y1="42.01" x2="90.44" y2="28.96" xlink:href="#d"/><linearGradient id="ap" x1="115.86" y1="65.78" x2="133.34" y2="65.78" xlink:href="#d"/><linearGradient id="aq" x1="104.91" y1="42.31" x2="112.7" y2="59.16" xlink:href="#d"/><linearGradient id="ar" x1="112.52" y1="72.62" x2="111.89" y2="56.41" xlink:href="#d"/></defs><g id="c"><polygon class="ce" points="42.11 95.81 20.34 85.58 29.53 65.78 42.11 95.81"/><polygon class="cg" points="20.34 20.33 20.34 50.62 6.28 41.9 20.34 20.33"/><polygon class="cd" points="20.34 50.62 .76 69.82 2.86 50.61 7.47 42.63 20.34 50.62"/><polygon class="bs" points="20.34 50.62 20.34 85.58 2.86 68.1 20.34 50.62"/><polygon class="bu" points="50.62 20.33 50.61 20.35 22.82 48.13 22.81 48.14 22.81 48.15 20.34 50.62 20.34 20.33 50.62 20.33"/><polygon class="bv" points="68.1 2.85 50.62 20.33 43.05 7.22 50.62 2.85 68.1 2.85"/><polygon class="br" points="50.62 20.33 20.34 20.33 42.11 5.6 50.62 20.33"/><polygon class="ca" points="86.47 20.33 50.62 20.33 68.1 2.85 86.47 20.33"/><polygon class="cc" points="115.86 20.33 86.47 20.33 96.44 7.25 115.86 20.33"/><polygon class="bt" points="95.45 8.55 86.47 20.33 66.4 1.24 85.58 2.85 95.45 8.55"/><polygon class="cb" points="115.86 20.33 115.86 48.3 86.47 20.33 115.86 20.33"/><polygon class="by" points="133.34 50.61 135.05 63.14 133.34 64.93 115.86 48.3 128.96 39.97 133.34 50.61"/><polygon class="bz" points="128.96 39.97 115.86 48.3 115.86 20.33 128.96 39.97"/><polygon class="bw" points="133.34 85.58 126.46 101.22 115.86 115.86 115.86 83.26 133.34 85.58"/><polygon class="bx" points="135.05 63.14 133.34 85.58 115.86 83.26 135.05 63.14"/><polygon class="cf" points="115.86 83.26 115.86 115.86 84.77 115.86 88.07 112.4 115.86 83.26"/><polygon class="bm" points="115.86 83.26 84.77 115.86 95.45 92.56 115.86 83.26"/><polygon class="bl" points="115.86 83.26 95.45 92.56 108 66.43 115.86 83.26"/><polygon class="ch" points="96.58 128.89 85.58 133.34 66.4 135.12 84.77 115.86 96.58 128.89"/><polygon class="bo" points="115.86 115.86 96.58 128.89 84.77 115.86 115.86 115.86"/><polygon class="bp" points="88.07 112.4 84.77 115.86 50.62 115.86 49.96 115.2 70.28 105.35 88.07 112.4"/><polygon class="bn" points="96.67 92.56 84.77 115.86 66.4 107.23 96.67 92.56"/><polygon class="bq" points="84.77 115.86 68.1 133.34 50.62 115.86 84.77 115.86"/><polygon class="ay" points="66.4 107.23 49.96 115.2 48.66 111.99 42.11 95.81 66.4 107.23"/><polygon class="ba" points="68.6 135.2 50.62 133.34 44.22 129.65 49.7 115.86 50.62 115.86 68.6 135.2"/><polygon class="aw" points="49.7 115.86 43.8 130.7 32.15 124.78 20.34 115.86 49.7 115.86"/><polygon class="au" points="47.36 112.6 20.34 85.58 42.11 95.81 47.36 112.6"/><polygon class="bg" points="48.6 115.86 20.34 115.86 20.34 85.58 47.36 112.6 48.6 115.86"/><polygon class="bf" points="20.34 85.58 2.86 85.58 1 67.6 20.34 85.58"/><polygon class="az" points="20.34 85.58 20.34 115.86 9.74 101.22 2.86 85.58 20.34 85.58"/><polygon class="ax" points="29.53 65.78 20.34 85.58 20.34 50.62 22.81 48.15 29.53 65.78"/><polygon class="bc" points="41.5 39.97 29.53 65.78 22.81 48.15 22.81 48.14 22.82 48.13 41.5 39.97"/><polygon class="bb" points="50.61 20.35 41.5 39.97 22.82 48.13 50.61 20.35"/><polygon class="bk" points="68.71 28.09 41.5 39.97 50.61 20.35 50.62 20.33 68.71 28.09"/><polygon class="bj" points="86.47 20.33 68.71 28.09 50.62 20.33 86.47 20.33"/><polygon class="av" points="108 66.43 95.45 92.56 66.4 107.23 42.11 95.81 29.53 65.78 41.5 39.97 68.71 28.09 95.45 39.55 108 66.43"/><polygon class="at" points="95.45 39.55 68.71 28.09 86.47 20.33 95.45 39.55"/><polygon class="be" points="115.86 48.3 95.45 39.55 86.47 20.33 115.86 48.3"/><polygon class="bd" points="133.34 64.93 115.86 83.26 115.86 48.3 133.34 64.93"/><polygon class="bi" points="115.86 48.3 108 66.43 95.45 39.55 115.86 48.3"/><polygon class="bh" points="115.86 48.3 115.86 83.26 108 66.43 115.86 48.3"/><line class="ci" x1="49.96" y1="115.2" x2="49.7" y2="115.86"/></g><g id="as"><polyline class="cj" points="20.34 20.34 115.86 20.34 115.86 115.86 20.34 115.86 20.34 115.86 20.34 20.34 20.34 20.34"/><polyline class="cj" points="1.86 68.1 68.1 1.86 134.34 64.93 68.1 134.34 1.86 68.1"/><polygon class="cj" points="20.34 85.58 50.62 20.34 115.86 48.3 84.77 115.86 20.34 85.58"/><polygon class="cj" points="49.96 115.2 22.81 48.15 86.47 20.34 115.86 83.26 49.96 115.2"/><path class="ci" d="m34.98,126.46l-.86-.5c-9.92-5.73-18.15-13.96-23.88-23.88l-.5-.86c-5.73-9.92-8.74-21.17-8.74-32.62v-1c0-11.45,3.01-22.7,8.74-32.62l.5-.86c5.73-9.92,13.96-18.15,23.88-23.88l.86-.5C44.9,4.01,56.15,1,67.6,1h1c11.45,0,22.7,3.01,32.62,8.74l.86.5c9.92,5.73,18.15,13.96,23.88,23.88l.5.86c5.73,9.92,8.74,21.17,8.74,32.62v1c0,11.45-3.01,22.7-8.74,32.62l-.5.86c-5.73,9.92-13.96,18.15-23.88,23.88l-.86.5c-9.92,5.73-21.17,8.74-32.62,8.74h-1c-11.45,0-22.7-3.01-32.62-8.74Z"/><line class="cj" x1="94.45" y1="129.65" x2="84.77" y2="115.86"/><line class="cj" x1="44.22" y1="129.65" x2="49.96" y2="116.2"/><line class="cj" x1="133.34" y1="85.58" x2="115.86" y2="83.26"/><line class="cj" x1="128.5" y1="40.26" x2="115.86" y2="48.3"/><line class="cj" x1="6.47" y1="41.63" x2="20.34" y2="50.62"/><line class="cj" x1="42.05" y1="6.23" x2="50.62" y2="20.34"/><line class="cj" x1="96.45" y1="7.55" x2="86.47" y2="20.34"/><line class="cj" x1="2.86" y1="85.58" x2="20.34" y2="85.58"/></g></svg>