<?xml version="1.0" encoding="utf-8"?>
<!-- Generator: Adobe Illustrator 27.1.1, SVG Export Plug-In . SVG Version: 6.00 Build 0)  -->
<svg version="1.1" id="Layer_1" xmlns="http://www.w3.org/2000/svg" xmlns:xlink="http://www.w3.org/1999/xlink" x="0px" y="0px"
	 viewBox="0 0 288 288" style="enable-background:new 0 0 288 288;" xml:space="preserve">
<style type="text/css">
	.st0{fill:#DFEDFA;}
	.st1{fill:#3A8DDE;}
	.st2{fill:#202945;}
	.st3{fill:#FFFFFF;}
	.st4{fill:#89BBEB;}
	.st5{fill:none;stroke:#89BBEB;stroke-width:4;stroke-miterlimit:10;}
	.st6{fill:none;stroke:#202945;stroke-width:3;stroke-linecap:round;stroke-linejoin:round;stroke-miterlimit:10;}
	.st7{fill:#CDA787;}
	.st8{opacity:0.35;}
	.st9{clip-path:url(#SVGID_00000042715086943250351930000001877390371680663475_);fill:#FFFFFF;}
	.st10{fill:none;stroke:#202945;stroke-width:2.5;stroke-linecap:round;stroke-linejoin:round;stroke-miterlimit:10;}
	.st11{fill:none;stroke:#202945;stroke-width:2.7;stroke-linecap:round;stroke-linejoin:round;stroke-miterlimit:10;}
	.st12{fill:none;stroke:#202945;stroke-width:1.8;stroke-linecap:round;stroke-linejoin:round;stroke-miterlimit:10;}
	
		.st13{clip-path:url(#SVGID_00000036949020961998363190000011790018409803473287_);fill:none;stroke:#FFFFFF;stroke-width:3;stroke-linecap:round;stroke-linejoin:round;stroke-miterlimit:10;}
	.st14{opacity:0.6;fill:#3A8DDE;}
	.st15{fill:none;stroke:#89BBEB;stroke-width:5;stroke-linecap:round;stroke-linejoin:round;stroke-miterlimit:10;}
	.st16{fill:none;stroke:#202945;stroke-width:5;stroke-linecap:round;stroke-linejoin:round;stroke-miterlimit:10;}
	.st17{fill:#DFEDFA;stroke:#202945;stroke-width:5;stroke-linecap:round;stroke-linejoin:round;stroke-miterlimit:10;}
	.st18{fill:#202945;stroke:#202945;stroke-width:2.4;stroke-linecap:round;stroke-linejoin:round;stroke-miterlimit:10;}
	.st19{fill:#3A8DDE;stroke:#202945;stroke-width:5;stroke-linecap:round;stroke-linejoin:round;stroke-miterlimit:10;}
	.st20{fill:#FFFFFF;stroke:#202945;stroke-width:5.8087;stroke-linecap:round;stroke-linejoin:round;stroke-miterlimit:10;}
	.st21{fill:#FFFFFF;stroke:#202945;stroke-width:5;stroke-linecap:round;stroke-linejoin:round;stroke-miterlimit:10;}
	.st22{fill:#CDA787;stroke:#202945;stroke-width:5;stroke-linecap:round;stroke-linejoin:round;stroke-miterlimit:10;}
	.st23{fill:#1E2947;}
	.st24{fill:#89BBEB;stroke:#202945;stroke-width:5.8087;stroke-linecap:round;stroke-linejoin:round;stroke-miterlimit:10;}
	.st25{fill:#89BBEB;stroke:#202945;stroke-width:5;stroke-linecap:round;stroke-linejoin:round;stroke-miterlimit:10;}
	.st26{fill:none;stroke:#202945;stroke-width:5.8087;stroke-linecap:round;stroke-linejoin:round;stroke-miterlimit:10;}
	.st27{fill:#3A8DDE;stroke:#3A8DDE;stroke-width:2.7726;stroke-linecap:round;stroke-linejoin:round;stroke-miterlimit:10;}
	.st28{fill:none;stroke:#3A8DDE;stroke-width:5;stroke-linecap:round;stroke-linejoin:round;stroke-miterlimit:10;}
	.st29{fill:none;stroke:#3A8DDE;stroke-width:5;stroke-linecap:round;stroke-linejoin:round;}
	.st30{fill:none;stroke:#3A8DDE;stroke-width:5;stroke-linecap:round;stroke-linejoin:round;stroke-dasharray:25.7666,12.368;}
	
		.st31{fill:none;stroke:#3A8DDE;stroke-width:5;stroke-linecap:round;stroke-linejoin:round;stroke-miterlimit:10;stroke-dasharray:25,12;}
	.st32{fill:#DFEDFA;stroke:#DFEDFA;stroke-width:2.4;stroke-linecap:round;stroke-linejoin:round;stroke-miterlimit:10;}
</style>
<g>
	<polygon class="st3" points="225.9,141.1 142.6,225.8 59.4,141.1 88.4,101.9 196.8,101.9 	"/>
</g>
<path class="st7" d="M219.2,99.1L219.2,99.1c-1.4,0-2.6-1.1-2.6-2.6c0-1.4,1.1-2.6,2.6-2.6c1.4,0,2.6,1.1,2.6,2.6
	C221.7,97.9,220.6,99.1,219.2,99.1"/>
<path class="st7" d="M83.4,207.2L83.4,207.2c-1.4,0-2.6-1.1-2.6-2.6c0-1.4,1.1-2.6,2.6-2.6s2.6,1.1,2.6,2.6
	C85.9,206.1,84.8,207.2,83.4,207.2"/>
<path class="st7" d="M219.2,188.3L219.2,188.3c-1.4,0-2.6-1.1-2.6-2.6c0-1.4,1.1-2.6,2.6-2.6c1.4,0,2.6,1.1,2.6,2.6
	C221.7,187.2,220.6,188.3,219.2,188.3"/>
<g>
	<line class="st15" x1="106.2" y1="82.1" x2="114.2" y2="88.5"/>
	<line class="st15" x1="179" y1="82.1" x2="171" y2="88.5"/>
	<line class="st15" x1="123.4" y1="71.8" x2="130" y2="88.5"/>
	<line class="st15" x1="161.9" y1="71.8" x2="155.3" y2="88.5"/>
	<g>
		<line class="st15" x1="142.5" y1="63.5" x2="142.5" y2="88.5"/>
	</g>
</g>
<polygon class="st1" points="142.5,218.3 211.2,139 205.3,139 184.5,113.6 87.4,113.6 76.1,139 "/>
<g>
	<polyline class="st16" points="196.8,101.9 205.5,139 223.3,139 	"/>
	<g>
		<polygon class="st16" points="225.9,141.1 142.6,225.8 59.4,141.1 88.4,101.9 196.8,101.9 		"/>
		<line class="st16" x1="73.7" y1="139" x2="190.4" y2="139"/>
		<line class="st16" x1="175.9" y1="172.5" x2="194.9" y2="147.4"/>
		<line class="st16" x1="165.8" y1="185.8" x2="169.9" y2="180.3"/>
		<polyline class="st16" points="83.4,139 110.7,101.9 117.4,139 142.6,225.8 167.9,139 175,101.9 205.5,139 		"/>
		<polyline class="st16" points="126.9,127.4 142.6,101.9 167.9,139 		"/>
		<polyline class="st16" points="123.9,194.6 83.4,139 89,104.2 		"/>
	</g>
</g>
<g>
	<path class="st18" d="M63.8,99.1L63.8,99.1c-1.7,0.5-3,1.8-3.4,3.4c-0.5-1.7-1.8-3-3.4-3.4c1.7-0.5,3-1.8,3.4-3.4
		C60.8,97.3,62.1,98.6,63.8,99.1"/>
	<path class="st18" d="M74.3,194.6L74.3,194.6c-1.7,0.5-3,1.8-3.4,3.4c-0.5-1.7-1.8-3-3.4-3.4c1.7-0.5,3-1.8,3.4-3.4
		C71.3,192.8,72.6,194.1,74.3,194.6"/>
	<path class="st18" d="M203.7,80.2L203.7,80.2c-1.7,0.5-3,1.8-3.4,3.4c-0.5-1.7-1.8-3-3.4-3.4c1.7-0.5,3-1.8,3.4-3.4
		C200.7,78.4,202,79.7,203.7,80.2"/>
	<path class="st18" d="M229.3,170.8L229.3,170.8c-1.7,0.5-3,1.8-3.4,3.4c-0.5-1.7-1.8-3-3.4-3.4c1.7-0.5,3-1.8,3.4-3.4
		C226.3,169,227.6,170.3,229.3,170.8"/>
</g>
</svg>
