<?xml version="1.0" encoding="UTF-8"?><svg id="a" xmlns="http://www.w3.org/2000/svg" viewBox="0 0 661.2 287.83"><defs><style>.b{fill:#cda787;}.c{fill:#202945;}.d{fill:#3a8dde;}</style></defs><g><path class="d" d="M382.71,41.7c-14.09-14.08-34.17-18.59-52.11-13.53-17.93-5.06-38.02-.56-52.11,13.53l-23.07,23.07,52.11,52.11h0s.63,.63,.63,.63l22.44,22.44h0s0,0,0,0l75.18-75.18-23.07-23.07Zm-6.44,6.44l12.08,12.08h-22.67c-2.58-6.75-6.58-13.08-12.01-18.52-2.43-2.43-5.05-4.57-7.79-6.43,11.03,.19,22,4.47,30.39,12.87Zm-29.04,62.3l-16.63,16.63-16.63-16.63c-8.32-8.32-12.9-19.38-12.9-31.15,0-3.4,.39-6.73,1.14-9.97h56.77c3.3,14.32-.61,29.98-11.74,41.12Zm-41.84-50.22c2.13-4.42,5.01-8.51,8.58-12.08,4.85-4.85,10.55-8.33,16.63-10.44,6.08,2.11,11.79,5.59,16.63,10.44,3.62,3.62,6.46,7.71,8.55,12.08h-50.4Zm-20.46-12.08c8.4-8.4,19.37-12.68,30.39-12.86-2.75,1.86-5.36,3.99-7.79,6.43-5.35,5.35-9.41,11.66-12.05,18.52h-22.63l12.08-12.08Zm-12.08,21.19h20.05c-.61,3.25-.94,6.58-.94,9.97s.33,6.81,.96,10.11l-20.07-20.07Zm95.42,0h20.07l-20.1,20.1c1.28-6.63,1.29-13.47,.03-20.1Z"/><g><circle class="b" cx="316.53" cy="8.13" r="8.13"/><circle class="b" cx="290.99" cy="17.8" r="5.7" transform="translate(-.54 16.41) rotate(-3.23)"/><circle class="b" cx="370.21" cy="17.8" r="5.7" transform="translate(-.42 20.87) rotate(-3.23)"/><circle class="b" cx="344.64" cy="8.13" r="8.13"/></g></g><g><path class="c" d="M27.9,285.99H0v-97.81H27.9c28.36,0,53.5,17.63,53.5,48.91s-25.14,48.91-53.5,48.91Zm-2.15-86.93H12.72v76.35h13.03c23.92,0,42.77-12.72,42.77-38.17s-18.86-38.17-42.77-38.17Z"/><path class="c" d="M155.82,287.67c-26.52,0-51.51-19.62-51.51-50.75s24.99-50.59,51.51-50.59,51.51,19.78,51.51,50.59-24.99,50.75-51.51,50.75Zm0-90.15c-19.78,0-38.79,15.02-38.79,39.71s19.01,39.86,38.79,39.86,38.79-15.18,38.79-39.86-19.32-39.71-38.79-39.71Z"/><path class="c" d="M236.23,285.99v-97.81h12.57v86.93h44.31v10.88h-56.88Z"/><path class="c" d="M361.78,287.67c-26.83,0-53.04-18.4-53.04-50.59s26.98-50.75,52.28-50.75c13.03,0,23.76,3.07,31.12,7.67l-2.45,11.19c-7.05-4.45-16.86-7.67-27.29-7.67-20.7,0-40.93,14.1-40.93,39.86s19.78,39.71,41.09,39.71c9.97,0,17.94-2.3,23-5.83v-23.61h-24.22v-10.12h36.18v39.71c-9.35,7.21-21,10.43-35.72,10.43Z"/><path class="c" d="M433.38,285.99v-97.81h12.57v97.81h-12.57Z"/><path class="c" d="M565.99,287.83l-46.91-52.28c-7.67-8.59-16.4-18.86-23.15-26.98l-.31,.15c.31,8.89,.31,17.63,.31,25.76v51.51h-12.57v-97.81h8.74l43.69,48.91c6.13,6.9,15.02,17.02,21.31,24.84l.31-.15c-.31-8.13-.31-16.71-.31-24.38v-49.21h12.57v99.65h-3.68Z"/><path class="c" d="M629.16,286.75c-10.88,0-20.08-3.37-25.3-7.05l-1.53-12.72c7.05,5.52,16.56,9.35,27.29,9.35,11.5,0,19.62-6.59,19.62-16.4s-5.67-15.18-18.4-19.62c-17.17-5.83-25.76-14.26-25.76-27.9,0-12.72,9.51-25.14,29.28-25.14,9.2,0,16.86,2.91,20.7,5.52l-2.45,10.12c-3.68-2.61-11.04-5.67-18.55-5.67-11.19,0-17.48,6.9-17.48,14.26,0,7.97,5.37,12.88,16.71,16.86,17.02,6.13,27.9,13.8,27.9,30.51s-11.96,27.9-32.04,27.9Z"/></g></svg>