<?xml version="1.0" encoding="utf-8"?>
<!-- Generator: Adobe Illustrator 27.1.1, SVG Export Plug-In . SVG Version: 6.00 Build 0)  -->
<svg version="1.1" id="Layer_1" xmlns="http://www.w3.org/2000/svg" xmlns:xlink="http://www.w3.org/1999/xlink" x="0px" y="0px"
	 viewBox="0 0 288 288" style="enable-background:new 0 0 288 288;" xml:space="preserve">
<style type="text/css">
	.st0{fill:#DFEDFA;}
	.st1{fill:#3A8DDE;}
	.st2{fill:#202945;}
	.st3{fill:#FFFFFF;}
	.st4{fill:#89BBEB;}
	.st5{fill:none;stroke:#89BBEB;stroke-width:4;stroke-miterlimit:10;}
	.st6{fill:none;stroke:#202945;stroke-width:3;stroke-linecap:round;stroke-linejoin:round;stroke-miterlimit:10;}
	.st7{fill:#CDA787;}
	.st8{opacity:0.35;}
	.st9{clip-path:url(#SVGID_00000052083884658246896470000013527251334950313111_);fill:#FFFFFF;}
	.st10{fill:none;stroke:#202945;stroke-width:2.5;stroke-linecap:round;stroke-linejoin:round;stroke-miterlimit:10;}
	.st11{fill:none;stroke:#202945;stroke-width:2.7;stroke-linecap:round;stroke-linejoin:round;stroke-miterlimit:10;}
	.st12{fill:none;stroke:#202945;stroke-width:1.8;stroke-linecap:round;stroke-linejoin:round;stroke-miterlimit:10;}
	
		.st13{clip-path:url(#SVGID_00000145779267658772133480000015414085348920891792_);fill:none;stroke:#FFFFFF;stroke-width:3;stroke-linecap:round;stroke-linejoin:round;stroke-miterlimit:10;}
	.st14{opacity:0.6;fill:#3A8DDE;}
	.st15{fill:none;stroke:#89BBEB;stroke-width:5;stroke-linecap:round;stroke-linejoin:round;stroke-miterlimit:10;}
	.st16{fill:none;stroke:#202945;stroke-width:5;stroke-linecap:round;stroke-linejoin:round;stroke-miterlimit:10;}
	.st17{fill:#DFEDFA;stroke:#202945;stroke-width:5;stroke-linecap:round;stroke-linejoin:round;stroke-miterlimit:10;}
	.st18{fill:#202945;stroke:#202945;stroke-width:2.4;stroke-linecap:round;stroke-linejoin:round;stroke-miterlimit:10;}
	.st19{fill:#3A8DDE;stroke:#202945;stroke-width:5;stroke-linecap:round;stroke-linejoin:round;stroke-miterlimit:10;}
	.st20{fill:#FFFFFF;stroke:#202945;stroke-width:5.8087;stroke-linecap:round;stroke-linejoin:round;stroke-miterlimit:10;}
	.st21{fill:#FFFFFF;stroke:#202945;stroke-width:5;stroke-linecap:round;stroke-linejoin:round;stroke-miterlimit:10;}
	.st22{fill:#CDA787;stroke:#202945;stroke-width:5;stroke-linecap:round;stroke-linejoin:round;stroke-miterlimit:10;}
	.st23{fill:#1E2947;}
	.st24{fill:#89BBEB;stroke:#202945;stroke-width:5.8087;stroke-linecap:round;stroke-linejoin:round;stroke-miterlimit:10;}
	.st25{fill:#89BBEB;stroke:#202945;stroke-width:5;stroke-linecap:round;stroke-linejoin:round;stroke-miterlimit:10;}
	.st26{fill:none;stroke:#202945;stroke-width:5.8087;stroke-linecap:round;stroke-linejoin:round;stroke-miterlimit:10;}
	.st27{fill:#3A8DDE;stroke:#3A8DDE;stroke-width:2.7726;stroke-linecap:round;stroke-linejoin:round;stroke-miterlimit:10;}
	.st28{fill:none;stroke:#3A8DDE;stroke-width:5;stroke-linecap:round;stroke-linejoin:round;stroke-miterlimit:10;}
	.st29{fill:none;stroke:#3A8DDE;stroke-width:5;stroke-linecap:round;stroke-linejoin:round;}
	.st30{fill:none;stroke:#3A8DDE;stroke-width:5;stroke-linecap:round;stroke-linejoin:round;stroke-dasharray:25.7666,12.368;}
	
		.st31{fill:none;stroke:#3A8DDE;stroke-width:5;stroke-linecap:round;stroke-linejoin:round;stroke-miterlimit:10;stroke-dasharray:25,12;}
	.st32{fill:#DFEDFA;stroke:#DFEDFA;stroke-width:2.4;stroke-linecap:round;stroke-linejoin:round;stroke-miterlimit:10;}
</style>
<path class="st0" d="M171.8,74.8c5.5,8.6,17.7,32.3,49.5,31.9c6-0.1,10.3,5.7,8.7,11.4c-8.7,31.3-35.7,110-85.4,110.7l-0.6,0
	c-50.1,0-77.2-79.2-86-110.7c-1.6-5.7,2.7-11.5,8.7-11.4c31.7,0.4,43.8-23.4,49.5-31.9c0,0,11.8-11.3,28.3-9.9
	C161,66.3,167.2,67.6,171.8,74.8z"/>
<g>
	<ellipse class="st25" cx="144" cy="78.9" rx="28.9" ry="15.6"/>
	<path class="st16" d="M101.7,207.3C78,181.6,63.9,139.1,58,118.1c-1.6-5.7,2.7-11.5,8.7-11.4c31.7,0.4,43.8-23.4,49.5-31.9"/>
	<path class="st16" d="M171.8,74.8c5.6,8.5,17.7,32.3,49.5,31.9c6-0.1,10.3,5.7,8.7,11.4c-8.7,31.3-35.7,110-85.4,110.7l-0.6,0
		c-11.5,0-21.8-4.2-30.9-11"/>
	<path class="st16" d="M208.4,137.8c-3.5,11.6-9.2,26.9-18,40.7"/>
	<path class="st16" d="M213,119.1c0,0-0.3,1.5-0.8,4.1"/>
	<path class="st16" d="M99.8,95.3c0,0,16.8,29.2,44.2,29.2s44.2-29.2,44.2-29.2"/>
	<line class="st16" x1="144" y1="117.9" x2="144" y2="132.5"/>
</g>
<circle class="st2" cx="217.9" cy="89.4" r="3.2"/>
<circle class="st7" cx="214.7" cy="71.5" r="2.3"/>
<circle class="st7" cx="67.2" cy="189.4" r="3.2"/>
<g>
	<g>
		<polygon class="st3" points="161.1,169.2 161.1,143.5 144,133.7 126.9,143.5 126.9,169.2 144,179.1 		"/>
		<polygon class="st1" points="153.6,167.2 153.6,145.1 139.5,136.9 125.4,145.1 125.4,167.2 139.5,175.4 		"/>
	</g>
	<g>
		<polygon class="st16" points="161.1,169.2 161.1,143.5 144,133.7 126.9,143.5 126.9,169.2 144,179.1 		"/>
		<polygon class="st16" points="151.4,163.6 151.4,149.1 144,144.8 136.5,149.1 136.5,163.6 144,167.9 		"/>
		<g>
			<line class="st16" x1="161.1" y1="169.2" x2="151.4" y2="163.6"/>
			<line class="st16" x1="136.9" y1="149.2" x2="127.2" y2="143.6"/>
		</g>
		<g>
			<line class="st16" x1="161.1" y1="143.6" x2="151.5" y2="149.2"/>
			<line class="st16" x1="136.8" y1="163.5" x2="127.2" y2="169.2"/>
		</g>
		<g>
			<line class="st16" x1="144.2" y1="133.9" x2="144.2" y2="145"/>
			<line class="st16" x1="144.1" y1="167.8" x2="144.1" y2="178.9"/>
		</g>
	</g>
</g>
<path class="st27" d="M197.2,65.3L197.2,65.3c-1.9,0.5-3.4,2-3.9,3.9c-0.5-1.9-2-3.4-3.9-3.9c1.9-0.5,3.4-2,3.9-3.9
	C193.8,63.3,195.3,64.8,197.2,65.3"/>
<g>
	<g>
		<circle class="st21" cx="124.8" cy="119.4" r="5.8"/>
		<circle class="st21" cx="108.9" cy="107.1" r="5.8"/>
	</g>
	<g>
		<circle class="st21" cx="163.2" cy="119.4" r="5.8"/>
		<circle class="st21" cx="179.1" cy="107.1" r="5.8"/>
	</g>
</g>
<path class="st27" d="M57.2,162.5L57.2,162.5c-1.9,0.5-3.4,2-3.9,3.9c-0.5-1.9-2-3.4-3.9-3.9c1.9-0.5,3.4-2,3.9-3.9
	C53.7,160.5,55.2,162,57.2,162.5"/>
</svg>
