<?xml version="1.0" encoding="utf-8"?>
<!-- Generator: Adobe Illustrator 27.1.1, SVG Export Plug-In . SVG Version: 6.00 Build 0)  -->
<svg version="1.1" id="Layer_1" xmlns="http://www.w3.org/2000/svg" xmlns:xlink="http://www.w3.org/1999/xlink" x="0px" y="0px"
	 viewBox="0 0 288 288" style="enable-background:new 0 0 288 288;" xml:space="preserve">
<style type="text/css">
	.st0{fill:#DFEDFA;}
	.st1{fill:#3A8DDE;}
	.st2{fill:#202945;}
	.st3{fill:#FFFFFF;}
	.st4{fill:#89BBEB;}
	.st5{fill:none;stroke:#89BBEB;stroke-width:4;stroke-miterlimit:10;}
	.st6{fill:none;stroke:#202945;stroke-width:3;stroke-linecap:round;stroke-linejoin:round;stroke-miterlimit:10;}
	.st7{fill:#CDA787;}
	.st8{opacity:0.35;}
	.st9{clip-path:url(#SVGID_00000010274737961580000950000008237851962059538353_);fill:#FFFFFF;}
	.st10{fill:none;stroke:#202945;stroke-width:2.5;stroke-linecap:round;stroke-linejoin:round;stroke-miterlimit:10;}
	.st11{fill:none;stroke:#202945;stroke-width:2.7;stroke-linecap:round;stroke-linejoin:round;stroke-miterlimit:10;}
	.st12{fill:none;stroke:#202945;stroke-width:1.8;stroke-linecap:round;stroke-linejoin:round;stroke-miterlimit:10;}
	
		.st13{clip-path:url(#SVGID_00000183225379498313693950000013597529329428493707_);fill:none;stroke:#FFFFFF;stroke-width:3;stroke-linecap:round;stroke-linejoin:round;stroke-miterlimit:10;}
	.st14{opacity:0.6;fill:#3A8DDE;}
	.st15{fill:none;stroke:#89BBEB;stroke-width:5;stroke-linecap:round;stroke-linejoin:round;stroke-miterlimit:10;}
	.st16{fill:none;stroke:#202945;stroke-width:5;stroke-linecap:round;stroke-linejoin:round;stroke-miterlimit:10;}
	.st17{fill:#DFEDFA;stroke:#202945;stroke-width:5;stroke-linecap:round;stroke-linejoin:round;stroke-miterlimit:10;}
	.st18{fill:#202945;stroke:#202945;stroke-width:2.4;stroke-linecap:round;stroke-linejoin:round;stroke-miterlimit:10;}
	.st19{fill:#3A8DDE;stroke:#202945;stroke-width:5;stroke-linecap:round;stroke-linejoin:round;stroke-miterlimit:10;}
	.st20{fill:#FFFFFF;stroke:#202945;stroke-width:5.8087;stroke-linecap:round;stroke-linejoin:round;stroke-miterlimit:10;}
	.st21{fill:#FFFFFF;stroke:#202945;stroke-width:5;stroke-linecap:round;stroke-linejoin:round;stroke-miterlimit:10;}
	.st22{fill:#CDA787;stroke:#202945;stroke-width:5;stroke-linecap:round;stroke-linejoin:round;stroke-miterlimit:10;}
	.st23{fill:#1E2947;}
	.st24{fill:#89BBEB;stroke:#202945;stroke-width:5.8087;stroke-linecap:round;stroke-linejoin:round;stroke-miterlimit:10;}
	.st25{fill:#89BBEB;stroke:#202945;stroke-width:5;stroke-linecap:round;stroke-linejoin:round;stroke-miterlimit:10;}
	.st26{fill:none;stroke:#202945;stroke-width:5.8087;stroke-linecap:round;stroke-linejoin:round;stroke-miterlimit:10;}
	.st27{fill:#3A8DDE;stroke:#3A8DDE;stroke-width:2.7726;stroke-linecap:round;stroke-linejoin:round;stroke-miterlimit:10;}
	.st28{fill:none;stroke:#3A8DDE;stroke-width:5;stroke-linecap:round;stroke-linejoin:round;stroke-miterlimit:10;}
	.st29{fill:none;stroke:#3A8DDE;stroke-width:5;stroke-linecap:round;stroke-linejoin:round;}
	.st30{fill:none;stroke:#3A8DDE;stroke-width:5;stroke-linecap:round;stroke-linejoin:round;stroke-dasharray:25.7666,12.368;}
	
		.st31{fill:none;stroke:#3A8DDE;stroke-width:5;stroke-linecap:round;stroke-linejoin:round;stroke-miterlimit:10;stroke-dasharray:25,12;}
	.st32{fill:#DFEDFA;stroke:#DFEDFA;stroke-width:2.4;stroke-linecap:round;stroke-linejoin:round;stroke-miterlimit:10;}
</style>
<g>
	<g>
		<rect x="116.8" y="213.2" class="st4" width="54.5" height="36.8"/>
		<rect x="116.8" y="38.1" class="st4" width="54.5" height="36.8"/>
	</g>
	<g>
		<rect x="160" y="213.2" class="st0" width="11.3" height="36.8"/>
		<rect x="160" y="38.1" class="st0" width="11.3" height="36.8"/>
	</g>
	<ellipse transform="matrix(0.7071 -0.7071 0.7071 0.7071 -59.6468 144)" class="st22" cx="144" cy="144" rx="65.3" ry="65.3"/>
	<ellipse transform="matrix(0.9507 -0.31 0.31 0.9507 -37.5421 51.7261)" class="st17" cx="144" cy="144" rx="55" ry="55"/>
	<g>
		<rect x="116.8" y="213.2" class="st16" width="54.5" height="36.8"/>
		<rect x="116.8" y="38.1" class="st16" width="54.5" height="36.8"/>
	</g>
	<g>
		<g>
			<path class="st17" d="M116.4,204.1v20.5c0,4.1-5.8,4.8-6.8,0.9l-8.4-31.4"/>
			<path class="st17" d="M171.6,204.1v20.5c0,4.1,5.8,4.8,6.8,0.9l8.4-31.4"/>
		</g>
		<g>
			<path class="st17" d="M171.6,83.9V63.4c0-4.1,5.8-4.8,6.8-0.9l8.4,31.4"/>
			<path class="st17" d="M116.4,83.9V63.4c0-4.1-5.8-4.8-6.8-0.9l-8.4,31.4"/>
		</g>
	</g>
</g>
<g>
	<g id="XMLID_00000092428990251927746670000013878098165480106882_">
		<g>
			<path class="st7" d="M157,186.5c-1,0-1.9-0.6-2.3-1.5l-0.1-0.1c-0.9-2-2.7-3.4-4.8-3.8c-0.2-0.1-0.4-0.1-0.6-0.1
				c-0.7,0-1.3,0.3-1.8,0.8l-1.7,1.9c-0.5,0.5-1.2,0.8-1.9,0.8c-0.4,0-0.7-0.1-1.1-0.2c-1.8-0.8-3.5-1.9-5.1-3.1
				c-0.9-0.7-1.2-1.8-0.8-2.9c0.8-2.1,0.6-4.4-0.7-6.3c-0.5-0.8-1.3-1.2-2.1-1.2l-0.1,0l-2.5,0.1c0,0-0.1,0-0.1,0
				c-1,0-2-0.7-2.3-1.6c-0.3-0.9-0.6-1.9-0.9-2.9c-0.2-1-0.4-2-0.5-3c-0.1-1.1,0.5-2.1,1.5-2.6l0.1-0.1c2-0.9,3.4-2.7,3.8-4.8
				c0.2-0.9-0.1-1.8-0.7-2.3l-1.9-1.7c-0.8-0.7-1.1-1.9-0.6-2.9c0.8-1.8,1.9-3.5,3.1-5.1c0.5-0.6,1.2-1,2-1c0.3,0,0.6,0.1,0.9,0.2
				l0.8,0.3c0.6,0.2,1.2,0.3,1.9,0.3c1.1,0,2.2-0.4,3.2-1c1.1-0.7,1.6-1.9,1.6-3.1l-0.1-1.9c-0.1-1.1,0.6-2.1,1.6-2.5
				c0.9-0.3,1.9-0.6,2.9-0.9c1-0.2,2-0.4,3-0.5c0.1,0,0.2,0,0.3,0c1,0,1.9,0.6,2.3,1.5l0.4,0.8c0.7,1.6,2.2,2.7,3.9,3
				c0.3,0.1,0.5,0.1,0.7,0.1c1.1,0,2.1-0.5,2.8-1.3l1.1-1.3c0.5-0.5,1.2-0.8,1.9-0.8c0.4,0,0.7,0.1,1.1,0.2c1.8,0.8,3.5,1.9,5.1,3.1
				c0.9,0.7,1.2,1.8,0.8,2.9c-0.8,2.1-0.6,4.4,0.6,6.2c0.5,0.8,1.3,1.2,2.1,1.2l0.1,0l2.4-0.1c0,0,0.1,0,0.1,0c1,0,2,0.7,2.3,1.6
				c0.3,1,0.6,1.9,0.9,2.9c0.2,1,0.4,1.9,0.5,3c0.1,1.1-0.5,2.1-1.5,2.6l-0.1,0.1c-2,0.9-3.4,2.7-3.8,4.8c-0.2,0.9,0.1,1.8,0.7,2.3
				l1.9,1.7c0.8,0.7,1.1,1.9,0.6,2.9c-0.8,1.8-1.9,3.5-3.1,5.1c-0.5,0.6-1.2,1-2,1c-0.3,0-0.6-0.1-0.9-0.2c-0.8-0.3-1.6-0.5-2.5-0.5
				c-1.3,0-2.6,0.4-3.8,1.1c-0.8,0.5-1.2,1.3-1.2,2.2l0.1,2.5c0.1,1.1-0.6,2.1-1.6,2.5c-0.9,0.3-1.9,0.6-2.9,0.9c-1,0.2-2,0.4-3,0.5
				C157.2,186.5,157.1,186.5,157,186.5z"/>
		</g>
		<path class="st2" d="M151.1,136.4l0.4,0.8c1.1,2.4,3.2,4,5.8,4.5c0,0,0,0,0.1,0c0.4,0.1,0.7,0.1,1.1,0.1c1.8,0,3.5-0.8,4.6-2.1
			l1.1-1.3c1.6,0.8,3.2,1.7,4.6,2.8l0,0c-1.1,2.8-0.8,6,0.9,8.5c0,0,0,0,0,0.1c0.9,1.4,2.5,2.2,4.1,2.2c0.1,0,0.2,0,0.3,0l2.4-0.1
			c0.3,0.8,0.6,1.7,0.8,2.6c0.2,0.9,0.4,1.8,0.5,2.7l-0.1,0.1c-2.7,1.2-4.7,3.7-5.3,6.6c0,0,0,0,0,0.1c-0.4,1.7,0.2,3.5,1.5,4.6
			l1.9,1.7c-0.8,1.6-1.7,3.2-2.8,4.6c-1.1-0.4-2.3-0.6-3.4-0.6c-1.8,0-3.6,0.5-5.1,1.5c0,0,0,0-0.1,0c-1.5,1-2.3,2.6-2.2,4.4
			l0.1,2.5c-0.8,0.3-1.7,0.6-2.6,0.8c-0.9,0.2-1.8,0.4-2.7,0.5l-0.1-0.1c-1.2-2.7-3.7-4.7-6.6-5.3c0,0,0,0-0.1,0
			c-0.3-0.1-0.7-0.1-1-0.1c-1.4,0-2.7,0.6-3.6,1.6l-1.7,1.9c-1.6-0.8-3.2-1.7-4.6-2.8c1.1-2.8,0.8-6-0.9-8.5c0,0,0,0,0-0.1
			c-0.9-1.4-2.5-2.2-4.1-2.2c-0.1,0-0.2,0-0.3,0l-2.5,0.1c-0.3-0.8-0.6-1.7-0.8-2.6c-0.2-0.9-0.4-1.8-0.5-2.7l0.1-0.1
			c2.7-1.2,4.7-3.7,5.3-6.6c0,0,0,0,0-0.1c0.4-1.7-0.2-3.5-1.5-4.6l-1.9-1.7c0.8-1.6,1.7-3.2,2.8-4.6l0.8,0.3
			c0.9,0.3,1.8,0.5,2.8,0.5c1.6,0,3.2-0.5,4.6-1.5c0,0,0,0,0.1,0c1.7-1.2,2.7-3.1,2.6-5.2l-0.1-1.9c0.8-0.3,1.7-0.6,2.6-0.8
			C149.3,136.7,150.2,136.5,151.1,136.4 M151.1,131.4c-0.2,0-0.4,0-0.6,0c-1.1,0.1-2.2,0.3-3.2,0.6c-1.1,0.3-2.1,0.6-3.1,1
			c-2.1,0.8-3.4,2.8-3.3,5l0.1,1.9c0,0.3-0.1,0.6-0.4,0.8l-0.1,0.1c-0.5,0.4-1.1,0.6-1.7,0.6c-0.3,0-0.7-0.1-1-0.2l-0.8-0.3
			c-0.6-0.2-1.2-0.3-1.8-0.3c-1.5,0-3,0.7-3.9,1.9c-1.3,1.7-2.5,3.6-3.4,5.6c-0.9,2-0.4,4.4,1.2,5.8l1.8,1.6l0,0
			c-0.3,1.4-1.2,2.5-2.4,3.1l-0.1,0.1c-2,0.9-3.2,3-2.9,5.2c0.1,1.1,0.3,2.2,0.6,3.2c0.3,1.1,0.6,2.1,1,3.1c0.7,2,2.6,3.3,4.7,3.3
			c0.1,0,0.2,0,0.3,0l2.4-0.1l0,0.1c0.8,1.2,0.9,2.6,0.4,4c-0.8,2.1-0.1,4.4,1.6,5.7c1.7,1.3,3.6,2.5,5.6,3.4
			c0.7,0.3,1.4,0.5,2.1,0.5c1.4,0,2.8-0.6,3.7-1.7l1.6-1.8l0,0c1.4,0.3,2.5,1.2,3.1,2.4l0.1,0.1c0.8,1.8,2.6,3,4.6,3
			c0.2,0,0.4,0,0.6,0c1.1-0.1,2.2-0.3,3.2-0.6c1.1-0.3,2.1-0.6,3.1-1c2.1-0.8,3.4-2.8,3.3-5l-0.1-2.4l0,0c0.7-0.5,1.5-0.7,2.4-0.7
			c0.6,0,1.1,0.1,1.6,0.3c0.6,0.2,1.2,0.3,1.8,0.3c1.5,0,3-0.7,3.9-1.9c1.3-1.7,2.5-3.6,3.4-5.6c0.9-2,0.4-4.4-1.2-5.8l-1.8-1.6l0,0
			c0.3-1.4,1.2-2.5,2.4-3.1l0.1-0.1c2-0.9,3.2-3,2.9-5.2c-0.1-1.1-0.3-2.2-0.6-3.2c-0.3-1.1-0.6-2.1-1-3.1c-0.7-2-2.6-3.3-4.7-3.3
			c-0.1,0-0.2,0-0.3,0l-2.4,0.1l0-0.1c-0.8-1.1-0.9-2.6-0.4-3.9c0.8-2.1,0.1-4.4-1.6-5.8c-1.7-1.3-3.6-2.5-5.6-3.4
			c-0.7-0.3-1.4-0.5-2.1-0.5c-1.4,0-2.8,0.6-3.7,1.7l-1.1,1.3c-0.2,0.3-0.6,0.4-0.9,0.4c-0.1,0-0.1,0-0.2,0l-0.1,0
			c-0.9-0.2-1.7-0.8-2.1-1.6l-0.4-0.8C154.8,132.5,153,131.4,151.1,131.4L151.1,131.4z"/>
	</g>
	<g id="XMLID_00000062168529090750765120000002918789302122838176_">
		<path class="st3" d="M154,171.1c-5,0-9.4-3.4-10.6-8.3c-1.4-5.8,2.2-11.7,8-13.2c0.8-0.2,1.7-0.3,2.6-0.3c5,0,9.4,3.4,10.6,8.3
			c1.4,5.8-2.2,11.7-8,13.2C155.8,171,154.9,171.1,154,171.1z"/>
		<path class="st2" d="M154.1,151.8c3.8,0,7.2,2.6,8.2,6.4c1.1,4.5-1.7,9-6.2,10.1c-0.7,0.2-1.3,0.2-2,0.2c-3.8,0-7.2-2.6-8.2-6.4
			c-1.1-4.5,1.7-9,6.2-10.1C152.7,151.9,153.4,151.8,154.1,151.8 M154.1,146.8C154.1,146.8,154.1,146.8,154.1,146.8
			c-1.1,0-2.1,0.1-3.2,0.4c-7.2,1.7-11.6,9-9.9,16.2c1.5,6,6.8,10.3,13,10.3c1.1,0,2.1-0.1,3.2-0.4c3.5-0.8,6.4-3,8.3-6
			c1.9-3.1,2.4-6.7,1.6-10.1C165.6,151,160.3,146.8,154.1,146.8L154.1,146.8z"/>
	</g>
</g>
<circle class="st19" cx="128.6" cy="137.1" r="26.8"/>
<g id="XMLID_00000180363586230585261930000014042640838138996382_">
	<path class="st3" d="M117.3,174.8c-1,0-1.9-0.6-2.3-1.5l0-0.1c-0.3-0.6-0.9-1.1-1.6-1.2l-0.9,0.9c-0.5,0.5-1.2,0.8-1.9,0.8
		c-0.4,0-0.7-0.1-1.1-0.2c-1-0.5-2-1.1-2.8-1.7c-0.9-0.7-1.2-1.8-0.8-2.9c0.3-0.7,0.2-1.5-0.2-2.1c0,0-1.4,0-1.4,0
		c-1,0-2-0.7-2.3-1.6c-0.2-0.5-0.4-1.1-0.5-1.6c-0.1-0.5-0.2-1.1-0.3-1.6c-0.1-1.1,0.5-2.1,1.5-2.6c0.7-0.3,1.2-0.9,1.3-1.6
		c0,0,0,0,0,0l-0.9-0.9c-0.8-0.7-1.1-1.9-0.6-2.9c0.5-1,1.1-2,1.7-2.8c0.5-0.6,1.2-1,2-1c0.3,0,0.6,0.1,0.9,0.2l0.4,0.2
		c0.2,0.1,0.3,0.1,0.5,0.1c0.3,0,0.6-0.1,0.9-0.3c0,0,0.1,0,0.1-0.1c0.1-0.1,0.2-0.2,0.2-0.4l-0.1-1c-0.1-1.1,0.6-2.1,1.6-2.5
		c0.5-0.2,1.1-0.4,1.6-0.5c0.5-0.1,1.1-0.2,1.6-0.3c0.1,0,0.2,0,0.3,0c1,0,1.9,0.6,2.3,1.5l0.2,0.4c0.2,0.4,0.6,0.8,1.1,0.8
		c0,0,0.1,0,0.1,0c0,0,0,0,0,0c0,0,0,0,0,0c0.2,0,0.4-0.1,0.5-0.2l0.6-0.6c0.5-0.5,1.2-0.8,1.9-0.8c0.4,0,0.7,0.1,1.1,0.2
		c1,0.5,2,1.1,2.8,1.7c0.9,0.7,1.2,1.8,0.8,2.9c-0.3,0.7-0.2,1.5,0.2,2.1c0,0,1.4,0,1.4,0c1,0,2,0.7,2.3,1.6
		c0.2,0.5,0.4,1.1,0.5,1.6c0.1,0.5,0.2,1.1,0.3,1.6c0.1,1.1-0.5,2.1-1.5,2.6c-0.7,0.3-1.2,0.9-1.3,1.6c0,0,0,0,0,0l0.9,0.8
		c0.8,0.7,1.1,1.9,0.6,2.9c-0.5,1-1.1,2-1.7,2.8c-0.5,0.6-1.2,1-2,1c-0.3,0-0.6-0.1-0.9-0.2c-0.3-0.1-0.6-0.2-0.8-0.2
		c-0.4,0-0.9,0.1-1.2,0.4l0,1.3c0.1,1.1-0.6,2.1-1.6,2.5c-0.5,0.2-1.1,0.4-1.6,0.5c-0.5,0.1-1.1,0.2-1.6,0.3
		C117.5,174.8,117.4,174.8,117.3,174.8z M115.8,156.6c-0.3,0-0.6,0-0.8,0.1c-0.9,0.2-1.7,0.8-2.2,1.6s-0.7,1.8-0.4,2.7
		c0.4,1.6,1.8,2.8,3.5,2.8c0.3,0,0.6,0,0.8-0.1c1.9-0.5,3.1-2.4,2.6-4.3C118.9,157.7,117.4,156.6,115.8,156.6z"/>
	<path class="st2" d="M114.3,148.1l0.2,0.4c0.5,1.2,1.6,2.1,2.9,2.3c0,0,0,0,0,0c0.2,0,0.4,0,0.5,0c0.9,0,1.8-0.4,2.4-1.1l0.6-0.6
		c0.8,0.4,1.6,0.9,2.4,1.4l0,0c-0.5,1.4-0.4,3,0.5,4.3c0,0,0,0,0,0c0.5,0.7,1.3,1.1,2.1,1.1c0,0,0.1,0,0.1,0l1.2-0.1
		c0.2,0.4,0.3,0.9,0.4,1.3c0.1,0.5,0.2,0.9,0.2,1.4l-0.1,0c-1.4,0.6-2.4,1.9-2.7,3.4c0,0,0,0,0,0c-0.2,0.9,0.1,1.8,0.8,2.4l0.9,0.8
		c-0.4,0.8-0.9,1.6-1.4,2.4c-0.6-0.2-1.1-0.3-1.7-0.3c-0.9,0-1.8,0.3-2.6,0.8c0,0,0,0,0,0c-0.7,0.5-1.2,1.3-1.1,2.2l0.1,1.3
		c-0.4,0.2-0.9,0.3-1.3,0.4c-0.5,0.1-0.9,0.2-1.4,0.2l0-0.1c-0.6-1.4-1.9-2.4-3.4-2.7c0,0,0,0,0,0c-0.2,0-0.3-0.1-0.5-0.1
		c-0.7,0-1.4,0.3-1.8,0.8l-0.8,0.9c-0.8-0.4-1.6-0.9-2.4-1.4c0.6-1.4,0.4-3.1-0.5-4.3c0,0,0,0,0,0c-0.5-0.7-1.3-1.1-2.1-1.1
		c0,0-0.1,0-0.1,0l-1.3,0.1c-0.2-0.4-0.3-0.9-0.4-1.3c-0.1-0.5-0.2-0.9-0.2-1.4l0.1,0c1.4-0.6,2.4-1.9,2.7-3.4c0,0,0,0,0,0
		c0.2-0.9-0.1-1.8-0.8-2.4l-0.9-0.8c0.4-0.8,0.9-1.6,1.4-2.4l0.4,0.2c0.5,0.2,0.9,0.3,1.4,0.3c0.8,0,1.6-0.3,2.3-0.7c0,0,0,0,0,0
		c0.9-0.6,1.4-1.6,1.3-2.6l-0.1-1c0.4-0.2,0.9-0.3,1.3-0.4C113.4,148.2,113.8,148.1,114.3,148.1 M115.8,166.3c0.5,0,1-0.1,1.4-0.2
		c3.3-0.8,5.3-4.1,4.5-7.4c-0.7-2.8-3.2-4.7-5.9-4.7c-0.5,0-1,0.1-1.4,0.2c-3.3,0.8-5.3,4.1-4.5,7.4
		C110.5,164.4,113,166.3,115.8,166.3 M114.3,143.1c-0.2,0-0.4,0-0.6,0c-0.6,0.1-1.3,0.2-1.9,0.4c-0.6,0.2-1.3,0.3-1.9,0.6
		c-1.7,0.6-2.8,2-3.2,3.7c-0.2,0-0.4,0-0.5,0c-1.5,0-3,0.7-3.9,1.9c-0.8,1-1.5,2.1-2,3.3c-0.7,1.6-0.6,3.4,0.4,4.9
		c-1.3,1.1-2,2.8-1.8,4.5c0.1,0.6,0.2,1.3,0.4,1.9c0.2,0.6,0.3,1.3,0.6,1.9c0.6,1.7,2,2.8,3.7,3.2c-0.2,1.7,0.5,3.4,1.9,4.5
		c1,0.8,2.1,1.5,3.3,2c0.7,0.3,1.4,0.5,2.1,0.5c1,0,1.9-0.3,2.8-0.8c0.9,1.2,2.4,1.9,3.9,1.9c0.2,0,0.4,0,0.6,0
		c0.6-0.1,1.3-0.2,1.9-0.4c0.6-0.2,1.3-0.3,1.9-0.6c1.7-0.6,2.8-2,3.2-3.7c0.2,0,0.4,0,0.5,0c1.5,0,3-0.7,3.9-1.9
		c0.8-1,1.5-2.1,2-3.3c0.7-1.6,0.6-3.4-0.4-4.9c1.3-1.1,2-2.8,1.8-4.5c-0.1-0.6-0.2-1.3-0.4-1.9c-0.2-0.6-0.3-1.3-0.6-1.9
		c-0.6-1.7-2-2.8-3.7-3.2c0.2-1.7-0.5-3.4-1.9-4.5c-1-0.8-2.1-1.5-3.3-2c-0.7-0.3-1.4-0.5-2.1-0.5c-1,0-1.9,0.3-2.8,0.8
		C117.2,143.8,115.8,143.1,114.3,143.1L114.3,143.1z M115.8,161.3c-0.4,0-0.9-0.3-1.1-0.8c-0.1-0.4,0-0.6,0.1-0.8
		c0.1-0.2,0.3-0.4,0.7-0.5c0.1,0,0.2,0,0.3,0c0.4,0,0.9,0.3,1.1,0.8c0.1,0.4,0,0.6-0.1,0.8c-0.1,0.2-0.3,0.4-0.7,0.5
		C115.9,161.3,115.9,161.3,115.8,161.3L115.8,161.3z"/>
</g>
<g>
	<line class="st16" x1="116.7" y1="183.9" x2="85.6" y2="191.7"/>
	
		<rect x="49.3" y="166.3" transform="matrix(0.2422 0.9702 -0.9702 0.2422 234.0289 99.8901)" class="st21" width="7.4" height="67"/>
	
		<rect x="11.3" y="205.1" transform="matrix(0.2422 0.9702 -0.9702 0.2422 216.3526 139.641)" class="st21" width="15" height="6.4"/>
</g>
<g id="XMLID_00000141435848913087693590000006153137882554368642_">
	<g>
		<path class="st3" d="M156.4,154.6c-1,0-2-0.1-3-0.2c-1.1-0.1-2-0.9-2.2-2l-0.7-3.8c-1.5-0.4-3-1-4.4-1.8L143,149
			c-0.4,0.3-0.9,0.4-1.4,0.4c-0.6,0-1.1-0.2-1.6-0.5c-1.6-1.2-3-2.7-4.2-4.2c-0.7-0.9-0.7-2.1-0.1-3l2.2-3.2
			c-0.8-1.4-1.4-2.8-1.8-4.4l-3.8-0.7c-1.1-0.2-1.9-1.1-2-2.2c-0.1-1-0.2-2-0.2-3c0-1,0.1-2,0.2-3c0.1-1.1,0.9-2,2-2.2l3.8-0.7
			c0.4-1.5,1-3,1.8-4.4l-2.2-3.2c-0.6-0.9-0.6-2.1,0.1-3c1.2-1.6,2.7-3,4.2-4.2c0.5-0.4,1-0.5,1.6-0.5c0.5,0,1,0.1,1.4,0.4l3.2,2.2
			c1.4-0.8,2.8-1.4,4.4-1.8l0.7-3.8c0.2-1.1,1.1-1.9,2.2-2c1-0.1,2-0.2,3-0.2s2,0.1,3,0.2c1.1,0.1,2,0.9,2.2,2l0.7,3.8
			c1.5,0.4,3,1,4.4,1.8l3.2-2.2c0.4-0.3,0.9-0.4,1.4-0.4c0.6,0,1.1,0.2,1.6,0.5c1.6,1.2,3,2.7,4.2,4.2c0.7,0.9,0.7,2.1,0.1,3
			l-2.2,3.2c0.8,1.4,1.4,2.8,1.8,4.4l3.8,0.7c1.1,0.2,1.9,1.1,2,2.2c0.1,1,0.2,2,0.2,3c0,1-0.1,2-0.2,3c-0.1,1.1-0.9,2-2,2.2
			l-3.8,0.7c-0.4,1.5-1,3-1.8,4.4l2.2,3.2c0.6,0.9,0.6,2.1-0.1,3c-1.2,1.6-2.7,3-4.2,4.2c-0.5,0.4-1,0.5-1.6,0.5
			c-0.5,0-1-0.1-1.4-0.4l-3.2-2.2c-1.4,0.8-2.8,1.4-4.4,1.8l-0.7,3.8c-0.2,1.1-1.1,1.9-2.2,2C158.4,154.6,157.4,154.6,156.4,154.6z"
			/>
	</g>
	<path class="st2" d="M156.4,104.5c0.9,0,1.8,0.1,2.7,0.2l1,5.4c2.4,0.5,4.6,1.4,6.6,2.7l4.5-3.1c1.4,1.1,2.7,2.4,3.8,3.8l-3.1,4.5
		c1.3,2,2.3,4.2,2.7,6.6l5.4,1c0.1,0.9,0.2,1.8,0.2,2.7c0,0.9-0.1,1.8-0.2,2.7l-5.4,1c-0.5,2.4-1.4,4.6-2.7,6.6l3.1,4.5
		c-1.1,1.4-2.4,2.7-3.8,3.8l-4.5-3.1c-2,1.3-4.2,2.3-6.6,2.7l-1,5.4c-0.9,0.1-1.8,0.2-2.7,0.2s-1.8-0.1-2.7-0.2l-1-5.4
		c-2.4-0.5-4.6-1.4-6.6-2.7l-4.5,3.1c-1.4-1.1-2.7-2.4-3.8-3.8l3.1-4.5c-1.3-2-2.3-4.2-2.7-6.6l-5.4-1c-0.1-0.9-0.2-1.8-0.2-2.7
		c0-0.9,0.1-1.8,0.2-2.7l5.4-1c0.5-2.4,1.4-4.6,2.7-6.6l-3.1-4.5c1.1-1.4,2.4-2.7,3.8-3.8l4.5,3.1c2-1.3,4.2-2.3,6.6-2.7l1-5.4
		C154.6,104.5,155.5,104.5,156.4,104.5 M156.4,99.5c-1.1,0-2.2,0.1-3.3,0.2c-2.2,0.2-4,1.9-4.4,4.1l-0.4,2.3c-0.7,0.2-1.3,0.5-2,0.8
		l-2-1.3c-0.9-0.6-1.8-0.9-2.8-0.9c-1.1,0-2.2,0.4-3.1,1.1c-1.7,1.4-3.3,2.9-4.6,4.6c-1.4,1.7-1.5,4.1-0.2,6l1.3,2
		c-0.3,0.7-0.6,1.3-0.8,2l-2.3,0.4c-2.2,0.4-3.8,2.2-4.1,4.4c-0.1,1.1-0.2,2.2-0.2,3.3c0,1.1,0.1,2.2,0.2,3.3c0.2,2.2,1.9,4,4.1,4.4
		l2.3,0.4c0.2,0.7,0.5,1.3,0.8,2l-1.3,2c-1.2,1.8-1.2,4.2,0.2,6c1.4,1.7,2.9,3.3,4.6,4.6c0.9,0.7,2,1.1,3.1,1.1c1,0,2-0.3,2.8-0.9
		l2-1.3c0.7,0.3,1.3,0.6,2,0.8l0.4,2.3c0.4,2.2,2.2,3.8,4.4,4.1c1.1,0.1,2.2,0.2,3.3,0.2c1.1,0,2.2-0.1,3.3-0.2
		c2.2-0.2,4-1.9,4.4-4.1l0.4-2.3c0.7-0.2,1.3-0.5,2-0.8l2,1.3c0.9,0.6,1.8,0.9,2.8,0.9c1.1,0,2.2-0.4,3.1-1.1
		c1.7-1.4,3.3-2.9,4.6-4.6c1.4-1.7,1.5-4.1,0.2-6l-1.3-2c0.3-0.7,0.6-1.3,0.8-2l2.3-0.4c2.2-0.4,3.8-2.2,4.1-4.4
		c0.1-1.1,0.2-2.2,0.2-3.3c0-1.1-0.1-2.2-0.2-3.3c-0.2-2.2-1.9-4-4.1-4.4l-2.3-0.4c-0.2-0.7-0.5-1.3-0.8-2l1.3-2
		c1.2-1.8,1.2-4.2-0.2-6c-1.4-1.7-2.9-3.3-4.6-4.6c-0.9-0.7-2-1.1-3.1-1.1c-1,0-2,0.3-2.8,0.9l-2,1.3c-0.7-0.3-1.3-0.6-2-0.8
		l-0.4-2.3c-0.4-2.2-2.2-3.8-4.4-4.1C158.6,99.5,157.5,99.5,156.4,99.5L156.4,99.5z"/>
</g>
<g>
	<line class="st16" x1="184.3" y1="116.1" x2="205.7" y2="92.2"/>
	
		<rect x="224.3" y="33.8" transform="matrix(-0.7446 -0.6675 0.6675 -0.7446 352.9576 269.5893)" class="st21" width="7.4" height="67"/>
	
		<rect x="244.1" y="37.8" transform="matrix(-0.7446 -0.6675 0.6675 -0.7446 411.6642 239.4322)" class="st21" width="15" height="6.4"/>
</g>
<g>
	<path class="st2" d="M188.1,146.8L188.1,146.8c-1.8,0-3.2-1.4-3.2-3.2c0-1.8,1.4-3.2,3.2-3.2s3.2,1.4,3.2,3.2
		C191.3,145.3,189.9,146.8,188.1,146.8"/>
	<path class="st2" d="M130.2,105L130.2,105c-1.8,0-3.2-1.4-3.2-3.2c0-1.8,1.4-3.2,3.2-3.2c1.8,0,3.2,1.4,3.2,3.2
		C133.4,103.5,132,105,130.2,105"/>
	<path class="st2" d="M127,188.7L127,188.7c-1.8,0-3.2-1.4-3.2-3.2c0-1.8,1.4-3.2,3.2-3.2c1.8,0,3.2,1.4,3.2,3.2
		C130.2,187.2,128.8,188.7,127,188.7"/>
</g>
</svg>
