<?xml version="1.0" encoding="utf-8"?>
<!-- Generator: Adobe Illustrator 27.1.1, SVG Export Plug-In . SVG Version: 6.00 Build 0)  -->
<svg version="1.1" id="Layer_1" xmlns="http://www.w3.org/2000/svg" xmlns:xlink="http://www.w3.org/1999/xlink" x="0px" y="0px"
	 viewBox="0 0 288 288" style="enable-background:new 0 0 288 288;" xml:space="preserve">
<style type="text/css">
	.st0{fill:#DFEDFA;}
	.st1{fill:#3A8DDE;}
	.st2{fill:#202945;}
	.st3{fill:#FFFFFF;}
	.st4{fill:#89BBEB;}
	.st5{fill:none;stroke:#89BBEB;stroke-width:4;stroke-miterlimit:10;}
	.st6{fill:none;stroke:#202945;stroke-width:3;stroke-linecap:round;stroke-linejoin:round;stroke-miterlimit:10;}
	.st7{fill:#CDA787;}
	.st8{opacity:0.35;}
	.st9{clip-path:url(#SVGID_00000060031378709877592030000007786453738901159850_);fill:#FFFFFF;}
	.st10{fill:none;stroke:#202945;stroke-width:2.5;stroke-linecap:round;stroke-linejoin:round;stroke-miterlimit:10;}
	.st11{fill:none;stroke:#202945;stroke-width:2.7;stroke-linecap:round;stroke-linejoin:round;stroke-miterlimit:10;}
	.st12{fill:none;stroke:#202945;stroke-width:1.8;stroke-linecap:round;stroke-linejoin:round;stroke-miterlimit:10;}
	
		.st13{clip-path:url(#SVGID_00000001651026301904088470000012643512343108874409_);fill:none;stroke:#FFFFFF;stroke-width:3;stroke-linecap:round;stroke-linejoin:round;stroke-miterlimit:10;}
	.st14{opacity:0.6;fill:#3A8DDE;}
	.st15{fill:none;stroke:#89BBEB;stroke-width:5;stroke-linecap:round;stroke-linejoin:round;stroke-miterlimit:10;}
	.st16{fill:none;stroke:#202945;stroke-width:5;stroke-linecap:round;stroke-linejoin:round;stroke-miterlimit:10;}
	.st17{fill:#DFEDFA;stroke:#202945;stroke-width:5;stroke-linecap:round;stroke-linejoin:round;stroke-miterlimit:10;}
	.st18{fill:#202945;stroke:#202945;stroke-width:2.4;stroke-linecap:round;stroke-linejoin:round;stroke-miterlimit:10;}
	.st19{fill:#3A8DDE;stroke:#202945;stroke-width:5;stroke-linecap:round;stroke-linejoin:round;stroke-miterlimit:10;}
	.st20{fill:#FFFFFF;stroke:#202945;stroke-width:5.8087;stroke-linecap:round;stroke-linejoin:round;stroke-miterlimit:10;}
	.st21{fill:#FFFFFF;stroke:#202945;stroke-width:5;stroke-linecap:round;stroke-linejoin:round;stroke-miterlimit:10;}
	.st22{fill:#CDA787;stroke:#202945;stroke-width:5;stroke-linecap:round;stroke-linejoin:round;stroke-miterlimit:10;}
	.st23{fill:#1E2947;}
	.st24{fill:#89BBEB;stroke:#202945;stroke-width:5.8087;stroke-linecap:round;stroke-linejoin:round;stroke-miterlimit:10;}
	.st25{fill:#89BBEB;stroke:#202945;stroke-width:5;stroke-linecap:round;stroke-linejoin:round;stroke-miterlimit:10;}
	.st26{fill:none;stroke:#202945;stroke-width:5.8087;stroke-linecap:round;stroke-linejoin:round;stroke-miterlimit:10;}
	.st27{fill:#3A8DDE;stroke:#3A8DDE;stroke-width:2.7726;stroke-linecap:round;stroke-linejoin:round;stroke-miterlimit:10;}
	.st28{fill:none;stroke:#3A8DDE;stroke-width:5;stroke-linecap:round;stroke-linejoin:round;stroke-miterlimit:10;}
	.st29{fill:none;stroke:#3A8DDE;stroke-width:5;stroke-linecap:round;stroke-linejoin:round;}
	.st30{fill:none;stroke:#3A8DDE;stroke-width:5;stroke-linecap:round;stroke-linejoin:round;stroke-dasharray:25.7666,12.368;}
	
		.st31{fill:none;stroke:#3A8DDE;stroke-width:5;stroke-linecap:round;stroke-linejoin:round;stroke-miterlimit:10;stroke-dasharray:25,12;}
	.st32{fill:#DFEDFA;stroke:#DFEDFA;stroke-width:2.4;stroke-linecap:round;stroke-linejoin:round;stroke-miterlimit:10;}
</style>
<g>
	<g>
		<g>
			<g>
				<path class="st29" d="M91,73.4c0,0-3.6,3.3-8,9.4c0,0,0,0,0,0.1"/>
				<path class="st30" d="M76.3,93.4c-8.3,15.5-15.2,39.2-4.3,67.7"/>
				<path class="st29" d="M74.4,166.8c1.7,3.6,3.6,7.3,5.8,11"/>
			</g>
		</g>
		<polyline class="st28" points="85.1,166.1 81,179.6 67.4,175.5 		"/>
	</g>
	<path class="st31" d="M192.1,203.8c11.3-10.8,21-26.7,24.7-50.1"/>
	<polyline class="st28" points="205.5,159.6 217.4,151.8 225.1,163.6 	"/>
	<g>
		<polygon class="st4" points="124.8,147.6 134.9,147.6 139,155.4 130.1,163.6 121,155.3 		"/>
		<path class="st7" d="M130,163.6c-15.2,0-27.6,12.4-27.6,27.6c0,15.2,12.4,27.6,27.6,27.6s27.6-12.4,27.6-27.6
			S145.2,163.6,130,163.6z M130,210.7c-10.8,0-19.5-8.7-19.5-19.5s8.7-19.5,19.5-19.5c10.8,0,19.5,8.7,19.5,19.5
			C149.5,202,140.8,210.7,130,210.7z"/>
		<polygon class="st16" points="124.8,147.6 134.9,147.6 139,155.4 130.1,163.6 121,155.3 		"/>
		
			<ellipse transform="matrix(0.8626 -0.506 0.506 0.8626 -78.8888 92.0476)" class="st16" cx="130" cy="191.2" rx="27.6" ry="27.6"/>
		
			<ellipse transform="matrix(0.7071 -0.7071 0.7071 0.7071 -97.1475 147.9166)" class="st16" cx="130" cy="191.2" rx="19.5" ry="19.5"/>
	</g>
	<g>
		<path class="st3" d="M62.9,210.8l0,33.4l32.8-15.3l49.4,0l36-30.8c3.7-3.2,4-8.7,0.7-12.3l0,0c-3.1-3.3-8.2-3.6-11.7-0.8
			L139,210.7c0,0,5.1-10.2,3.4-10.7c-1.7-0.5-23.8-10.1-30.8-10.4c-7-0.3-16.2,2.3-23.2,6.4C81.3,200,62.9,210.8,62.9,210.8z"/>
		<g>
			<path class="st0" d="M143.6,220.5l-50.3,0l-30.4,14.2v9.4l32.8-15.3l49.4,0l36-30.8c3.3-2.8,3.9-7.5,1.7-11L143.6,220.5z"/>
		</g>
		<g>
			<path class="st16" d="M69.4,206.9l25.3-14.5c5.6-3.2,12.2-4,18.3-2.2l24.5,7.2c4.6,1.3,6.4,6.8,3.5,10.6l0,0
				c-1.3,1.7-3.3,2.7-5.4,2.7l-15.1,0"/>
			<path class="st16" d="M62.9,210.8l0,33.4l32.8-15.3l49.4,0l36-30.8c3.7-3.2,4-8.7,0.7-12.3l0,0c-3.1-3.3-8.2-3.6-11.7-0.8
				L139,210.7l-22.7,0"/>
		</g>
	</g>
	<g>
		<g>
			
				<ellipse transform="matrix(0.9976 -6.995057e-02 6.995057e-02 0.9976 -4.6847 10.6385)" class="st0" cx="149.6" cy="72.2" rx="28.3" ry="28.3"/>
			
				<ellipse transform="matrix(0.1069 -0.9943 0.9943 0.1069 55.8663 212.8734)" class="st7" cx="146.4" cy="75.3" rx="25.2" ry="25.2"/>
			<g>
				
					<ellipse transform="matrix(0.5752 -0.818 0.818 0.5752 4.454 153.0131)" class="st16" cx="149.5" cy="72.2" rx="28.3" ry="28.3"/>
				
					<ellipse transform="matrix(0.1695 -0.9855 0.9855 0.1695 53.017 207.3535)" class="st16" cx="149.5" cy="72.2" rx="20.6" ry="20.6"/>
			</g>
			<g>
				<line class="st16" x1="149.5" y1="59.7" x2="149.5" y2="63.3"/>
				<line class="st16" x1="149.5" y1="82.8" x2="149.5" y2="86.4"/>
				<path class="st16" d="M155.8,63.6l-7.8,0c-2.3,0-4.2,1.9-4.2,4.2v0c0,2.3,1.9,4.2,4.2,4.2h3.5c2.3,0,4.2,1.9,4.2,4.2l0,0.4
					c0,2.3-1.9,4.2-4.2,4.2h-8.3"/>
			</g>
		</g>
		<g>
			<line class="st16" x1="161.6" y1="47.5" x2="157.8" y2="52.8"/>
			<line class="st16" x1="172.4" y1="57.1" x2="166.9" y2="60.6"/>
			<line class="st16" x1="176.9" y1="68.7" x2="170.4" y2="68.4"/>
			<line class="st16" x1="175.4" y1="80.1" x2="169.5" y2="77.2"/>
		</g>
	</g>
	<g>
		<path class="st3" d="M220.3,106.2l0,33.4l-32.8-15.3l-49.4,0l-36-30.8c-3.7-3.2-4-8.7-0.7-12.3l0,0c3.1-3.3,8.2-3.6,11.7-0.8
			l31.1,25.8c0,0-5.1-10.2-3.4-10.7s23.8-10.1,30.8-10.4s16.2,2.3,23.2,6.4C201.8,95.5,220.3,106.2,220.3,106.2z"/>
		<g>
			<path class="st0" d="M139.6,115.9l50.3,0l30.4,14.2v9.4l-32.8-15.3l-49.4,0l-36-30.8c-3.3-2.8-3.9-7.5-1.7-11L139.6,115.9z"/>
		</g>
		<g>
			<path class="st16" d="M213.7,102.3l-25.3-14.5c-5.6-3.2-12.2-4-18.3-2.2l-24.5,7.2c-4.6,1.3-6.4,6.8-3.5,10.6v0
				c1.3,1.7,3.3,2.7,5.4,2.7l15.1,0"/>
			<path class="st16" d="M220.3,106.2l0,33.4l-32.8-15.3l-49.4,0l-36-30.8c-3.7-3.2-4-8.7-0.7-12.3l0,0c3.1-3.3,8.2-3.6,11.7-0.8
				l31.1,25.8l22.7,0"/>
		</g>
	</g>
</g>
</svg>
