<?xml version="1.0" encoding="utf-8"?>
<!-- Generator: Adobe Illustrator 27.1.1, SVG Export Plug-In . SVG Version: 6.00 Build 0)  -->
<svg version="1.1" id="Layer_1" xmlns="http://www.w3.org/2000/svg" xmlns:xlink="http://www.w3.org/1999/xlink" x="0px" y="0px"
	 viewBox="0 0 288 288" style="enable-background:new 0 0 288 288;" xml:space="preserve">
<style type="text/css">
	.st0{fill:#DFEDFA;}
	.st1{fill:#3A8DDE;}
	.st2{fill:#202945;}
	.st3{fill:#FFFFFF;}
	.st4{fill:#89BBEB;}
	.st5{fill:none;stroke:#89BBEB;stroke-width:4;stroke-miterlimit:10;}
	.st6{fill:none;stroke:#202945;stroke-width:3;stroke-linecap:round;stroke-linejoin:round;stroke-miterlimit:10;}
	.st7{fill:#CDA787;}
	.st8{opacity:0.35;}
	.st9{clip-path:url(#SVGID_00000057144874173224617540000012513288752379488402_);fill:#FFFFFF;}
	.st10{fill:none;stroke:#202945;stroke-width:2.5;stroke-linecap:round;stroke-linejoin:round;stroke-miterlimit:10;}
	.st11{fill:none;stroke:#202945;stroke-width:2.7;stroke-linecap:round;stroke-linejoin:round;stroke-miterlimit:10;}
	.st12{fill:none;stroke:#202945;stroke-width:1.8;stroke-linecap:round;stroke-linejoin:round;stroke-miterlimit:10;}
	
		.st13{clip-path:url(#SVGID_00000102528139153544797490000016778337441954927513_);fill:none;stroke:#FFFFFF;stroke-width:3;stroke-linecap:round;stroke-linejoin:round;stroke-miterlimit:10;}
	.st14{opacity:0.6;fill:#3A8DDE;}
	.st15{fill:none;stroke:#89BBEB;stroke-width:5;stroke-linecap:round;stroke-linejoin:round;stroke-miterlimit:10;}
	.st16{fill:none;stroke:#202945;stroke-width:5;stroke-linecap:round;stroke-linejoin:round;stroke-miterlimit:10;}
	.st17{fill:#DFEDFA;stroke:#202945;stroke-width:5;stroke-linecap:round;stroke-linejoin:round;stroke-miterlimit:10;}
	.st18{fill:#202945;stroke:#202945;stroke-width:2.4;stroke-linecap:round;stroke-linejoin:round;stroke-miterlimit:10;}
	.st19{fill:#3A8DDE;stroke:#202945;stroke-width:5;stroke-linecap:round;stroke-linejoin:round;stroke-miterlimit:10;}
	.st20{fill:#FFFFFF;stroke:#202945;stroke-width:5.8087;stroke-linecap:round;stroke-linejoin:round;stroke-miterlimit:10;}
	.st21{fill:#FFFFFF;stroke:#202945;stroke-width:5;stroke-linecap:round;stroke-linejoin:round;stroke-miterlimit:10;}
	.st22{fill:#CDA787;stroke:#202945;stroke-width:5;stroke-linecap:round;stroke-linejoin:round;stroke-miterlimit:10;}
	.st23{fill:#1E2947;}
	.st24{fill:#89BBEB;stroke:#202945;stroke-width:5.8087;stroke-linecap:round;stroke-linejoin:round;stroke-miterlimit:10;}
	.st25{fill:#89BBEB;stroke:#202945;stroke-width:5;stroke-linecap:round;stroke-linejoin:round;stroke-miterlimit:10;}
	.st26{fill:none;stroke:#202945;stroke-width:5.8087;stroke-linecap:round;stroke-linejoin:round;stroke-miterlimit:10;}
	.st27{fill:#3A8DDE;stroke:#3A8DDE;stroke-width:2.7726;stroke-linecap:round;stroke-linejoin:round;stroke-miterlimit:10;}
	.st28{fill:none;stroke:#3A8DDE;stroke-width:5;stroke-linecap:round;stroke-linejoin:round;stroke-miterlimit:10;}
	.st29{fill:none;stroke:#3A8DDE;stroke-width:5;stroke-linecap:round;stroke-linejoin:round;}
	.st30{fill:none;stroke:#3A8DDE;stroke-width:5;stroke-linecap:round;stroke-linejoin:round;stroke-dasharray:25.7666,12.368;}
	
		.st31{fill:none;stroke:#3A8DDE;stroke-width:5;stroke-linecap:round;stroke-linejoin:round;stroke-miterlimit:10;stroke-dasharray:25,12;}
	.st32{fill:#DFEDFA;stroke:#DFEDFA;stroke-width:2.4;stroke-linecap:round;stroke-linejoin:round;stroke-miterlimit:10;}
</style>
<polygon class="st1" points="216.2,225 73,225 73,69.8 84.1,58.4 100.3,42.6 216.2,42.6 "/>
<path class="st3" d="M185.4,209.2H88.6V59.9h112.5v133.5C201.1,202.1,194.1,209.2,185.4,209.2z"/>
<g>
	<g>
		<line class="st16" x1="71.8" y1="72.9" x2="102.2" y2="42.6"/>
		<path class="st16" d="M90.5,72.9l-18.8,0l0,152.1l144.4,0l0-182.4l-114,0l0,18.6C102.2,67.6,97,72.9,90.5,72.9z"/>
		<polyline class="st16" points="139.2,209.2 86.9,209.2 86.9,85.5 		"/>
		<line class="st21" x1="201.1" y1="150.9" x2="201.1" y2="173.7"/>
		<polyline class="st16" points="112.9,58.4 201.1,58.4 201.1,138 		"/>
	</g>
	<g>
		<line class="st21" x1="101.8" y1="90.7" x2="144.6" y2="90.7"/>
		<line class="st21" x1="101.8" y1="106.2" x2="167.3" y2="106.2"/>
		<line class="st21" x1="101.8" y1="119.1" x2="167.3" y2="119.1"/>
		<line class="st21" x1="155.8" y1="90.7" x2="183.8" y2="90.7"/>
	</g>
	<g>
		<polygon class="st17" points="150,155.3 126.1,177.7 102.1,155.3 110.7,140.6 141.4,140.6 		"/>
		<g>
			<line class="st16" x1="141.1" y1="154.8" x2="104.4" y2="154.8"/>
			<polyline class="st16" points="110.7,140.6 126.1,154.8 141.4,140.6 			"/>
			<line class="st16" x1="126.1" y1="177.7" x2="126.1" y2="154.8"/>
		</g>
	</g>
	<g>
		<g>
			<polygon class="st0" points="188.6,245.4 173.9,236.4 159.2,245.4 159.2,199.7 188.6,199.7 			"/>
			<rect x="180.6" y="215.8" class="st3" width="7.3" height="26.2"/>
		</g>
		<polygon class="st16" points="188.6,245.4 173.9,236.4 159.2,245.4 159.2,199.7 188.6,199.7 		"/>
		<circle class="st3" cx="173.1" cy="195.9" r="23.2"/>
		<path class="st7" d="M168.6,173.1c-10.7,2.1-18.7,11.5-18.7,22.8s8.1,20.7,18.7,22.8c10.7-2.1,18.7-11.5,18.7-22.8
			S179.2,175.2,168.6,173.1z"/>
		<circle class="st16" cx="173.1" cy="195.9" r="23.2"/>
	</g>
</g>
<path class="st24" d="M102.2,43.6l0,17.5c0,6.5-5.2,11.7-11.7,11.7l-17.6,0L102.2,43.6z"/>
<g>
	<path class="st2" d="M102,198.1L102,198.1c-1.8,0-3.2-1.4-3.2-3.2c0-1.8,1.4-3.2,3.2-3.2s3.2,1.4,3.2,3.2
		C105.2,196.6,103.7,198.1,102,198.1"/>
	<path class="st2" d="M112.1,198.1L112.1,198.1c-1.8,0-3.2-1.4-3.2-3.2c0-1.8,1.4-3.2,3.2-3.2s3.2,1.4,3.2,3.2
		C115.2,196.6,113.8,198.1,112.1,198.1"/>
	<path class="st2" d="M122.8,198.1L122.8,198.1c-1.8,0-3.2-1.4-3.2-3.2c0-1.8,1.4-3.2,3.2-3.2s3.2,1.4,3.2,3.2
		C126,196.6,124.5,198.1,122.8,198.1"/>
</g>
</svg>
