<?xml version="1.0" encoding="utf-8"?>
<!-- Generator: Adobe Illustrator 27.1.1, SVG Export Plug-In . SVG Version: 6.00 Build 0)  -->
<svg version="1.1" id="Layer_1" xmlns="http://www.w3.org/2000/svg" xmlns:xlink="http://www.w3.org/1999/xlink" x="0px" y="0px"
	 viewBox="0 0 288 288" style="enable-background:new 0 0 288 288;" xml:space="preserve">
<style type="text/css">
	.st0{fill:#DFEDFA;}
	.st1{fill:#3A8DDE;}
	.st2{fill:#202945;}
	.st3{fill:#FFFFFF;}
	.st4{fill:#89BBEB;}
	.st5{fill:none;stroke:#89BBEB;stroke-width:4;stroke-miterlimit:10;}
	.st6{fill:none;stroke:#202945;stroke-width:3;stroke-linecap:round;stroke-linejoin:round;stroke-miterlimit:10;}
	.st7{fill:#CDA787;}
	.st8{opacity:0.35;}
	.st9{clip-path:url(#SVGID_00000101097688800529781900000002071244625361943681_);fill:#FFFFFF;}
	.st10{fill:none;stroke:#202945;stroke-width:2.5;stroke-linecap:round;stroke-linejoin:round;stroke-miterlimit:10;}
	.st11{fill:none;stroke:#202945;stroke-width:2.7;stroke-linecap:round;stroke-linejoin:round;stroke-miterlimit:10;}
	.st12{fill:none;stroke:#202945;stroke-width:1.8;stroke-linecap:round;stroke-linejoin:round;stroke-miterlimit:10;}
	
		.st13{clip-path:url(#SVGID_00000029749996913511252650000007937695564275525547_);fill:none;stroke:#FFFFFF;stroke-width:3;stroke-linecap:round;stroke-linejoin:round;stroke-miterlimit:10;}
	.st14{opacity:0.6;fill:#3A8DDE;}
	.st15{fill:none;stroke:#89BBEB;stroke-width:5;stroke-linecap:round;stroke-linejoin:round;stroke-miterlimit:10;}
	.st16{fill:none;stroke:#202945;stroke-width:5;stroke-linecap:round;stroke-linejoin:round;stroke-miterlimit:10;}
	.st17{fill:#DFEDFA;stroke:#202945;stroke-width:5;stroke-linecap:round;stroke-linejoin:round;stroke-miterlimit:10;}
	.st18{fill:#202945;stroke:#202945;stroke-width:2.4;stroke-linecap:round;stroke-linejoin:round;stroke-miterlimit:10;}
	.st19{fill:#3A8DDE;stroke:#202945;stroke-width:5;stroke-linecap:round;stroke-linejoin:round;stroke-miterlimit:10;}
	.st20{fill:#FFFFFF;stroke:#202945;stroke-width:5.8087;stroke-linecap:round;stroke-linejoin:round;stroke-miterlimit:10;}
	.st21{fill:#FFFFFF;stroke:#202945;stroke-width:5;stroke-linecap:round;stroke-linejoin:round;stroke-miterlimit:10;}
	.st22{fill:#CDA787;stroke:#202945;stroke-width:5;stroke-linecap:round;stroke-linejoin:round;stroke-miterlimit:10;}
	.st23{fill:#1E2947;}
	.st24{fill:#89BBEB;stroke:#202945;stroke-width:5.8087;stroke-linecap:round;stroke-linejoin:round;stroke-miterlimit:10;}
	.st25{fill:#89BBEB;stroke:#202945;stroke-width:5;stroke-linecap:round;stroke-linejoin:round;stroke-miterlimit:10;}
	.st26{fill:none;stroke:#202945;stroke-width:5.8087;stroke-linecap:round;stroke-linejoin:round;stroke-miterlimit:10;}
	.st27{fill:#3A8DDE;stroke:#3A8DDE;stroke-width:2.7726;stroke-linecap:round;stroke-linejoin:round;stroke-miterlimit:10;}
	.st28{fill:none;stroke:#3A8DDE;stroke-width:5;stroke-linecap:round;stroke-linejoin:round;stroke-miterlimit:10;}
	.st29{fill:none;stroke:#3A8DDE;stroke-width:5;stroke-linecap:round;stroke-linejoin:round;}
	.st30{fill:none;stroke:#3A8DDE;stroke-width:5;stroke-linecap:round;stroke-linejoin:round;stroke-dasharray:25.7666,12.368;}
	
		.st31{fill:none;stroke:#3A8DDE;stroke-width:5;stroke-linecap:round;stroke-linejoin:round;stroke-miterlimit:10;stroke-dasharray:25,12;}
	.st32{fill:#DFEDFA;stroke:#DFEDFA;stroke-width:2.4;stroke-linecap:round;stroke-linejoin:round;stroke-miterlimit:10;}
</style>
<polygon class="st17" points="190.5,220.6 74.9,234.5 53,77.3 174.4,62.7 "/>
<polyline class="st21" points="200.7,195.6 200.2,222.6 82.7,222.6 79.8,62.5 203.1,62.5 201.1,183.5 "/>
<line class="st26" x1="162.3" y1="101.1" x2="169.1" y2="101.1"/>
<g>
	<g>
		<g>
			<path class="st7" d="M101.9,153.3c-0.6,10.8,1.1,21.2,5.9,31c0.6,1.2,2.3,1.5,3.4,0.9c1.2-0.7,1.5-2.2,0.9-3.4
				c-2.5-5.1-4.2-10.6-4.9-16.2c-0.5-4.1-0.5-8.2-0.3-12.3C107.1,150.1,102.1,150.1,101.9,153.3L101.9,153.3z"/>
		</g>
	</g>
	<g>
		<g>
			<path class="st7" d="M117.2,138.3c2.5-2.4,5.3-4.4,8.4-6c1.5-0.8,2.8-1.4,4.3-2c0.7-0.3,1.4-0.5,2.2-0.7c0.4-0.1,0.7-0.2,1.1-0.3
				c0.2,0,0.4-0.1,0.6-0.1c0.1,0,0.6-0.1,0.1,0c1.3-0.2,2.5-1,2.5-2.5c0-1.2-1.2-2.7-2.5-2.5c-7.6,1-14.7,5.4-20.2,10.6
				c-1,0.9-0.9,2.6,0,3.5C114.7,139.3,116.2,139.2,117.2,138.3L117.2,138.3z"/>
		</g>
	</g>
	<g>
		<g>
			<path class="st7" d="M176.8,164.6c-2.2,8.8-6.1,17-11.4,24.4c-0.8,1.1-0.2,2.8,0.9,3.4c1.3,0.7,2.6,0.2,3.4-0.9
				c5.5-7.7,9.6-16.4,11.9-25.6C182.4,162.8,177.6,161.5,176.8,164.6L176.8,164.6z"/>
		</g>
	</g>
</g>
<polyline class="st0" points="116.1,95.7 124.8,84.4 157.8,84.4 170.7,101 141.3,132.4 "/>
<g>
	<path class="st16" d="M184.1,159.3c0,22.4-18.9,40.6-42.3,40.6s-42.3-18.2-42.3-40.6c0-12.1,5.5-23,14.3-30.4"/>
	<g>
		<path class="st21" d="M108.5,160.8c0.2-1.8,0.5-3.5,1-5.2c3.9-14.7,16.9-25.6,32.4-25.6"/>
		<path class="st21" d="M108.7,170.7c-0.1-0.7-0.2-1.3-0.3-2"/>
		<path class="st21" d="M168.4,143.7c4.4,5.9,7,13.3,7,21.3c0,9.3-3.5,17.8-9.2,24.1c-6.1,6.7-14.8,10.9-24.4,10.9
			c-7.8,0-15-2.8-20.7-7.4c-4.1-3.4-7.5-7.7-9.8-12.7"/>
	</g>
	<polyline class="st16" points="141.3,132.4 110,101 121.1,126.7 	"/>
	<polyline class="st16" points="141.3,132.4 173.4,101 159.2,133.7 	"/>
	<g>
		<polyline class="st16" points="116.1,95.7 124.8,84.4 157.8,84.4 170.7,101 141.3,132.4 		"/>
		<line class="st16" x1="122.4" y1="101.1" x2="158.7" y2="101.1"/>
		<g>
			<polyline class="st16" points="138.4,84.4 127.4,101.1 140.4,131.4 			"/>
			<polyline class="st16" points="144.3,84.4 155.3,101.1 142.3,130.5 			"/>
		</g>
	</g>
</g>
<g>
	<polyline class="st3" points="138.7,150.3 128.5,181.9 160.1,171.6 	"/>
	<path class="st17" d="M252.3,79.5l-14.9,14.9L216,73l14.9-14.9c3.5-3.5,9.3-3.5,12.8,0l8.5,8.5C255.8,70.2,255.8,75.9,252.3,79.5z"
		/>
	
		<rect x="132.2" y="104.4" transform="matrix(0.7071 -0.7071 0.7071 0.7071 -28.5731 169.99)" class="st22" width="117.3" height="30.2"/>
	<g>
		<line class="st16" x1="160.1" y1="158.2" x2="195.2" y2="123.1"/>
		<line class="st16" x1="202.6" y1="115.7" x2="209.6" y2="108.7"/>
	</g>
	<line class="st17" x1="216" y1="73" x2="237.3" y2="94.4"/>
	<polygon class="st1" points="131.7,171.8 129.5,179.2 138.9,179.1 137.3,173 	"/>
	<line class="st16" x1="134.3" y1="169.6" x2="140.8" y2="176.1"/>
	<polyline class="st16" points="138.7,150.3 128.5,181.9 160.1,171.6 	"/>
</g>
<ellipse transform="matrix(0.785 -0.6194 0.6194 0.785 -84.6932 152.6823)" class="st2" cx="177.6" cy="198.4" rx="2.2" ry="2.2"/>
<ellipse transform="matrix(0.785 -0.6194 0.6194 0.785 -52.8593 91.0628)" class="st2" cx="104.8" cy="121.7" rx="2.2" ry="2.2"/>
<ellipse transform="matrix(0.785 -0.6194 0.6194 0.785 -15.7665 122.0056)" class="st2" cx="167.9" cy="83.7" rx="2.2" ry="2.2"/>
</svg>
