<?xml version="1.0" encoding="UTF-8"?><svg id="b" xmlns="http://www.w3.org/2000/svg" viewBox="0 0 426.53 417.79"><defs><style>.g,.h,.i,.j,.k,.l,.m,.n{stroke:#202945;}.g,.h,.i,.j,.k,.l,.m,.n,.o{stroke-linecap:round;stroke-linejoin:round;}.g,.i{stroke-width:2.5px;}.g,.p{fill:#fff;}.h{stroke-width:1.8px;}.h,.q,.j,.l{fill:#e3ebf9;}.i,.r,.n,.o{fill:none;}.s{fill:#96b9eb;}.t,.m{fill:#cda787;}.u{fill:#202945;}.v,.k{fill:#3a8dde;}.j{stroke-width:2.7px;}.r{stroke:#96b9eb;stroke-miterlimit:10;stroke-width:4px;}.w{opacity:.35;}.k,.l,.m,.n,.o{stroke-width:3px;}.o{stroke:#fff;}</style></defs><g id="c"><path class="q" d="M399.07,340.89c50.54-91.11,32.58-217.21-64.59-238.47C237.31,81.16,224.35-56.9,83.76,26.54c-140.6,83.45-78.25,239.54-1.05,304.02,82.9,69.24,238.56,150.59,316.37,10.33Z"/><rect class="v" x="401.4" y="265.01" width="7.09" height="7.09" rx="3.54" ry="3.54"/><rect class="u" x="66.53" y="88.18" width="7.09" height="7.09" rx="3.54" ry="3.54"/><rect class="v" x="80.45" y="131.21" width="7.09" height="7.09" rx="3.54" ry="3.54"/><path class="u" d="M391.73,168.84h0c-2.89,.78-5.14,3.03-5.92,5.92h0s0,0,0,0c-.78-2.89-3.03-5.14-5.92-5.92h0c2.89-.78,5.14-3.03,5.92-5.92h0s0,0,0,0c.78,2.89,3.03,5.14,5.92,5.92Z"/><path class="p" d="M335.47,130.15h0c-3.11,.84-5.55,3.27-6.39,6.39h0s0,0,0,0c-.84-3.11-3.27-5.55-6.39-6.39h0c3.11-.84,5.55-3.27,6.39-6.39h0s0,0,0,0c.84,3.11,3.27,5.55,6.39,6.39Z"/></g><g id="d"><path class="p" d="M44.92,146.92h0c-3.21,.86-5.72,3.37-6.58,6.58h0s0,0,0,0c-.86-3.21-3.37-5.72-6.58-6.58h0c3.21-.86,5.72-3.37,6.58-6.58h0s0,0,0,0c.86,3.21,3.37,5.72,6.58,6.58Z"/><g><path class="s" d="M112.5,357.78c12.14,5.58,28.12-3.26,35.69-19.73,7.57-16.48,3.86-34.36-8.28-39.93-12.14-5.58-28.12,3.26-35.69,19.73-7.57,16.48-3.86,34.36,8.28,39.93Zm-4.53-38.21c6.28-13.67,19.11-21.19,28.66-16.8,9.55,4.39,12.2,19.02,5.93,32.69-6.28,13.67-19.11,21.19-28.66,16.8-9.55-4.39-12.2-19.02-5.93-32.69Z"/><polygon class="s" points="22.83 286.11 74.08 347.65 65.14 367.66 18.54 289.92 22.83 286.11"/><path class="s" d="M22.95,278.64c1.06-.79,2.58-.12,2.71,1.19,.38,3.86-1.2,7.84-4.52,10.32h0c-3.33,2.49-7.61,2.89-11.22,1.42-1.21-.49-1.39-2.14-.34-2.92l13.37-10.01Z"/><polygon class="s" points="71.18 286.35 128.36 286.35 134.4 367.66 65.14 367.66 71.18 286.35"/><line class="s" x1="111.89" y1="351.45" x2="82.2" y2="351.45"/><line class="s" x1="77.87" y1="351.45" x2="71.72" y2="351.45"/><line class="s" x1="128.27" y1="292.46" x2="71.23" y2="292.46"/><line class="s" x1="133.44" y1="357.15" x2="66.06" y2="357.15"/><line class="r" x1="69.32" y1="311.33" x2="41.09" y2="311.33"/><rect class="s" x="94.7" y="263.15" width="10.44" height="35.63" rx="3.74" ry="3.74" transform="translate(199.83 561.93) rotate(-180)"/></g></g><g id="e"><g><path class="s" d="M342.75,294.26s8.7-5.04,18.88-2.27,8.3,11.67,1.78,13.74c-6.52,2.08-12.95-9.1-19.87-9.1l-.79-2.37Z"/><path class="s" d="M340.88,290.57s-6.12,9.79-17.93,12.45-14.69-7.37-9.19-12.98c5.5-5.61,18.03,2.27,25.05-1.45l2.08,1.98Z"/><path class="s" d="M337.64,274.42s-10.14,12.08-29.81,13.44c-19.67,1.36-21.81-15.5-11.57-23.17s28.44,8.12,40.66,3.87l.72,5.86Z"/><path class="s" d="M338.78,283.39s12.39,9.76,31.93,7.07c19.54-2.69,18.19-19.63,6.6-25.05-11.6-5.42-26.19,13.75-39.01,12.09l.49,5.89Z"/><path class="s" d="M337.64,260.75s-8.38-10.88-15.84-11.61c-7.45-.73-11.4,4.24-11.55,9.06-.15,4.82,6.31,6.92,13.69,6.1,7.38-.83,12.93-1.43,12.93-1.43l.76-2.12Z"/><path class="s" d="M343.46,245.94s-10.98-8.89-16.85-15c-5.87-6.11-14.68-11.5-21.04-2.32-6.36,9.17-2.81,18.77,7.09,20.45s28.96,0,28.96,0l1.84-3.13Z"/><path class="s" d="M341.4,252.7s9.84,15.97,25.44,16.27c15.6,.29,16.43-1.46,18.92-6.42,2.48-4.95,5.42-16.45-7.42-15.59s-21.65,5.05-35.96,.81l-.98,4.94Z"/><path class="s" d="M349.42,234.85s4.38,9.54,15.24,9.78,18.81-3.55,16.36-11.01c-2.45-7.46-7.34-5.63-14.31-3.3s-13.7,1.96-15.41,1.96l-1.89,2.57Z"/><path class="s" d="M352.19,223.11s-13.04,7.7-28.24,7.22-21.8-3.42-22.17-10.27,4.16-17.98,13.82-14.43c9.66,3.55,15.4,9.17,23.29,8.81,7.89-.37,12.84,3.18,13.3,5.38s0,3.3,0,3.3Z"/><path class="s" d="M351.07,219.81s4.06-3.18,10.96-3.67,11.3-2.32,15.7-5.63c4.4-3.3,12.96-3.3,15.53,1.71,2.57,5.01-.59,17.49-14.68,18.12-14.09,.63-26.39-7.24-26.39-7.24l-1.13-3.3Z"/><path class="s" d="M344.97,191.98s-2.34-20.34-8.94-24.57c-6.6-4.23-12.11-4.72-15.9,3.23s8.19,15.53,15.29,18.22c7.09,2.69,9.55,3.12,9.55,3.12Z"/><path class="s" d="M346.85,195.73s4.09-10.29,6.41-16.77c2.32-6.48,7.39-8.07,11.4-4.52,4.01,3.55,5.11,10.76-2.59,17.55s-13.93,6.69-13.93,6.69l-1.29-2.94Z"/><path class="s" d="M351.13,208.22s7.39-4.06,11.31-11.77,11.86-7.46,13.94-1.71c2.08,5.75-3.91,15.78-13.82,17s-10.81,0-10.81,0l-.62-3.52Z"/><path class="s" d="M346.85,197.18s-16.86-5.75-23.93-5.63c-7.08,.12-8.32-.61-8.98,5.14-.66,5.75,4.35,16.14,15.72,12.72s18.47-10.74,18.47-10.74l-1.29-1.49Z"/><path class="s" d="M348.92,312.9c-.36,0-.71-.2-.89-.54-.12-.23-11.9-23.45-11.9-45.68,0-10.78,3.5-16.45,7.21-22.46,3.98-6.44,8.1-13.1,7.84-27.12-.25-13.72-7.35-26.27-13.26-34.38-6.44-8.85-12.92-14.49-12.98-14.55-.42-.36-.46-.99-.1-1.41,.36-.42,.99-.46,1.41-.1,1.08,.93,26.43,23.18,26.93,50.4,.27,14.61-4,21.52-8.13,28.21-3.56,5.76-6.92,11.19-6.92,21.4,0,21.74,11.56,44.54,11.68,44.77,.25,.49,.06,1.09-.43,1.35-.15,.08-.3,.11-.46,.11Z"/><path class="s" d="M318.45,311.9h59.41v28.16c0,14.98-12.16,27.14-27.14,27.14h-5.12c-14.98,0-27.14-12.16-27.14-27.14v-28.16h0Z"/></g><path class="n" d="M133.53,106.61c-5.09,5.09-8.24,12.13-8.24,19.9s3.43,15.4,8.91,20.53c-11.3,5.98-19,17.85-19,31.53,0,19.69,15.97,35.66,35.66,35.66"/><path class="u" d="M263.52,121.36c.15-1.38,.23-2.78,.23-4.2,0-17.09-11.05-31.59-26.4-36.77,2.72-4.24,4.31-9.29,4.31-14.7,0-14.95-12.03-27.09-26.94-27.27-3.82-4.42-9.02-7.73-15.14-9.17-7.87-1.85-15.74-.27-22.05,3.77,0,0,0,0,0,0-5.89-6.91-13.95-12.07-23.46-14.3-23.72-5.57-47.46,9.15-53.03,32.86-5.41,23.05,10.45,48,33.12,54.5l-.62,.52c-5.09,5.09-8.24,12.13-8.24,19.9s3.43,15.4,8.91,20.53c-11.3,5.98-19,17.85-19,31.53,0,19.69,15.97,35.66,35.66,35.66l148.74-41.24c0-22.12-15.07-47.81-36.08-51.63Z"/><g><path class="t" d="M126.36,83.09l12.72,44.04c.83,2.86,2.1,5.57,3.79,8.02,5.96,8.68,21.78,26.56,50.28,25.31,0,0,19.86-9.53,25.08-38.8l.24-9.48,.52-10.87-9.8-27.05s-21.9,13.18-38.17,0c0,0-17.12,15.75-41.25,6.85,0,0-4.21-.82-3.4,1.98Z"/><circle class="t" cx="218.99" cy="89.01" r="10.88"/><path class="t" d="M218.22,121.67l7.36,32.48,8.14,2.18s-1.29,28.83-27.72,36.8c-26.43,7.97-39.06-15.51-41.45-27.15l4.58-4.3-6.37-12.44,55.47-27.57Z"/></g><path class="p" d="M79.36,238.04l18.64-48.77c3.79-12.79,17.58-20.83,22.53-21.51l17.67-1.97,25.3,.2,10.36,20.52,1.24,61.93-28.8,1.46-7.3-26.63-9.59,.22-6.53,24.19c-9.2-.89-31.68-2.18-37.44-5.98l-6.08-3.65Z"/><g class="w"><circle class="p" cx="147.06" cy="105.02" r="12.86"/><circle class="p" cx="178.74" cy="97.5" r="12.86"/></g><path class="p" d="M290.72,247.66c31.99,5.02,35.92-3.38,35.92-3.38l-18.4-57.67c-3.61-11.32-13.23-19.67-24.95-21.66l-49.58-8.62s-2.4,29.93-26.91,36.44-31.72-6.61-41.65-19.79l-8.4,47.28,8.13,49.96,128.19-2.89-2.35-19.67Z"/><path class="v" d="M256.57,222.5s-.29-36.01,2.43-61.38l-16.4-4.1s-2.98,36.93-2.52,63.24l16.49,2.25Z"/><path class="v" d="M168.85,225.06s-6.13-34.88-8.88-60.25l-17.06,2.01s3.29,33.96,9.35,59.56l16.59-1.32Z"/><path class="v" d="M140.08,280.96l-2.1-10.75c3.94-2.41,8.82-21.71,9.14-28.37,.44-9.06-2-22.39-2-22.39,0,0,73.82-7.08,118.78-2.09,0,0,7.5,32.51,29.17,49.97v8.37l-152.99,5.27Z"/><path class="n" d="M293.07,267.33c-23.17-17.46-29.17-49.97-29.17-49.97-3.39-.51-3.35-.76-7.02-1.12"/><path class="q" d="M134.23,282.7l3.15,22.9h5.82l11.43,68.04h132.55l10.83-74.99,4.8-.09,2.63-21.95s-73.76-2.61-118.99,.94c-45.23,3.55-52.22,5.16-52.22,5.16Z"/><polygon class="u" points="299.05 304.98 277.81 300.29 299.05 298.65 299.05 301.73 299.05 304.98"/><polygon class="u" points="231.89 340.3 277.92 346.33 290.35 351.17 291.51 343.51 280.53 339.63 231.89 340.3"/></g><g id="f"><path class="n" d="M142.91,163.1s1.09,31.32,10.2,67.69c1.08,4.32,5.32,7.07,9.71,6.27h0c4.91-.89,7.96-5.82,6.61-10.62-9.7-34.64-10.29-64.39-10.29-64.39"/><line class="n" x1="124.26" y1="244.73" x2="134.55" y2="201.7"/><polyline class="n" points="185.56 246.99 247.31 246.99 249.07 269.7"/><line class="n" x1="230.86" y1="374.2" x2="306.95" y2="374.2"/><line class="n" x1="110.26" y1="374.2" x2="120.61" y2="374.2"/><line class="n" x1="314.6" y1="374.2" x2="343.51" y2="374.2"/><path class="n" d="M126.26,81.16l12.82,45.97c.83,2.86,2.1,5.57,3.79,8.02,5.96,8.68,21.78,26.56,50.28,25.31,0,0,25.85-13.55,25.85-59.15"/><line class="n" x1="219.91" y1="101.09" x2="223.11" y2="112.19"/><g><path class="l" d="M165.25,258.44l15.99-19.68c1.94-2.38,5.44-2.75,7.82-.81l13.27,10.78s13.58,9.87,15.76,36.29c0,0-20.17,5.07-37.7-7.13l-14.32-11.64c-2.38-1.94-2.75-5.44-.81-7.82Z"/><path class="l" d="M165.25,258.44l15.99-19.68c1.94-2.38,5.44-2.75,7.82-.81l13.27,10.78s13.58,9.87,15.76,36.29c0,0-20.17,5.07-37.7-7.13l-14.32-11.64c-2.38-1.94-2.75-5.44-.81-7.82Z"/><polygon class="l" points="178.47 247.73 192.86 264.52 173.5 253.86 152.05 236.44 157.03 230.31 178.47 247.73"/><path class="k" d="M169.99,245.95h0c-2.72,3.34-7.63,3.85-10.98,1.14l-35.61-29.22c-3.34-2.72-3.85-7.63-1.14-10.98h0c2.72-3.34,7.63-3.85,10.98-1.14l35.61,29.22c3.34,2.72,3.85,7.63,1.14,10.98Z"/><line class="i" x1="159.31" y1="246.81" x2="168.71" y2="235.25"/><ellipse class="g" cx="128.44" cy="211.9" rx="2.56" ry="2.57" transform="translate(-113.23 157.16) rotate(-46.02)"/><path class="j" d="M207.71,264.68c-1.66-3.17-3.83-6.39-6.69-9.36-.82-.85-1.7-1.69-2.64-2.49l-5.02-3.66"/></g><path class="q" d="M134.23,282.7l3.15,22.9h5.82l11.43,68.04h132.55l10.83-74.99,4.8-.09,2.63-21.95s-73.76-2.61-118.99,.94c-45.23,3.55-52.22,5.16-52.22,5.16Z"/><path class="n" d="M125.8,78.24c5.83,3.17,12.51,4.97,19.62,4.97,10.09,0,19.32-3.63,26.48-9.66,5,3.98,11.32,6.36,18.21,6.36,7.99,0,15.23-3.2,20.51-8.39"/><path class="n" d="M299.6,172.99c0-24.24-15.07-47.81-36.08-51.63,.15-1.38,.23-2.78,.23-4.2,0-17.09-11.05-31.59-26.4-36.77,2.72-4.24,4.31-9.29,4.31-14.7,0-15.07-12.21-27.28-27.28-27.28"/><path class="n" d="M211.82,98.09c3.38,3.09,8.45,3.97,12.84,1.83,5.73-2.79,8.14-9.66,5.37-15.36-2.77-5.69-9.66-8.05-15.39-5.26-4.54,2.21-6.99,6.98-6.44,11.69"/><path class="n" d="M223.35,93.98c1.97-1.66,2.64-4.48,1.48-6.88-1.09-2.25-3.48-3.46-5.84-3.17"/><circle class="m" cx="161.2" cy="227.82" r="3.31"/><line class="n" x1="217.83" y1="123.72" x2="227.61" y2="162.11"/><path class="t" d="M336.5,361.51s12.31,1.92,19.99-9.98c4.68-7.24-3.72-29.75-3.72-29.75l-26.14-77.51s-5.14,4.8-15.53,4.94c-10.38,.14-20.39-1.55-20.39-1.55l.67,3.62,1.68,16.05v8.37l12.37,.91-2.51,23.14,3.15,20.86-13.01-1.24-8.12-10.62-9.82-5.15-12.4-13.68s-3.54,2.58-3.54,5.96,2.09,8.21,2.09,8.21l-18.03-3.38-32.53,9.88,4.35,5.26-11.27,4.03,5.83,3.76-1.26,3.32,4.29,1.77,16.69-.44,9.39-.04-15.6,5.59,3.04,5.03,54.34,.77,18.85,7.8,37.12,14.09Z"/><path class="n" d="M242.84,159.25s-4.52,31.01-2.05,68.42c.29,4.44,3.98,7.91,8.43,7.91h0c4.99,0,8.87-4.3,8.4-9.27-3.36-35.81,1.37-65.19,1.37-65.19"/><path class="n" d="M150.57,218.58c-3.52,.37-5.52,.62-5.52,.62,0,0,1.91,8.37,2.08,15.47"/><path class="n" d="M239.02,215.04c-24.43-1.25-52.1,.34-71.05,1.91"/><g><circle class="n" cx="147.06" cy="105.02" r="12.86"/><circle class="n" cx="178.74" cy="97.5" r="12.86"/><path class="n" d="M159.37,101.32s1.84-2.9,6.62-2.14"/></g><path class="n" d="M220.66,49.4c-2.75-9.71-10.55-17.68-21.08-20.15-7.87-1.85-15.74-.27-22.05,3.77,0,0,0,0,0,0-5.89-6.91-13.95-12.07-23.46-14.3-23.72-5.57-47.46,9.15-53.03,32.86-5.57,23.72,9.15,47.46,32.86,53.03"/><path class="n" d="M233.72,156.33c0,21.14-17.14,38.28-38.28,38.28-16.79,0-26.49-12.42-31.51-28.87"/><line class="n" x1="285.64" y1="205.07" x2="293.93" y2="274.51"/><g><path class="n" d="M184.95,130.15c-.96,4.6-4.42,8.51-9.3,9.78s-9.81-.46-12.89-4.01"/><path class="n" d="M141.44,107.09c.49-2.4,2.29-4.44,4.82-5.1s5.1,.25,6.7,2.11"/><path class="n" d="M158.71,110.38l-1.3,8.49c-.72,4.71,3.61,8.62,8.22,7.42l5.25-1.36"/><path class="n" d="M173.73,100.15c.49-2.4,2.29-4.44,4.82-5.1s5.1,.25,6.7,2.11"/></g><g><path class="n" d="M295.05,322.7l-10.86-13.93-9.63-5.65-12.67-13.96-2.16,3.71c-1,1.72-1.09,3.82-.23,5.62l2.15,4.52"/><path class="n" d="M270.2,305.93l-27.16-5.41-32.92,10.25,3.49,3.23c1.02,.95,2.45,1.33,3.81,1.02l14.35-3.23,16.4-1.02"/><path class="n" d="M216.49,315.12l-13.15,4.92,3.69,2.54c1.35,.93,3.03,1.26,4.64,.92l6.43-1.97"/><path class="n" d="M326.64,244.27l28.95,85.85,2.2,6.87c4.74,14.8-9.53,28.61-24.17,23.4l-20.82-7.42-32.27-13.35-19.42,.61-32.6-.96c-1.53-.04-2.99-.64-4.11-1.69l-3.9-3.63,23.95-6.15-20.62,.64-8.38,.67c-1.87,.15-3.73-.36-5.25-1.45l-3.4-2.42,17.93-5.89,24.85-.64"/><polyline class="n" points="292.46 319.37 309.08 320.61 321.21 321.06"/></g><path class="m" d="M207.05,276.03c-2.34-3.46-6.3-5.74-10.77-5.74-2.82,0-5.42,.92-7.56,2.45-2.95-4.58-8.08-7.63-13.9-7.63h0c-5.77,0-10.86,3-13.82,7.5-3.93,.33-7.19,3.14-8.19,6.85"/><path class="m" d="M227.48,275.46c2.44-3.02,6.57-5.01,11.23-5.01,2.94,0,5.65,.8,7.88,2.14,3.07-4,8.42-6.66,14.49-6.66h0c6.01,0,11.32,2.62,14.41,6.55,2.71,.19,5.11,1.32,6.73,3"/><g><path class="n" d="M234.85,319.63s5.98,.63,5.98,7.2"/><polygon class="h" points="239.34 322.33 234.77 316.18 240.56 314.05 245.49 317.75 239.34 322.33"/></g><g><g><path class="n" d="M281.38,299.18l21.43-.62,2.63-21.95c-76.83-5.27-173.01,5.37-173.01,5.37l3.87,18.66,1.09,4.96,8.53-.78s29.31-1.37,64.2-3.49"/><polyline class="n" points="234.88 373.64 287.18 373.64 292.07 344.4"/><line class="n" x1="143.12" y1="305.08" x2="154.64" y2="373.64"/><line class="n" x1="295.73" y1="319.63" x2="299.05" y2="298.65"/></g><line class="n" x1="154.5" y1="321.51" x2="159" y2="355.21"/><path class="n" d="M146.73,286.89s15.01-1.66,37.71-2.76"/></g><circle class="m" cx="249.58" cy="225.81" r="3.31"/><g class="w"><g><path class="o" d="M120.76,31.33c5.95-4.58,13.41-7.3,21.5-7.3,9.54,0,18.19,3.78,24.55,9.93"/><path class="o" d="M109.64,45.78c1.55-3.72,3.72-7.12,6.38-10.07"/></g><path class="o" d="M267.71,129.78c12.14,4.89,21.27,15.68,23.83,28.83"/></g><line class="n" x1="306.08" y1="319.37" x2="301.91" y2="298.65"/><g><path class="l" d="M224.1,245.77s-7.35-14.3-2.18-28.49c5.16-14.19,14.6-20.3,14.6-20.3,0,0,19.25,31.92-12.42,48.79Z"/><path class="n" d="M232.83,213.6s-2.04,9.67-5.4,19.55c-2.53,7.43-6.33,14.46-4.84,41.54"/><path class="l" d="M246.71,246.99s-6.79,23.93-23.86,18.96c0,0,5.74-18.73,23.86-18.96Z"/><path class="l" d="M180.43,213.5s3.08,9.37,8.41,17.13c5.68,8.27,15.83,10.13,23.62,8.64,0,0,4.82-21.92-32.03-25.77Z"/><path class="n" d="M197.95,224.76s18.23,12.64,24.68,38.16"/></g><circle class="n" cx="242.55" cy="387.93" r=".52"/><path class="t" d="M63.5,322.7l-11.62-5.76,27.48-78.91s15.65,9.76,35.21,8.96-1.58,18.12-1.58,18.12l-49.49,57.59Z"/><circle class="n" cx="273.92" cy="394.39" r=".52"/><circle class="n" cx="326.64" cy="387.29" r=".52"/><circle class="n" cx="187.6" cy="385.85" r=".52"/><g><path class="t" d="M187.54,372.74v7.04h78.31s-25.85-17.95-40.59-17.95-14.07,8.17-24.78,9.51c-1.82,.23-3.56,.23-5.26,.11-1.02,.59-2.28,.93-3.77,.89-1.33-.03-2.63,.05-3.92,.21,0,.06,0,.12,0,.19Z"/><path class="u" d="M202.87,379.79h-11.65l-.8-7.38,3.07-.06s8.07,2.35,9.38,7.44Z"/><path class="n" d="M186.17,372.98c2.61-.03,6.23-.45,12.31-1.63,10.6-2.06,12.05-9.51,26.78-9.51s40.59,17.95,40.59,17.95"/><path class="m" d="M200.37,383.16s-8.25-14.05-22.83-15.03c-14.58-.99-20.43,5.42-20.43,5.42,0,0-4.25-12.24-11.69-12.25-6.18-.01-10.75,2.82-14.92,10.93,0,0-15.36,1.88-17.51,10.93"/></g><circle class="n" cx="226.1" cy="399.98" r=".52"/><path class="t" d="M51.88,316.94c-2.75,19.39,20.99,29.98,31.95,13.75l54.72-77.65,14.27-7.61,7.15-10.01,5.2-3.44,2.03,2.52,6.57,2.99-1.14-12.55-7.18-14.01-16.48,1.04-11.02,4.24-3.39,2.36-7.32,14.24-1.91,9.46-38.53,33.53-34.9,41.14Z"/><polyline class="n" points="77.87 285.16 124.26 242.53 134.55 218.58 150.1 210.94 166.48 210.94 170.25 219.99"/><circle class="n" cx="213.26" cy="389.86" r=".52"/><circle class="n" cx="280.86" cy="385.33" r=".52"/><line class="n" x1="135.88" y1="257.83" x2="140.08" y2="280.96"/><path class="n" d="M138.59,269.7s4.78-7.7,7.05-18.77"/><polyline class="m" points="172.62 224.95 172.46 217.38 162.76 215.03 148.17 218"/><polyline class="n" points="171.74 237.5 174.07 235.83 171.74 221.37 158.87 220.36 146.81 225"/><polyline class="n" points="169.75 236.18 170.25 233.54 168.11 226.62 159.7 227.03 147.12 233.28"/><path class="n" d="M80.42,238.88c9.48,4.91,23.34,8.34,37.56,8.54"/><path class="n" d="M225.58,154.15l57.72,10.8c11.71,1.98,21.34,10.34,24.95,21.66l18.4,57.67s-3.93,8.4-35.92,3.38"/><polygon class="u" points="199.26 303.18 144.88 315.54 143.21 305.6 195.1 301.7 199.26 303.18"/><path class="n" d="M170.04,236.44l-5.14-4.68-3.7,1.94-9.81,13.72-12.84,5.62-53.09,76.82c-10.95,16.24-36.32,6.48-33.58-12.91l44.89-124.6c4.57-12.65,13.74-22.77,26.98-24.38l40.49-4.23,.44-.06c2.57-.34,3.83-3.31,2.28-5.39l-5.43-5.33"/></g></svg>