<?xml version="1.0" encoding="utf-8"?>
<!-- Generator: Adobe Illustrator 27.1.1, SVG Export Plug-In . SVG Version: 6.00 Build 0)  -->
<svg version="1.1" id="Layer_1" xmlns="http://www.w3.org/2000/svg" xmlns:xlink="http://www.w3.org/1999/xlink" x="0px" y="0px"
	 viewBox="0 0 288 288" style="enable-background:new 0 0 288 288;" xml:space="preserve">
<style type="text/css">
	.st0{fill:#DFEDFA;}
	.st1{fill:#3A8DDE;}
	.st2{fill:#202945;}
	.st3{fill:#FFFFFF;}
	.st4{fill:#89BBEB;}
	.st5{fill:none;stroke:#89BBEB;stroke-width:4;stroke-miterlimit:10;}
	.st6{fill:none;stroke:#202945;stroke-width:3;stroke-linecap:round;stroke-linejoin:round;stroke-miterlimit:10;}
	.st7{fill:#CDA787;}
	.st8{opacity:0.35;}
	.st9{clip-path:url(#SVGID_00000090262938716103725070000011115866514996855726_);fill:#FFFFFF;}
	.st10{fill:none;stroke:#202945;stroke-width:2.5;stroke-linecap:round;stroke-linejoin:round;stroke-miterlimit:10;}
	.st11{fill:none;stroke:#202945;stroke-width:2.7;stroke-linecap:round;stroke-linejoin:round;stroke-miterlimit:10;}
	.st12{fill:none;stroke:#202945;stroke-width:1.8;stroke-linecap:round;stroke-linejoin:round;stroke-miterlimit:10;}
	
		.st13{clip-path:url(#SVGID_00000083797516053556530930000015738984073383849401_);fill:none;stroke:#FFFFFF;stroke-width:3;stroke-linecap:round;stroke-linejoin:round;stroke-miterlimit:10;}
	.st14{opacity:0.6;fill:#3A8DDE;}
	.st15{fill:none;stroke:#89BBEB;stroke-width:5;stroke-linecap:round;stroke-linejoin:round;stroke-miterlimit:10;}
	.st16{fill:none;stroke:#202945;stroke-width:5;stroke-linecap:round;stroke-linejoin:round;stroke-miterlimit:10;}
	.st17{fill:#DFEDFA;stroke:#202945;stroke-width:5;stroke-linecap:round;stroke-linejoin:round;stroke-miterlimit:10;}
	.st18{fill:#202945;stroke:#202945;stroke-width:2.4;stroke-linecap:round;stroke-linejoin:round;stroke-miterlimit:10;}
	.st19{fill:#3A8DDE;stroke:#202945;stroke-width:5;stroke-linecap:round;stroke-linejoin:round;stroke-miterlimit:10;}
	.st20{fill:#FFFFFF;stroke:#202945;stroke-width:5.8087;stroke-linecap:round;stroke-linejoin:round;stroke-miterlimit:10;}
	.st21{fill:#FFFFFF;stroke:#202945;stroke-width:5;stroke-linecap:round;stroke-linejoin:round;stroke-miterlimit:10;}
	.st22{fill:#CDA787;stroke:#202945;stroke-width:5;stroke-linecap:round;stroke-linejoin:round;stroke-miterlimit:10;}
	.st23{fill:#1E2947;}
	.st24{fill:#89BBEB;stroke:#202945;stroke-width:5.8087;stroke-linecap:round;stroke-linejoin:round;stroke-miterlimit:10;}
	.st25{fill:#89BBEB;stroke:#202945;stroke-width:5;stroke-linecap:round;stroke-linejoin:round;stroke-miterlimit:10;}
	.st26{fill:none;stroke:#202945;stroke-width:5.8087;stroke-linecap:round;stroke-linejoin:round;stroke-miterlimit:10;}
	.st27{fill:#3A8DDE;stroke:#3A8DDE;stroke-width:2.7726;stroke-linecap:round;stroke-linejoin:round;stroke-miterlimit:10;}
	.st28{fill:none;stroke:#3A8DDE;stroke-width:5;stroke-linecap:round;stroke-linejoin:round;stroke-miterlimit:10;}
	.st29{fill:none;stroke:#3A8DDE;stroke-width:5;stroke-linecap:round;stroke-linejoin:round;}
	.st30{fill:none;stroke:#3A8DDE;stroke-width:5;stroke-linecap:round;stroke-linejoin:round;stroke-dasharray:25.7666,12.368;}
	
		.st31{fill:none;stroke:#3A8DDE;stroke-width:5;stroke-linecap:round;stroke-linejoin:round;stroke-miterlimit:10;stroke-dasharray:25,12;}
	.st32{fill:#DFEDFA;stroke:#DFEDFA;stroke-width:2.4;stroke-linecap:round;stroke-linejoin:round;stroke-miterlimit:10;}
</style>
<g>
	<path class="st17" d="M208.6,51.3H79.4c-6.9,0-12.6,5.6-12.6,12.6v129.3c0,6.9,5.6,12.6,12.6,12.6h129.3c6.9,0,12.6-5.6,12.6-12.6
		V63.9C221.2,56.9,215.6,51.3,208.6,51.3z"/>
	<path class="st17" d="M197.1,71.3l-106.1,0c-2.3,0-4.1,1.8-4.1,4.1l0,106.1c0,2.3,1.8,4.1,4.1,4.1l106.1,0c2.3,0,4.1-1.8,4.1-4.1
		l0-106.1C201.2,73.1,199.3,71.3,197.1,71.3z"/>
	<g>
		<line class="st16" x1="216.9" y1="55.6" x2="200.5" y2="72.1"/>
		<line class="st16" x1="71.6" y1="55.6" x2="88" y2="72.1"/>
	</g>
</g>
<ellipse class="st19" cx="144" cy="179.6" rx="76.7" ry="29.4"/>
<g>
	<g>
		<polygon class="st21" points="175.5,110.6 149.7,138.2 143.4,134.9 138.3,139.4 111.3,110.6 125.4,92.5 161.5,92.5 		"/>
		<line class="st16" x1="112.6" y1="110.7" x2="173.8" y2="110.7"/>
		<g>
			<polyline class="st16" points="140.2,92.5 128.2,110.7 137.3,134.9 			"/>
			<polyline class="st16" points="146.6,92.5 158.6,110.7 149.5,134.9 			"/>
		</g>
	</g>
	<path class="st22" d="M165.1,127.6c-6.2-3.5-13.4-5.6-21.1-5.6c-5.9,0-11.6,1.2-16.7,3.4c-1.5,0.6-2.9,1.4-4.4,2.2v9.8l3.6,5.4
		h34.9l3.6-5.4V127.6z"/>
	<path class="st22" d="M144,130c-6.8,0-13.2,1.4-19.1,3.9c-3.4,1.4-6.5,3.2-9.4,5.3c-12.3,8.9-20.3,23.3-20.3,39.6
		c0,27,21.9,48.8,48.8,48.8s48.8-21.9,48.8-48.8S171,130,144,130z M144,220.3c-21.8,0-39.4-17.4-39.4-39c0-21.5,17.6-39,39.4-39
		c21.8,0,39.4,17.4,39.4,39C183.4,202.9,165.8,220.3,144,220.3z"/>
</g>
<g>
	<g>
		<line class="st15" x1="102.4" y1="86.5" x2="106.7" y2="90.8"/>
		<line class="st15" x1="96.9" y1="96.6" x2="100.6" y2="97.7"/>
		<line class="st15" x1="112.5" y1="81" x2="113.6" y2="84.7"/>
	</g>
	<g>
		<line class="st15" x1="185.6" y1="86.5" x2="181.3" y2="90.8"/>
		<line class="st15" x1="175.5" y1="81" x2="174.4" y2="84.7"/>
		<line class="st15" x1="191.1" y1="96.6" x2="187.4" y2="97.7"/>
	</g>
</g>
<ellipse class="st19" cx="144" cy="179.4" rx="79.7" ry="19.2"/>
<path class="st3" d="M216.6,237.8H71.4c-7.8,0-14.1-6.3-14.1-14.1v-48.9c0-2.2,1.8-4,4-4h165.4c2.2,0,4,1.8,4,4v48.9
	C230.7,231.5,224.3,237.8,216.6,237.8z"/>
<g>
	<g>
		<line class="st16" x1="156.6" y1="224" x2="203.2" y2="224"/>
		<line class="st16" x1="212.6" y1="224" x2="218.4" y2="224"/>
	</g>
	<path class="st16" d="M86.8,237.8H71.4c-7.8,0-14.1-6.3-14.1-14.1v-48.9c0-2.2,1.8-4,4-4h165.4c2.2,0,4,1.8,4,4v48.9
		c0,7.8-6.3,14.1-14.1,14.1H103.9"/>
</g>
</svg>
