<?xml version="1.0" encoding="utf-8"?>
<!-- Generator: Adobe Illustrator 27.1.1, SVG Export Plug-In . SVG Version: 6.00 Build 0)  -->
<svg version="1.1" id="Layer_1" xmlns="http://www.w3.org/2000/svg" xmlns:xlink="http://www.w3.org/1999/xlink" x="0px" y="0px"
	 viewBox="0 0 288 288" style="enable-background:new 0 0 288 288;" xml:space="preserve">
<style type="text/css">
	.st0{fill:#DFEDFA;}
	.st1{fill:#3A8DDE;}
	.st2{fill:#202945;}
	.st3{fill:#FFFFFF;}
	.st4{fill:#89BBEB;}
	.st5{fill:none;stroke:#89BBEB;stroke-width:4;stroke-miterlimit:10;}
	.st6{fill:none;stroke:#202945;stroke-width:3;stroke-linecap:round;stroke-linejoin:round;stroke-miterlimit:10;}
	.st7{fill:#CDA787;}
	.st8{opacity:0.35;}
	.st9{clip-path:url(#SVGID_00000005230420741561683680000004079923323549857186_);fill:#FFFFFF;}
	.st10{fill:none;stroke:#202945;stroke-width:2.5;stroke-linecap:round;stroke-linejoin:round;stroke-miterlimit:10;}
	.st11{fill:none;stroke:#202945;stroke-width:2.7;stroke-linecap:round;stroke-linejoin:round;stroke-miterlimit:10;}
	.st12{fill:none;stroke:#202945;stroke-width:1.8;stroke-linecap:round;stroke-linejoin:round;stroke-miterlimit:10;}
	
		.st13{clip-path:url(#SVGID_00000165193270458455866380000004955140869199703425_);fill:none;stroke:#FFFFFF;stroke-width:3;stroke-linecap:round;stroke-linejoin:round;stroke-miterlimit:10;}
	.st14{opacity:0.6;fill:#3A8DDE;}
	.st15{fill:none;stroke:#89BBEB;stroke-width:5;stroke-linecap:round;stroke-linejoin:round;stroke-miterlimit:10;}
	.st16{fill:none;stroke:#202945;stroke-width:5;stroke-linecap:round;stroke-linejoin:round;stroke-miterlimit:10;}
	.st17{fill:#DFEDFA;stroke:#202945;stroke-width:5;stroke-linecap:round;stroke-linejoin:round;stroke-miterlimit:10;}
	.st18{fill:#202945;stroke:#202945;stroke-width:2.4;stroke-linecap:round;stroke-linejoin:round;stroke-miterlimit:10;}
	.st19{fill:#3A8DDE;stroke:#202945;stroke-width:5;stroke-linecap:round;stroke-linejoin:round;stroke-miterlimit:10;}
	.st20{fill:#FFFFFF;stroke:#202945;stroke-width:5.8087;stroke-linecap:round;stroke-linejoin:round;stroke-miterlimit:10;}
	.st21{fill:#FFFFFF;stroke:#202945;stroke-width:5;stroke-linecap:round;stroke-linejoin:round;stroke-miterlimit:10;}
	.st22{fill:#CDA787;stroke:#202945;stroke-width:5;stroke-linecap:round;stroke-linejoin:round;stroke-miterlimit:10;}
	.st23{fill:#1E2947;}
	.st24{fill:#89BBEB;stroke:#202945;stroke-width:5.8087;stroke-linecap:round;stroke-linejoin:round;stroke-miterlimit:10;}
	.st25{fill:#89BBEB;stroke:#202945;stroke-width:5;stroke-linecap:round;stroke-linejoin:round;stroke-miterlimit:10;}
	.st26{fill:none;stroke:#202945;stroke-width:5.8087;stroke-linecap:round;stroke-linejoin:round;stroke-miterlimit:10;}
	.st27{fill:#3A8DDE;stroke:#3A8DDE;stroke-width:2.7726;stroke-linecap:round;stroke-linejoin:round;stroke-miterlimit:10;}
	.st28{fill:none;stroke:#3A8DDE;stroke-width:5;stroke-linecap:round;stroke-linejoin:round;stroke-miterlimit:10;}
	.st29{fill:none;stroke:#3A8DDE;stroke-width:5;stroke-linecap:round;stroke-linejoin:round;}
	.st30{fill:none;stroke:#3A8DDE;stroke-width:5;stroke-linecap:round;stroke-linejoin:round;stroke-dasharray:25.7666,12.368;}
	
		.st31{fill:none;stroke:#3A8DDE;stroke-width:5;stroke-linecap:round;stroke-linejoin:round;stroke-miterlimit:10;stroke-dasharray:25,12;}
	.st32{fill:#DFEDFA;stroke:#DFEDFA;stroke-width:2.4;stroke-linecap:round;stroke-linejoin:round;stroke-miterlimit:10;}
</style>
<polygon class="st0" points="133.1,128.9 152.7,110.4 194.5,83.5 203.4,92.4 193.9,105.1 173.7,137.4 159.8,147.5 "/>
<path class="st1" d="M139.3,147.5l-15.7,15.7c-1.5,1.5-3.6,2.4-5.7,2.3c-33.4-0.5-61.1,29.7-61.4,30.1c-2.9,3.2-7.9,3.5-11.2,0.6
	c-0.1-0.1-0.2-0.2-0.3-0.3c-3-3-3.1-7.7-0.3-10.9c1.3-1.4,30.9-34,70-35.3l15.8-13.3L139.3,147.5z"/>
<path class="st1" d="M139.3,146.6l-15.8,15.7c-1.5,1.5-2.4,3.6-2.3,5.7c0.5,33.4-29.7,61.1-30.1,61.4c-3.2,2.9-3.5,7.9-0.6,11.2
	c0.1,0.1,0.2,0.2,0.3,0.3c3,3,7.7,3.1,10.9,0.3c1.4-1.3,34.1-30.9,35.3-70l8.8-11.3L139.3,146.6z"/>
<g>
	<path class="st16" d="M128.8,205c4.5-9.7,7.9-20.8,8.3-32.9l35.1-35.1l12.5-18.3"/>
	<path class="st16" d="M124.4,213.7c0.2-0.3,0,0,0.1-0.2"/>
	<path class="st16" d="M197.6,89.2l-74,74c-1.5,1.5-2.4,3.6-2.3,5.7c0.5,33.4-29.7,61.1-30.1,61.4c-3.2,2.9-3.5,7.9-0.6,11.2
		c0.1,0.1,0.2,0.2,0.3,0.3c3,3,7.7,3.1,10.9,0.3c0.7-0.6,8.8-8,17.1-20"/>
	<path class="st16" d="M114.7,149.7c-39.1,1.3-68.8,33.9-70,35.3c-2.8,3.1-2.7,7.9,0.3,10.9c0.1,0.1,0.2,0.2,0.3,0.3
		c3.3,2.9,8.3,2.6,11.2-0.6c0.3-0.4,28-30.6,61.4-30.1c2.1,0,4.2-0.8,5.7-2.3l15.7-15.7"/>
	<polyline class="st16" points="133.1,128.9 152.7,110.4 194.5,83.5 203.4,92.4 193.9,105.1 	"/>
	<path class="st21" d="M147.9,139.1L147.9,139.1c-2.6-2.6-2.6-6.9,0-9.5l7.7-7.7c2.6-2.6,6.9-2.6,9.5,0v0c2.6,2.6,2.6,6.9,0,9.5
		l-7.7,7.7C154.8,141.8,150.6,141.8,147.9,139.1z"/>
	
		<ellipse transform="matrix(0.9441 -0.3296 0.3296 0.9441 -39.1016 55.1906)" class="st17" cx="143.2" cy="142.9" rx="17.3" ry="17.3"/>
	
		<ellipse transform="matrix(0.9694 -0.2457 0.2457 0.9694 -30.7179 39.5592)" class="st25" cx="143.2" cy="142.9" rx="7.4" ry="7.4"/>
	<g>
		<path class="st16" d="M181.2,105.8l4.7,4.7c13.4,13.4,35,13.4,48.4,0l0,0"/>
	</g>
</g>
<g>
	
		<ellipse transform="matrix(0.9198 -0.3925 0.3925 0.9198 -36.5978 47.4002)" class="st22" cx="97.6" cy="113.2" rx="6.7" ry="6.7"/>
	<line class="st16" x1="103.5" y1="108.5" x2="111.4" y2="102.4"/>
</g>
<g>
	
		<ellipse transform="matrix(0.7335 -0.6797 0.6797 0.7335 -94.3082 176.5123)" class="st22" cx="177.9" cy="208.5" rx="6.7" ry="6.7"/>
	<line class="st16" x1="173.2" y1="202.6" x2="167.1" y2="194.8"/>
</g>
<path class="st16" d="M171.8,96.4l-6.4-6.8C147,70,119.3,61.8,93.1,68.4L82.4,71"/>
<ellipse transform="matrix(0.9198 -0.3925 0.3925 0.9198 -17.0354 61.9712)" class="st22" cx="143" cy="72.6" rx="6.7" ry="6.7"/>
<line class="st25" x1="211.5" y1="120.6" x2="211.5" y2="137.1"/>
<g>
	<polygon class="st4" points="219.8,149.3 207.8,137.4 207.8,137.4 186,159.2 186,159.2 207.8,181.1 207.8,181.1 229.7,159.2 
		225.2,154.7 	"/>
	<g>
		<path class="st16" d="M232.8,153.7l3.5,3.5c1.1,1.1,1.1,3,0,4.1L213.5,184c-1.1,1.1-3,1.1-4.1,0l-22.8-22.8c-1.1-1.1-1.1-3,0-4.1
			l22.8-22.8c1.1-1.1,3-1.1,4.1,0l12.6,12.6"/>
		<line class="st16" x1="211.5" y1="135.1" x2="211.5" y2="180.9"/>
		<line class="st16" x1="234.4" y1="158" x2="188.6" y2="158"/>
		<g>
			
				<rect x="204.2" y="152" transform="matrix(0.7071 0.7071 -0.7071 0.7071 174.5461 -102.9026)" class="st3" width="14.5" height="14.5"/>
			
				<rect x="203.5" y="154.7" transform="matrix(0.7075 0.7067 -0.7067 0.7075 173.3939 -100.4436)" class="st4" width="9.1" height="9.1"/>
		</g>
		
			<rect x="204.2" y="152" transform="matrix(0.7071 0.7071 -0.7071 0.7071 174.5461 -102.9026)" class="st16" width="14.5" height="14.5"/>
	</g>
</g>
</svg>
