<?xml version="1.0" encoding="UTF-8"?><svg id="b" xmlns="http://www.w3.org/2000/svg" viewBox="0 0 444.15 478.48"><defs><style>.g,.h,.i,.j,.k,.l{stroke-linejoin:round;}.g,.h,.i,.j,.l{fill:none;}.g,.h,.j,.k,.l{stroke-linecap:round;}.g,.i,.k,.l{stroke-width:3px;}.g,.k{stroke:#cda787;}.h{stroke:#96b9eb;stroke-width:2.5px;}.m{fill:#e3ebf9;}.n,.k{fill:#fff;}.o{fill:#96b9eb;}.p{fill:#202945;}.q{fill:#3a8dde;}.i,.l{stroke:#202945;}.j{stroke:#fff;stroke-width:2px;}</style></defs><g id="c"><path class="m" d="M280.36,24.1C179.83-3.3,61.64,44.18,64.14,143.62c2.49,99.44-122.05,140.85-7.53,257.53,114.53,116.68,256.31,1.54,289.06-67.33S435.11,66.26,280.36,24.1Z"/><path class="q" d="M223.52,47.98h0c-3.11,.84-5.55,3.27-6.39,6.39h0s0,0,0,0c-.84-3.11-3.27-5.55-6.39-6.39h0c3.11-.84,5.55-3.27,6.39-6.39h0s0,0,0,0c.84,3.11,3.27,5.55,6.39,6.39Z"/><rect class="n" x="245.38" y="66.3" width="7.44" height="7.44" rx="3.72" ry="3.72"/><rect class="p" x="146.71" y="408.93" width="9.77" height="9.77" rx="4.88" ry="4.88"/><path class="q" d="M113.28,384.44h0s0,0,0,0c-4.16,1.12-7.41,4.37-8.53,8.53h0s0,0,0,0c-1.12-4.16-4.37-7.41-8.53-8.53h0s0,0,0,0c4.16-1.12,7.41-4.37,8.53-8.53h0s0,0,0,0c1.12,4.16,4.37,7.41,8.53,8.53Z"/><path class="n" d="M244.9,391.53h0c-3.11,.84-5.55,3.27-6.39,6.39h0s0,0,0,0c-.84-3.11-3.27-5.55-6.39-6.39h0c3.11-.84,5.55-3.27,6.39-6.39h0s0,0,0,0c.84,3.11,3.27,5.55,6.39,6.39Z"/><path class="p" d="M310.91,70.02h0c-3.11,.84-5.55,3.27-6.39,6.39h0s0,0,0,0c-.84-3.11-3.27-5.55-6.39-6.39h0c3.11-.84,5.55-3.27,6.39-6.39h0s0,0,0,0c.84,3.11,3.27,5.55,6.39,6.39Z"/></g><g id="d"><rect class="q" x="1.5" y="91.21" width="391.67" height="267.42" rx="10.33" ry="10.33"/><g><rect class="p" x="18.96" y="118.96" width="158.8" height="225.89"/><rect class="p" x="216.29" y="118.96" width="158.8" height="225.89"/></g><rect class="n" x="30.39" y="107.52" width="158.8" height="225.89"/><line class="i" x1="197.06" y1="91.21" x2="197.06" y2="358.63"/><rect class="n" x="204.85" y="107.52" width="158.8" height="225.89"/><g><path class="g" d="M175.6,165.3c0-7.28,9.3-13.18,20.77-13.18,11.47,0,20.77,5.9,20.77,13.18"/><path class="g" d="M175.6,190.46c0-7.28,9.3-13.18,20.77-13.18,11.47,0,20.77,5.9,20.77,13.18"/><path class="g" d="M175.6,215.62c0-7.28,9.3-13.18,20.77-13.18s20.77,5.9,20.77,13.18"/><path class="g" d="M175.6,240.78c0-7.28,9.3-13.18,20.77-13.18,11.47,0,20.77,5.9,20.77,13.18"/><path class="g" d="M175.6,265.94c0-7.28,9.3-13.18,20.77-13.18s20.77,5.9,20.77,13.18"/><path class="g" d="M175.6,291.1c0-7.28,9.3-13.18,20.77-13.18s20.77,5.9,20.77,13.18"/></g><g><g><polygon class="h" points="85.72 148.94 75.19 144.53 64.62 148.85 60.2 159.38 64.52 169.95 75.05 174.37 85.62 170.05 90.04 159.52 85.72 148.94"/><circle class="h" cx="75.12" cy="159.45" r="21.5"/><line class="h" x1="75.12" y1="144.53" x2="75.12" y2="137.95"/><line class="h" x1="75.12" y1="180.95" x2="75.12" y2="174.36"/><line class="h" x1="60.21" y1="159.45" x2="53.62" y2="159.45"/><line class="h" x1="96.62" y1="159.45" x2="90.04" y2="159.45"/><line class="h" x1="64.5" y1="169.92" x2="59.82" y2="174.55"/><line class="h" x1="90.43" y1="144.35" x2="85.74" y2="148.97"/><line class="h" x1="64.43" y1="149.05" x2="59.71" y2="144.46"/><line class="h" x1="90.54" y1="174.44" x2="85.81" y2="169.84"/></g><g><rect class="h" x="59.65" y="205.26" width="32.73" height="32.73" transform="translate(178.98 11.16) rotate(45)"/><rect class="h" x="65.4" y="211.01" width="21.24" height="21.24" transform="translate(178.98 11.16) rotate(45)"/><rect class="h" x="71.05" y="216.65" width="9.94" height="9.94" transform="translate(178.98 11.16) rotate(45)"/><line class="h" x1="76.02" y1="214.6" x2="76.02" y2="200.02"/><line class="h" x1="76.02" y1="243.68" x2="76.02" y2="228.53"/><g><line class="h" x1="68.76" y1="221.85" x2="54.18" y2="221.85"/><line class="h" x1="97.85" y1="221.85" x2="82.7" y2="221.85"/></g></g><g><circle class="h" cx="75.12" cy="284.46" r="21.5"/><polygon class="h" points="79.3 274.37 70.94 274.37 65.03 280.28 65.03 288.64 70.94 294.54 79.3 294.54 85.21 288.64 85.21 280.28 79.3 274.37"/><g><polyline class="h" points="70.94 274.37 75.12 262.96 79.3 274.37"/><polyline class="h" points="79.3 294.24 75.12 305.65 70.94 294.24"/></g><g><polyline class="h" points="65.19 288.48 53.77 284.3 65.19 280.13"/><polyline class="h" points="85.05 280.13 96.47 284.3 85.05 288.48"/></g><g><polyline class="h" points="71.05 294.28 60.03 299.4 65.14 288.37"/><polyline class="h" points="79.19 274.33 90.22 269.21 85.1 280.23"/></g><g><polyline class="h" points="65.14 280.23 60.03 269.21 71.05 274.33"/><polyline class="h" points="85.1 288.37 90.22 299.4 79.19 294.28"/></g></g><g><polygon class="h" points="143.99 203.21 122.56 203.21 114.75 211.01 114.75 232.19 122.6 240.04 143.94 240.04 151.59 232.39 151.59 210.81 143.99 203.21"/><polygon class="h" points="143.99 203.21 122.56 203.21 114.75 211.01 114.75 232.19 122.6 240.04 143.94 240.04 151.59 232.39 151.59 210.81 143.99 203.21"/><polygon class="h" points="124.93 234.43 120.37 229.87 120.37 213.33 124.88 208.82 141.66 208.82 145.98 213.13 145.98 230.07 141.62 234.43 124.93 234.43"/><g><line class="h" x1="122.56" y1="203.21" x2="124.88" y2="208.82"/><line class="h" x1="120.37" y1="213.33" x2="114.75" y2="211.01"/><line class="h" x1="143.79" y1="203.21" x2="141.46" y2="208.82"/><line class="h" x1="145.98" y1="213.33" x2="151.59" y2="211.01"/></g><g><line class="h" x1="143.79" y1="240.04" x2="141.46" y2="234.43"/><line class="h" x1="145.98" y1="229.91" x2="151.59" y2="232.24"/><line class="h" x1="122.65" y1="239.81" x2="124.88" y2="234.43"/><line class="h" x1="120.37" y1="229.91" x2="114.75" y2="232.24"/></g><path class="h" d="M125.4,234.24c1.42-2.5,4.97-10.81,0-25.11"/><path class="h" d="M141.38,209.13c-1.42,2.5-4.97,10.81,0,25.11"/><path class="h" d="M145.94,229.68c-2.5-1.42-10.81-4.97-25.11,0"/><path class="h" d="M120.84,213.69c2.5,1.42,10.81,4.97,25.11,0"/></g><g><path class="h" d="M149.45,290.19c0,8.99-7.29,16.27-16.27,16.27-8.99,0-16.27-7.29-16.27-16.27,0-13.54,16.27-27.75,16.27-27.75,0,0,16.27,14.82,16.27,27.75Z"/><polygon class="h" points="133.17 274.75 139.2 278.32 143.78 285.74 139.42 293.01 133.17 296.67 126.22 292.96 122.27 285.71 126.33 278.04 133.17 274.75"/><line class="h" x1="133.17" y1="274.75" x2="133.17" y2="263.12"/><line class="h" x1="133.17" y1="306.47" x2="133.17" y2="296.38"/><line class="h" x1="143.78" y1="285.74" x2="148.33" y2="285.74"/><line class="h" x1="117.73" y1="285.74" x2="122.27" y2="285.74"/><line class="h" x1="145.83" y1="300.42" x2="122.81" y2="274.31"/><line class="h" x1="120.24" y1="299.7" x2="143.31" y2="274.54"/></g></g><g><g><rect class="g" x="249.1" y="244.62" width="83.5" height="12.62" rx="6.31" ry="6.31"/><g><circle class="k" cx="290.85" cy="250.7" r="15.18"/><polygon class="g" points="298.33 243.29 290.9 240.17 283.44 243.22 280.32 250.65 283.37 258.12 290.8 261.23 298.26 258.18 301.38 250.75 298.33 243.29"/><line class="g" x1="290.85" y1="240.17" x2="290.85" y2="235.53"/><line class="g" x1="290.85" y1="265.88" x2="290.85" y2="261.23"/><line class="g" x1="280.32" y1="250.7" x2="275.67" y2="250.7"/><line class="g" x1="306.03" y1="250.7" x2="301.38" y2="250.7"/><line class="g" x1="283.36" y1="258.1" x2="280.05" y2="261.36"/><line class="g" x1="301.65" y1="240.04" x2="298.34" y2="243.31"/><line class="g" x1="283.3" y1="243.36" x2="279.97" y2="240.12"/><line class="g" x1="301.73" y1="261.28" x2="298.4" y2="258.04"/></g></g><g><polygon class="g" points="332.6 158.24 290.85 154.16 249.1 158.24 249.1 143.58 290.85 147.66 332.6 143.58 332.6 158.24"/><g><circle class="k" cx="291.4" cy="150.68" r="15.18"/><polygon class="g" points="298.88 143.27 291.44 140.15 283.98 143.2 280.86 150.63 283.92 158.1 291.35 161.21 298.81 158.16 301.93 150.73 298.88 143.27"/><line class="g" x1="291.4" y1="140.15" x2="291.4" y2="135.51"/><line class="g" x1="291.4" y1="165.86" x2="291.4" y2="161.21"/><line class="g" x1="280.87" y1="150.68" x2="276.22" y2="150.68"/><line class="g" x1="306.57" y1="150.68" x2="301.92" y2="150.68"/><line class="g" x1="283.9" y1="158.07" x2="280.59" y2="161.34"/><line class="g" x1="302.2" y1="140.02" x2="298.89" y2="143.29"/><line class="g" x1="283.85" y1="143.34" x2="280.52" y2="140.1"/><line class="g" x1="302.28" y1="161.26" x2="298.94" y2="158.02"/></g></g><g><path class="k" d="M292.43,188.4c9.8,0,15.71,4.58,20.93,8.61,4.89,3.78,9.11,7.04,16.19,7.04,1.69,0,3.05,1.37,3.05,3.05s-1.37,3.05-3.05,3.05c-9.17,0-14.88-4.42-19.92-8.32-4.88-3.77-9.49-7.34-17.2-7.34-7.41,0-11.5,3.21-16.23,6.94-5.2,4.09-11.09,8.72-21.73,8.72-1.69,0-3.05-1.37-3.05-3.05,0-1.69,1.37-3.05,3.05-3.05,8.52,0,13.1-3.6,17.95-7.42,4.91-3.86,10.48-8.24,20.01-8.24Z"/><path class="k" d="M291.58,210.17c-9.8,0-15.71-4.58-20.93-8.61-4.89-3.78-9.11-7.04-16.19-7.04-1.69,0-3.05-1.37-3.05-3.05s1.37-3.05,3.05-3.05c9.17,0,14.88,4.42,19.92,8.32,4.88,3.77,9.49,7.34,17.2,7.34,7.41,0,11.5-3.21,16.23-6.94,5.2-4.09,11.09-8.72,21.73-8.72,1.69,0,3.05,1.37,3.05,3.05,0,1.69-1.37,3.05-3.05,3.05-8.52,0-13.1,3.6-17.95,7.42-4.91,3.86-10.48,8.24-20.01,8.24Z"/><g><circle class="k" cx="291.67" cy="198.89" r="15.18"/><polygon class="g" points="299.15 191.48 291.72 188.36 284.26 191.41 281.14 198.84 284.19 206.31 291.62 209.42 299.08 206.37 302.2 198.94 299.15 191.48"/><line class="g" x1="291.67" y1="188.36" x2="291.67" y2="183.72"/><line class="g" x1="291.67" y1="214.07" x2="291.67" y2="209.42"/><line class="g" x1="281.14" y1="198.89" x2="276.49" y2="198.89"/><line class="g" x1="306.85" y1="198.89" x2="302.2" y2="198.89"/><line class="g" x1="284.18" y1="206.28" x2="280.87" y2="209.55"/><line class="g" x1="302.47" y1="188.23" x2="299.16" y2="191.5"/><line class="g" x1="284.12" y1="191.55" x2="280.79" y2="188.31"/><line class="g" x1="302.55" y1="209.47" x2="299.22" y2="206.23"/></g></g><g><g><circle class="k" cx="309.79" cy="298.02" r="5.26"/><circle class="k" cx="331.6" cy="298.02" r="5.26"/><circle class="k" cx="320.78" cy="298.02" r="5.26"/></g><g><circle class="k" cx="250.1" cy="298.02" r="5.26"/><circle class="k" cx="271.91" cy="298.02" r="5.26"/><circle class="k" cx="261.09" cy="298.02" r="5.26"/></g><g><circle class="k" cx="290.63" cy="297.27" r="15.18"/><polygon class="g" points="298.11 289.86 290.68 286.74 283.22 289.79 280.1 297.22 283.15 304.69 290.58 307.81 298.05 304.75 301.16 297.32 298.11 289.86"/><line class="g" x1="290.63" y1="286.75" x2="290.63" y2="282.1"/><line class="g" x1="290.63" y1="312.45" x2="290.63" y2="307.8"/><line class="g" x1="280.11" y1="297.27" x2="275.46" y2="297.27"/><line class="g" x1="305.81" y1="297.27" x2="301.16" y2="297.27"/><line class="g" x1="283.14" y1="304.67" x2="279.83" y2="307.93"/><line class="g" x1="301.44" y1="286.61" x2="298.13" y2="289.88"/><line class="g" x1="283.08" y1="289.93" x2="279.75" y2="286.69"/><line class="g" x1="301.51" y1="307.85" x2="298.18" y2="304.61"/></g></g></g><g><path class="o" d="M83.35,116.52L24.64,49.11c-1.81-2.05-.12-6.49,3.77-9.92h0c3.89-3.43,8.5-4.56,10.31-2.51l58.75,66.61"/><path class="o" d="M107.84,116.2l5.34,6.11,5.04,19.18c.08,.3-.21,.56-.5,.45l-18.62-7.19-7.82-8.96"/><line class="j" x1="35.13" y1="40.71" x2="87.81" y2="100.93"/></g><path class="n" d="M92.63,97.7l-26.13-30.8,26.38-7.31,28.45-6.42,20.14-38.46L203.96,0l-64.82,97.54-49,28.37c-2.56,1.48-5.63,1.77-8.42,.8l-5.41-1.88,20.73-21.09,4.78-6.93-9.17,.89Z"/><path class="n" d="M61.48,107.75l2.21-6.11,.85-5.64-4.97,17.65c-1.37,4.17-6.48,5.69-9.9,2.95l-.84-.67,5.5-31.09,20.91,22.79-.65,.27-5.58,19.06c-1.23,4.21-6.29,5.9-9.8,3.27l-.86-.64,3.13-21.83"/><g><polyline class="h" points="125.44 152.31 123.56 159.38 126.35 170.13 133.13 174.63 139.94 170.23 142.78 159.52 141.08 152.96 140 148.76 133.22 144.27 129.87 146.43"/><path class="h" d="M125.99,138.75c2.16-1.53,4.6-2.4,7.18-2.4,8.93,0,16.17,10.34,16.17,23.09s-7.24,23.09-16.17,23.09c-8.93,0-16.17-10.34-16.17-23.09,0-4.69,1.23-10.47,3.32-14.05"/><line class="h" x1="133.17" y1="144.17" x2="133.17" y2="136.35"/><line class="h" x1="133.17" y1="182.54" x2="133.17" y2="174.75"/><line class="h" x1="120.74" y1="159.45" x2="118" y2="159.45"/><line class="h" x1="148.34" y1="159.45" x2="143.69" y2="159.45"/><line class="h" x1="126.35" y1="170.13" x2="123.99" y2="172.14"/><line class="h" x1="144.92" y1="174.75" x2="142.78" y2="172.8"/></g><path class="p" d="M97.33,126.6l48.61-25.2L189.2,25.07l-50.06,72.46-52.43,29.73,1.62,.47c3.03,.88,6.3,.47,9.02-1.13Z"/><polygon class="p" points="53.55 89.21 74.04 109.75 74.04 105.63 56.68 85.77 54.23 86.35 53.55 89.21"/><g><line class="h" x1="11.05" y1="124.96" x2="11.05" y2="111.55"/><line class="h" x1="11.05" y1="271.56" x2="11.05" y2="134.3"/></g></g><g id="e"><g><path class="p" d="M287.68,280.81l39.15,44.84c17.03,33.25,29.5,69.67,44.09,115.77l1-2.44c10.26-9.64,20.67-19.01,31.6-27.89,6.47-5.26,12.94-10.51,19.2-16l-73.76-120.11-19.96-26.37-6,23.21c-8.68-18.01-18.73-31.55-26.82-40.75-2.64-3-5.53-1.06-5.53-1.06,10.59,28.5,24.1,61.33,24.1,61.33l-18.5-12.94c-3.86-1.9-8.58,2.41-8.58,2.41Z"/><path class="n" d="M389.1,331.97l-26.08-31.54-1.65-41.32-4.78-8.26-6.98,1.87-.65,3.94-2.81-7.55-8.76-1.32-3,4.27-6.95-4.06-6.71,5.6,2.2,6.05c-9.21-17.75-19.64-30.99-27.99-39.95-.35-.37-.73-.64-1.13-.83-.17,1.63-.66,3.21-1.47,4.61-.15,1.37-.55,2.63-1.16,3.78,12.63,25.03,24.08,52.14,24.08,52.14l-18.87-12.39c-3.91-1.79-8.51,2.66-8.51,2.66l40.44,43.67c35.87,65.26,50.94,163.16,50.94,163.16l60.44-61.79-50.58-82.74Z"/><path class="m" d="M360.15,255.54c2.89,20.29,2.86,44.9,2.86,44.9,48.23,54.91,73.9,110.43,73.9,110.43l-14.25,29.07c0-37.56-68.37-129.98-73.72-135.81,0,0,13.04-16.14,11.2-48.6"/><path class="l" d="M325.13,264.31c-9.21-17.75-22.67-36.31-31.03-45.27l-.64,.91c-2.26,3.2-2.56,7.38-.81,10.88,12.21,24.4,22.58,48.57,22.58,48.57l-18.87-12.39c-3.91-1.79-8.51,2.66-8.51,2.66l40.44,43.67c23.21,42.24,37.72,98.15,45.06,132.34"/><path class="n" d="M360.63,478.48h70.59c4.82-3.46,9.17-7.52,12.92-12.1-.23-24.52-.42-49.05-.43-73.57-3.42-2.37-6.58-5.13-9.44-8.19-.28,37.17-30.49,67.21-67.73,67.21-3.78,0-7.48-.31-11.09-.91,.69,2.68,1.31,5.37,1.89,8.07,1.38,6.45,2.42,12.96,3.28,19.49Z"/><path class="l" d="M320.54,253.9s3.05-5.92,7.22-5.92c4.69,0,8.43,12.33,8.43,12.33"/><path class="l" d="M333.61,253.33s3.24-6.27,7.67-6.27c5.25,0,8.96,13.06,8.96,13.06"/><path class="l" d="M431.55,400.18c-9.85-18.75-33.1-59.41-68.53-99.75,0,0,.76-22.43-1.15-38.61,0,0-1.31-11.43-7.18-11.43-4.44,0-6.88,3.19-6.88,3.19"/></g></g><g id="f"><g><path class="l" d="M189.58,21.64l-50.44,75.89-49,28.37c-2.56,1.48-5.63,1.77-8.42,.8l-5.41-1.88,25.45-25.89,14.55-9.92"/><path class="l" d="M83.57,116.53L24.64,49.11c-1.81-2.05-.12-6.49,3.77-9.92h0c3.89-3.43,8.5-4.56,10.31-2.51l58.31,66.72"/><g><path class="l" d="M109.34,116.87l5.45,7.65,5.04,19.18c.08,.3-.21,.56-.5,.45l-18.62-7.19-8.86-10.52"/><path class="l" d="M100.71,136.96s4.54-.92,9.55-5.77"/></g><line class="l" x1="105.6" y1="95.88" x2="92.13" y2="97.11"/><path class="l" d="M74.59,107.89l-5.58,19.06c-1.23,4.21-6.29,5.9-9.8,3.27l-.86-.64,3.13-21.83"/><path class="l" d="M64.54,96l-4.97,17.65c-1.37,4.17-6.48,5.69-9.9,2.95l-.84-.67,5.67-32.04"/><polyline class="l" points="66.5 66.9 92.88 59.6 121.33 53.18 140.1 18.8"/><path class="l" d="M29.34,54.09s3.42-7.13,13.01-12.23"/></g><g><path class="l" d="M342.65,358.63H11.83c-5.7,0-10.33-4.62-10.33-10.33V101.53c0-5.7,4.62-10.33,10.33-10.33H52.1"/><path class="l" d="M148.34,91.21h234.5c5.7,0,10.33,4.62,10.33,10.33v235.57"/></g></g></svg>