<?xml version="1.0" encoding="UTF-8"?><svg id="b" xmlns="http://www.w3.org/2000/svg" viewBox="0 0 427.86 422.02"><defs><style>.h,.i{stroke:#cda787;}.h,.i,.j,.k,.l,.m,.n,.o{stroke-linecap:round;}.h,.i,.m,.n,.o{fill:none;}.h,.j,.k,.l,.m,.n,.o{stroke-linejoin:round;}.h,.n,.o{stroke-width:3px;}.p{fill:#f2e5dd;}.q,.l{fill:#e3ebf9;}.r{fill:#fff;}.s{fill:#96b9eb;}.t,.k{fill:#cda787;}.u{fill:#e2c9b6;}.v{fill:#202945;}.w,.j{fill:#3a8dde;}.i{stroke-miterlimit:10;stroke-width:1.5px;}.j,.k,.l,.m,.n{stroke:#202945;}.j,.m{stroke-width:2.7px;}.k,.l{stroke-width:2px;}.x{opacity:.35;}.o{stroke:#fff;}</style></defs><g id="c"><path class="q" d="M45.88,354.13c76.92,70.28,203.75,82.02,246.95-7.59,43.2-89.6,172.91-69.56,124.3-225.67C368.53-35.23,189.82,2.45,129.23,48.76,68.64,95.07-72.53,245.95,45.88,354.13Z"/><rect class="w" x="390.46" y="124.52" width="7.09" height="7.09" rx="3.54" ry="3.54"/><rect class="v" x="58.53" y="144.07" width="7.09" height="7.09" rx="3.54" ry="3.54"/><path class="v" d="M393.34,173.09h0c-2.89,.78-5.14,3.03-5.92,5.92h0s0,0,0,0c-.78-2.89-3.03-5.14-5.92-5.92h0c2.89-.78,5.14-3.03,5.92-5.92h0s0,0,0,0c.78,2.89,3.03,5.14,5.92,5.92Z"/><path class="w" d="M63.42,322.96h0c-3.16,.85-5.63,3.32-6.48,6.49h0s0,0,0,0c-.85-3.16-3.32-5.63-6.48-6.48h0c3.16-.85,5.63-3.32,6.48-6.49h0s0,0,0,0c.85,3.16,3.32,5.63,6.48,6.48Z"/><path class="r" d="M42.59,201.82h0c-3.11,.84-5.55,3.27-6.39,6.39h0s0,0,0,0c-.84-3.11-3.27-5.55-6.39-6.39h0c3.11-.84,5.55-3.27,6.39-6.39h0s0,0,0,0c.84,3.11,3.27,5.55,6.39,6.39Z"/><path class="r" d="M365.17,76.34h0c-3.59,.97-6.4,3.77-7.37,7.37h0s0,0,0,0c-.97-3.59-3.77-6.4-7.37-7.37h0c3.59-.97,6.4-3.77,7.37-7.37h0s0,0,0,0c.97,3.59,3.77,6.4,7.37,7.37Z"/></g><g id="d"><path class="p" d="M125.28,118.46l36.62,11.45v15.33l19.04,.19s5.3,1.06,0,5.72-15.31,15.36-28.49,16.76-24.69-2.02-37.12-12.23c-12.44-10.2-10.25-20.37-10.25-20.37l20.22-16.86Z"/><path class="p" d="M234.64,247.48l-12.64-41.08-8.36,2.46,10.73,24.97-11.59,28.6,8.95,33.25c2.53,9.4,12.55,14.64,21.71,11.36l27.5-9.85-5.39-23.26-21.64,2.51-9.27-28.95Z"/><circle class="p" cx="111.25" cy="80.28" r="11.77"/><path class="p" d="M50.54,241.68l12.95-39.86s1.81-1.17,6.5,.11c4.69,1.28,17.46,4.97,17.46,4.97l10.93,3.41-16.2,47.15-31.64-15.77"/><path class="r" d="M79.18,396.66c0-45.03,26.25-74.79,26.25-74.79l95.59,2.57,9.23,70.82,3.37,18.56-90,8.21-44.43-25.36Z"/><path class="p" d="M191.45,76.35c0,30.02-13.89,45.8-41.87,45.8-23.67,0-42.87-18.85-42.87-45.8s19.19-48.8,42.87-48.8,41.87,21.85,41.87,48.8Z"/><path class="u" d="M112.91,88.38c-4.7,0-8.51-3.81-8.51-8.51s3.81-8.51,8.51-8.51c1.81,0,3.49,.57,4.87,1.53-1.96-2.28-4.86-3.72-8.1-3.72-5.91,0-10.7,4.79-10.7,10.7s4.79,10.7,10.7,10.7c3.24,0,6.14-1.45,8.1-3.72-1.38,.96-3.06,1.53-4.87,1.53Z"/><path class="v" d="M190.41,61.61c4.19-6.15,6.63-13.57,6.63-21.55,0-21.29-17.38-38.55-38.82-38.55-9.62,0-18.41,3.48-25.19,9.23-19.62,.46-35.39,16.39-35.39,35.99,0,8.06,2.67,15.51,7.18,21.51,0,0,2.91,1,6.43,.28,9.76-1.98,27.67-10.47,27.67-38.75,0,0,17.87-1.6,29.11,5.89,11.24,7.5,19.87,22.63,19.87,22.63l2.51,3.32Z"/><path class="v" d="M97.66,213.68l1.42-4.96-34.51-11.66-.15,3.5s10.53,8.1,33.24,13.12"/><path class="v" d="M106.11,91.25l9.21,.59s3.69,15.01,11.59,20.64l-1.62,31.28-24.32,.52s-9.36-16.29-5.46-32.55,10.6-20.48,10.6-20.48Z"/><path class="s" d="M99.35,257.45l-3.17-35.67,2.21-11.47-34.97-10.21,14.32-40.26s7.1-15.59,27.32-15.83c0,0,16.12,23.91,40.68,23.91s38.11-22.03,38.11-22.03c0,0,16.1,4.13,22.76,17.19s14.81,43.8,14.81,43.8l-7.78,1.98,6.56,20.01-17.86,80.79-2.13,14.75-94.77-2.55-6.09-64.41Z"/><path class="p" d="M85.1,254.21l61,18.15,10.14-7.5,28.45-.6,.06,2.63-1.52,3.93-17.58,1.88,4.1,5.44,9.5,2.93,6.33-3.46,17.78-.97-1.13,3.97h1.88l3.28,.46,1.82,4.11-15.08,4.69-1.05,4.35-27.19,2.53-24.48-8.3-82.23-7.98c-10.94-.64-18.22-11.57-14.6-21.91l8.17-23.29,15.21,8.13,17.18,10.83Z"/><path class="v" d="M126.43,121.64l34.31,9.73,.74-8.71s-19.04,1.42-24.07-3.29-10.5-6.89-10.5-6.89l-.48,9.16Z"/></g><g id="e"><g><path class="n" d="M118.77,72.96c-2.09-2.71-5.39-4.46-9.1-4.46-6.33,0-11.46,5.09-11.46,11.38,0,6.28,5.13,11.38,11.46,11.38,4.19,0,7.86-2.24,9.86-5.57"/><path class="n" d="M108.26,74.37c-2.47,.62-4.3,2.85-4.3,5.5,0,1.1,.32,2.13,.86,3"/></g><path class="n" d="M190.41,61.61c4.19-6.15,6.63-13.57,6.63-21.55,0-21.29-17.38-38.55-38.82-38.55-9.62,0-18.41,3.48-25.19,9.23-19.62,.46-35.39,16.39-35.39,35.99,0,8.06,2.67,15.51,7.18,21.51"/><path class="n" d="M100.61,143.76c-4.25-6.46-6.72-14.19-6.72-22.48,0-10.87,4.24-20.75,11.17-28.11"/><path class="n" d="M136.85,22.74c1.17,3.85,1.72,7.95,1.54,12.2-.68,15.37-9.58,29.09-23.36,33.87"/><path class="n" d="M138.92,29.26h5.27c26.11,0,47.28,21.02,47.28,46.95v8.29c0,21.08-17.21,38.16-38.43,38.16h0c-18.7,0-34.28-13.26-37.72-30.82"/><path class="n" d="M155.48,93.66c1.61,3.26,4.97,5.52,8.88,5.52s7.27-2.26,8.89-5.52"/><path class="n" d="M142.9,59.31c4.96,1.25,10.43-.27,13.97-4.44"/><path class="n" d="M159.12,68.8c-1.04-2.12-3.2-3.58-5.72-3.58s-4.68,1.46-5.72,3.58"/><path class="n" d="M185.71,68.8c-1.04-2.12-3.2-3.58-5.72-3.58s-4.68,1.46-5.72,3.58"/><polyline class="n" points="161.9 121.64 161.9 144.25 168.13 144.25"/><polyline class="n" points="213.61 413.81 205.65 359.26 201.8 324.46 105.43 321.87 101.56 286.04"/><line class="n" x1="206.53" y1="286.71" x2="201.8" y2="324.46"/><path class="n" d="M199.75,182.86l18.01,35.35c3.09,6.06,3.81,13.04,2.03,19.6l-11.81,43.57"/><path class="n" d="M105.43,321.87s-26.25,29.76-26.25,74.79"/><path class="n" d="M171.31,73.71l2.63,6.12c1.46,3.39-1.03,7.17-4.72,7.17h-4.21"/><line class="n" x1="220.65" y1="206.87" x2="213.93" y2="209.82"/><line class="n" x1="84.11" y1="253.04" x2="105.06" y2="189.5"/><line class="n" x1="99.35" y1="257.45" x2="96.06" y2="217.64"/><path class="n" d="M183.85,145.89c-7.6,13.17-21.82,22.03-38.11,22.03s-31.66-9.59-39-23.63"/><g><path class="n" d="M82.19,252.74l63.33,19.84,9.18-6.21c1.31-.89,2.88-1.38,4.51-1.43l25.97-.7h0c1.4,3.36-1.1,7.01-5.02,7.33l-17.02,1.35"/><path class="n" d="M166.99,272.61s1.68,7.65,14.18,8.83c12.5,1.18,14.59,1.27,14.59,1.27l8.04-1.57c2.79-.55,5.42,1.37,5.47,3.98h0s-13.99,4.67-13.99,4.67l-23.02,1.48"/><path class="n" d="M195.29,289.78l-2.95,4.89-25.01,2.5-27.01-8.37-81.17-8.35c-10.94-.64-18.22-11.57-14.6-21.91l8.17-23.29,22.79-70.6c4.53-12.39,16.38-20.65,29.66-20.65h20.96s0-32.27,0-32.27"/><path class="n" d="M182.07,281.38l2.78-3.03c1.23-1.2,3.08-1.68,4.81-1.24l1.16,.29"/><path class="n" d="M187.87,281.93l3.7-3.93c1.15-1.26,2.97-1.83,4.72-1.48l2.7,.53"/><path class="n" d="M193.6,282.39l4.08-4.14c1.27-1.33,3.24-1.9,5.12-1.48l1.26,.28-3.27,4.7"/></g><g><circle class="k" cx="142.2" cy="270.7" r="3.21"/><circle class="k" cx="141.52" cy="277.13" r="3.21"/><circle class="k" cx="140.82" cy="283.69" r="3.21"/><circle class="k" cx="140.82" cy="290.25" r="3.21"/></g><path class="n" d="M65.23,199.5s14.26,8.2,32.73,10.01"/><path class="n" d="M168.13,144.25h9.26c11.09,0,22.14,6.37,28.32,15.59,1.17,1.74,2.04,3.67,2.68,5.66l35.52,110.93,24.02-2.37,10.2,19.87-34.63,12.14c-9.53,3.34-19.88-2.16-22.43-11.93l-7.98-30.51"/></g><g id="f"><polygon class="r" points="336 341.69 281.54 330.48 258.62 396.66 354.04 396.66 363.93 361.16 336 341.69"/><polygon class="w" points="354.87 344.17 282.61 331.18 279.66 326.94 264.54 264.82 264.54 260.83 359.49 317.08 354.87 344.17"/><path class="p" d="M303.13,143.25s1.57-7.33,4.58-3.8c3.01,3.53,13.27,17.93,11.46,21.45-1.81,3.53-9.17,24.82-20.71,25.01-11.54,.19-15.49-7.99-16.81-15.75s2.13-12.01,2.13-12.01l19.36-14.9Z"/><path class="v" d="M307.7,136.03s-8.34,29.77-27,29.77l-.38-3.41-1.94-9.1,2.07-1.65s10.83-2.27,15.88-8.17,8.34-11.81,8.34-11.81l3.03,4.35"/><g><path class="p" d="M298,106.37c2.17,5.45,7.52,9.31,13.78,9.31,8.18,0,14.81-6.58,14.81-14.7,0-8.12-6.63-14.7-14.81-14.7-6.47,0-11.98,4.13-13.99,9.88"/><path class="p" d="M235.47,74.03v21.67c-4.1,.52-7.27,3.99-7.27,8.21s3.17,7.68,7.27,8.21v7.04c0,19.81,16.17,35.86,36.12,35.86h0c19.95,0,36.12-16.06,36.12-35.86v-3.47l.76-31.37-43.85-26.6-29.15,16.32Z"/></g><path class="t" d="M328.78,88.03c-2.68,0-5.25,.49-7.62,1.38l-.3,.57c3.04,2.69,4.96,6.62,4.96,11,0,8.12-6.58,14.7-14.69,14.7-1.13,0-2.23-.13-3.28-.37h0c2.47,9.25,10.9,16.07,20.93,16.07,11.96,0,21.66-9.7,21.66-21.67s-9.7-21.67-21.66-21.67Z"/><path class="t" d="M281.8,24.87c-10.97,0-21.04,3.79-29.01,10.12-1.33-.26-2.69-.39-4.1-.39-11.87,0-21.5,9.63-21.5,21.52s9.63,21.52,21.5,21.52c6.72,0,12.72-3.09,16.66-7.92,.07-.08,.14-.15,.2-.23,4.27,11.59,14.97,20.06,27.77,21.08l7.96,1.79c2.56-2.17,6.21-6.07,9.83-6.07,2.6,0,7.61,2.52,9.73,3.71l4.97-2.56c1.76-4.93,2.72-10.24,2.72-15.77,0-25.83-20.93-46.78-46.75-46.78Z"/><path class="v" d="M340.53,125.53c-9.12,0-17.09-4.9-21.45-12.2-2.29,1.48-6.02,.35-8.95,.35-1.13,0-1.23-.13-2.28-.37h-1c2.47,9.25,11.91,18.07,21.93,18.07,5.83,0,11.12-2.31,15.02-6.06-1.07,.14-2.16,.22-3.26,.22Z"/><path class="u" d="M308.89,90.02c5.7,.51,9.9,5.55,9.39,11.25-.51,5.7-5.55,9.9-11.25,9.39-2.2-.2-4.16-1.07-5.73-2.39,2.13,2.97,5.48,5.04,9.41,5.4,7.16,.65,13.49-4.64,14.14-11.8,.65-7.16-4.64-13.49-11.8-14.14-3.93-.35-7.6,1.08-10.23,3.63,1.78-1.02,3.87-1.53,6.07-1.33Z"/><g><path class="m" d="M152.65,179.08s14.77-10.73,11.87-34.8"/><path class="j" d="M158.07,185.97c.34,2.43-1.25,4.66-3.55,4.98s-4.44-1.39-4.77-3.83c-.51-3.66,3.12-8.08,3.12-8.08,0,0,4.72,3.43,5.2,6.93Z"/><path class="m" d="M153.09,179.08s-27.81-8.29-27.81-35.32"/></g><path class="w" d="M362.96,209.3c-16.73-7.89-27.9-25.18-28.78-44.69-.02-.37,0-.75-.01-1.13l-13.25-6.46s-11.47,27.58-22.47,27.38-15.3-9.39-15.3-9.39l-27.66,67.02,68.64,43.4-7.05-62.91c.77,4.86,5.33,8.18,10.19,7.42,3.06-.48,5.51-2.47,6.71-5.08,1.95,2.12,4.89,3.26,7.95,2.78,3-.47,5.4-2.39,6.63-4.92,1.95,2.04,4.83,3.12,7.83,2.65,4.86-.77,8.18-5.33,7.42-10.19l-.86-5.86Z"/></g><g id="g"><line class="n" x1="304.88" y1="133.08" x2="319.65" y2="158.15"/><path class="n" d="M344.59,169.51l-24.93-11.36s-6.98,27.65-21.2,27.76-15.85-11.32-15.85-11.32l-4.34-20.19"/><line class="n" x1="282.6" y1="174.59" x2="257.23" y2="234.21"/><line class="n" x1="263.96" y1="259.43" x2="280.81" y2="330.35"/><g><path class="n" d="M243.19,82.72c1.26-2.68,4-4.53,7.17-4.53s5.91,1.86,7.17,4.53"/><path class="n" d="M244.57,92.05c1.28-1.12,2.96-1.8,4.8-1.8,2.92,0,5.44,1.71,6.6,4.17"/><path class="n" d="M252.4,125.14c-4.85,2.39-10.6,2.59-15.65,.42"/><path class="n" d="M235.47,74.03v21.67c-4.1,.52-7.27,3.99-7.27,8.21s3.17,7.68,7.27,8.21v7.04c0,19.81,16.17,35.86,36.12,35.86h0c19.95,0,36.12-16.06,36.12-35.86v-4.48"/></g><path class="n" d="M298.92,105.61c1.97,4.96,6.84,8.48,12.54,8.48,7.44,0,13.48-5.99,13.48-13.38,0-7.39-6.03-13.38-13.48-13.38-5.89,0-10.9,3.76-12.73,8.99"/><path class="n" d="M313.12,107.17c2.91-.74,5.06-3.35,5.06-6.47,0-2.92-1.89-5.4-4.52-6.31"/><path class="n" d="M308.47,115.31c2.49,9.25,10.99,16.07,21.09,16.07,12.05,0,21.83-9.7,21.83-21.67,0-11.97-9.77-21.67-21.83-21.67-2.7,0-5.29,.49-7.68,1.38"/><g class="x"><path class="o" d="M232.71,57.71c0-8.97,7.32-16.24,16.36-16.24"/><path class="o" d="M319.73,60.73c-3.38-11.88-12.31-21.44-23.84-25.73"/></g><path class="n" d="M326.58,87.42c1.78-4.93,2.74-10.24,2.74-15.77,0-25.83-21.09-46.78-47.1-46.78-11.05,0-21.2,3.79-29.23,10.12-1.34-.26-2.71-.39-4.13-.39-11.97,0-21.67,9.63-21.67,21.52s9.7,21.52,21.67,21.52c6.77,0,12.82-3.09,16.79-7.92,.07-.08,.14-.15,.21-.23,4.3,11.59,15.08,20.06,27.99,21.08"/><polyline class="n" points="333.32 340.3 280.81 330.35 255.98 400.48"/><line class="n" x1="355.39" y1="343.82" x2="373.5" y2="396.66"/><polyline class="n" points="359.26 315.22 355.39 343.82 343.52 341.69"/><circle class="l" cx="307.56" cy="112.43" r="4.12" transform="translate(80.04 347.95) rotate(-66.07)"/><g><path class="p" d="M363.61,226.39l2.23,78.35s-1.69,13.34-15.16,12.74c-16.55-.74-27.42-15.81-27.42-15.81l-2.07-27.84-5.05-43.2,47.47-4.24Z"/><g><path class="v" d="M363.23,223.48c.55,4.89-2.97,9.3-7.86,9.85-3.01,.34-5.84-.87-7.7-2.99-1.34,2.48-3.83,4.29-6.85,4.62s-5.96-.92-7.82-3.13c-1.32,2.56-3.85,4.44-6.93,4.78-4.89,.55-9.3-2.97-9.85-7.86l.12-2.68,1.14-3.25,37.49-1.1,4.92-1.66,3.34,3.41Z"/><path class="v" d="M358.67,317.08l-11.52,.88-82.43-59.77-.18,3.99,67.94,62.89c6.08,6.54,17.17,7.84,25.16,4.07,.23-3.13,.64-8.96,1.03-12.07Z"/><path class="w" d="M358.88,180.14s-5.82-9.29-14.11-12.71c-4.45,1.17-9.03,1.74-13.51,1.63-1.68,2.19-3.49,4.19-5.39,5.94-3.4,3.11-7.37,5.73-11.63,7.79,.21,1.95,.33,3.91,.33,5.9,0,10.5-5.15,22.03-12.22,30.25,7.46,9.15,11.79,21.01,11.8,33.61,0,7.7-2.77,15.97-7.04,23.08l12.65,8.81-4.25-63.16c.55,4.89,4.96,8.41,9.85,7.86,3.08-.35,5.61-2.22,6.93-4.78,1.85,2.2,4.74,3.47,7.82,3.13,3.01-.34,5.5-2.14,6.85-4.62,1.86,2.12,4.69,3.33,7.7,2.99,4.89-.55,8.41-4.96,7.86-9.85l-3.64-35.86Z"/><polyline class="v" points="316.14 230.63 319.35 253.15 320.5 266.02 312.66 260.91 316.14 230.63"/><path class="n" d="M313.13,193.06c-.46-5.87,1.3-11.4,4.58-15.78"/><line class="n" x1="319.14" y1="263.18" x2="313.62" y2="199.24"/><path class="n" d="M315.6,222.49c.54,4.77,4.88,8.21,9.68,7.68,3.02-.34,5.51-2.16,6.81-4.66,1.82,2.15,4.66,3.39,7.68,3.05,2.96-.33,5.41-2.09,6.72-4.51,1.83,2.07,4.61,3.25,7.57,2.92,4.81-.53,8.26-4.84,7.72-9.61"/><g><path class="p" d="M180.26,248.41l22.73-13.6-16.49-.35c-2.64-.06-3.1-3.79-.56-4.49l34.25-9.4c10.78-2.96,17.45-3.74,27.34,3.16h0s98.73,56.74,98.73,56.74l13,34.76-14.64,1.99-99.25-72.74s-7.15,9.7-14.33,8.49l-18.22,14.77-7.91-.93,9.88-13.79-6.59,3.63-9.2,6.17-6.17-3.33,14.93-13.94-5.53,.79-16.89,6.94-6.39-2.43-1.65-1.68,2.95-.75Z"/><path class="h" d="M211.28,242.79s7.16-1.09,8.08,5.21"/><path class="n" d="M212.97,231.28l-35.69,18.7,4.63,2.38c2.29,1.18,5,1.23,7.33,.14l16.63-7.79,8.19-3.84-6.01,5.27-15.89,13.94,3.88,1.22c2.89,.91,6.04,.36,8.45-1.46l19.05-13.05-17.35,18.9,3.23,.99c2.33,.72,4.86,.11,6.61-1.58l19.44-15.99"/><path class="n" d="M231.05,252.96c8.68-1.07,14.33-8.49,14.33-8.49l96.37,70.71c10.54,7.29,24.87-.68,24.24-13.48l-5.55-112.11c-1.02-12.88-12.35-22.51-25.32-21.51h0c-2.63,.2-5.12,.83-7.42,1.8"/><path class="n" d="M203.28,236.08l-16.49-.35c-2.64-.06-3.1-3.77-.56-4.46l34.25-9.32c10.78-2.93,17.44-3.63,27.33,3.22h0s79.42,43.07,79.42,43.07"/><g><polygon class="l" points="216.76 242.66 212.9 238.44 217.03 236.42 220.98 238.8 216.76 242.66"/><g><line class="i" x1="217.28" y1="244.25" x2="220.35" y2="241.63"/><line class="i" x1="216.05" y1="244.2" x2="212.86" y2="241.09"/></g></g></g></g></g></g></svg>