<?xml version="1.0" encoding="UTF-8"?><svg id="a" xmlns="http://www.w3.org/2000/svg" viewBox="0 0 975.64 159.59"><defs><style>.b{fill:#fff;}</style></defs><g><path class="b" d="M145.14,47.55c-16.06-16.06-38.97-21.19-59.42-15.42-20.45-5.77-43.36-.64-59.42,15.43L0,73.86l59.42,59.42h0s.71,.71,.71,.71l25.59,25.59h0s0,0,0,0l85.73-85.73-26.31-26.31Zm-7.34,7.34l13.78,13.78h-25.85c-2.95-7.7-7.5-14.92-13.7-21.12-2.77-2.77-5.76-5.21-8.89-7.33,12.57,.21,25.08,5.1,34.66,14.67Zm-33.11,71.04l-18.97,18.97-18.97-18.97c-9.49-9.49-14.71-22.1-14.71-35.52,0-3.87,.45-7.68,1.3-11.36H118.08c3.77,16.33-.69,34.19-13.39,46.89Zm-47.72-57.27c2.43-5.04,5.71-9.7,9.78-13.78,5.53-5.53,12.03-9.49,18.96-11.9,6.93,2.41,13.44,6.37,18.97,11.9,4.12,4.12,7.37,8.79,9.75,13.78H56.98Zm-23.33-13.78c9.57-9.57,22.08-14.45,34.66-14.67-3.13,2.12-6.11,4.56-8.89,7.33-6.11,6.11-10.73,13.29-13.74,21.12H19.87l13.77-13.78Zm-13.77,24.16h22.86c-.7,3.71-1.07,7.51-1.07,11.36s.38,7.76,1.1,11.52l-22.89-22.89Zm108.81,0h22.89l-22.92,22.92c1.46-7.56,1.47-15.35,.03-22.92Z"/><g><circle class="b" cx="69.68" cy="9.27" r="9.27"/><circle class="b" cx="40.56" cy="20.3" r="6.5" transform="translate(-1.08 2.31) rotate(-3.23)"/><circle class="b" cx="130.89" cy="20.3" r="6.5" transform="translate(-.94 7.4) rotate(-3.23)"/><circle class="b" cx="101.73" cy="9.27" r="9.27"/></g></g><g><path class="b" d="M253.48,147.09h-31.82V35.55h31.82c32.34,0,61.01,20.1,61.01,55.77s-28.67,55.77-61.01,55.77Zm-2.45-99.12h-14.86v87.06h14.86c27.27,0,48.78-14.51,48.78-43.53s-21.5-43.53-48.78-43.53Z"/><path class="b" d="M399.35,149.01c-30.24,0-58.74-22.38-58.74-57.87s28.5-57.69,58.74-57.69,58.74,22.55,58.74,57.69-28.5,57.87-58.74,57.87Zm0-102.8c-22.55,0-44.23,17.13-44.23,45.28s21.68,45.45,44.23,45.45,44.23-17.31,44.23-45.45-22.03-45.28-44.23-45.28Z"/><path class="b" d="M491.04,147.09V35.55h14.34v99.12h50.52v12.41h-64.86Z"/><path class="b" d="M634.21,149.01c-30.59,0-60.49-20.98-60.49-57.69s30.77-57.87,59.61-57.87c14.86,0,27.1,3.5,35.49,8.74l-2.8,12.76c-8.04-5.07-19.23-8.74-31.12-8.74-23.6,0-46.68,16.08-46.68,45.45s22.55,45.28,46.85,45.28c11.36,0,20.45-2.62,26.22-6.64v-26.92h-27.62v-11.54h41.26v45.28c-10.66,8.22-23.95,11.89-40.73,11.89Z"/><path class="b" d="M715.86,147.09V35.55h14.34v111.54h-14.34Z"/><path class="b" d="M867.08,149.18l-53.5-59.61c-8.74-9.79-18.71-21.5-26.4-30.77l-.35,.17c.35,10.14,.35,20.1,.35,29.37v58.74h-14.34V35.55h9.96l49.82,55.77c6.99,7.87,17.13,19.41,24.3,28.32l.35-.17c-.35-9.27-.35-19.06-.35-27.8V35.55h14.34v113.63h-4.2Z"/><path class="b" d="M939.11,147.96c-12.41,0-22.9-3.85-28.85-8.04l-1.75-14.51c8.04,6.29,18.88,10.66,31.12,10.66,13.11,0,22.38-7.52,22.38-18.71s-6.47-17.31-20.98-22.38c-19.58-6.64-29.37-16.26-29.37-31.82,0-14.51,10.84-28.67,33.39-28.67,10.49,0,19.23,3.32,23.6,6.29l-2.8,11.54c-4.2-2.97-12.59-6.47-21.15-6.47-12.76,0-19.93,7.87-19.93,16.26,0,9.09,6.12,14.69,19.06,19.23,19.41,6.99,31.82,15.73,31.82,34.79s-13.64,31.82-36.54,31.82Z"/></g></svg>