<?xml version="1.0" encoding="UTF-8"?><svg id="a" xmlns="http://www.w3.org/2000/svg" viewBox="0 0 418.11 389.18"><defs><style>.b{fill:#222943;}</style></defs><path class="b" d="M353.96,115.96c-39.17-39.17-95.03-51.68-144.9-37.61-49.87-14.07-105.73-1.55-144.9,37.62L0,180.12l144.9,144.9h0s1.74,1.74,1.74,1.74l62.41,62.41h0s0,0,0,0l209.05-209.05-64.16-64.16Zm-17.9,17.91l33.59,33.59h-63.03c-7.19-18.78-18.3-36.39-33.41-51.5-6.76-6.76-14.04-12.7-21.68-17.87,30.66,.52,61.17,12.43,84.52,35.78Zm-80.75,173.25l-46.25,46.25-46.25-46.25c-23.14-23.14-35.88-53.9-35.88-86.63,0-9.45,1.1-18.73,3.16-27.71h157.87c9.18,39.82-1.68,83.37-32.65,114.34Zm-116.36-139.66c5.92-12.3,13.92-23.65,23.86-33.59,13.48-13.48,29.34-23.15,46.25-29.03,16.91,5.87,32.77,15.54,46.25,29.03,10.05,10.05,17.96,21.44,23.78,33.59H138.94Zm-56.89-33.59c23.35-23.35,53.85-35.25,84.52-35.77-7.64,5.17-14.91,11.11-21.67,17.87-14.89,14.89-26.17,32.41-33.5,51.5H48.46l33.59-33.59Zm-33.59,58.91h55.75c-1.71,9.04-2.6,18.31-2.6,27.71s.92,18.94,2.67,28.1l-55.81-55.81Zm265.36,0h55.82l-55.9,55.9c3.56-18.45,3.58-37.44,.08-55.9Z"/><g><circle class="b" cx="169.94" cy="22.61" r="22.61" transform="translate(58.57 152.94) rotate(-57.06)"/><ellipse class="b" cx="98.92" cy="49.51" rx="15.86" ry="15.87" transform="translate(-2.63 5.64) rotate(-3.23)"/><ellipse class="b" cx="319.2" cy="49.51" rx="15.86" ry="15.87" transform="translate(-2.28 18.04) rotate(-3.23)"/><circle class="b" cx="248.09" cy="22.61" r="22.61" transform="translate(27.58 138.52) rotate(-32.94)"/></g></svg>